<svg xmlns="http://www.w3.org/2000/svg" xmlns:xlink="http://www.w3.org/1999/xlink" xmlns:lucid="lucid" width="1550.31" height="563.33"><g transform="translate(-122.66666666666674 -261.666666666628)" lucid:page-tab-id="re8KJjouTQd5"><path d="M0 0h1760v1360H0z" fill="#fff"/><path d="M892.62 287.67a6 6 0 0 1 6-6h748.35a6 6 0 0 1 6 6v468a6 6 0 0 1-6 6H898.62a6 6 0 0 1-6-6z" fill="#fff"/><path d="M896.33 282.14l.43-.18.92-.22.94-.07h2m3.97 0h3.97m3.98 0h3.98m3.98 0h4m3.97 0h3.98m3.98 0h3.98m4 0h3.98m3.98 0h3.98m3.98 0h3.98m3.98 0h3.98m3.98 0h3.98m3.98 0h3.98m3.98 0h3.98m3.98 0h3.98m3.98 0h4m3.96 0h4m3.97 0h4m3.97 0h3.98m3.98 0h3.98m4 0h3.97m3.98 0h3.98m3.98 0h4m3.97 0h4m3.96 0h4m3.97 0h3.98m3.98 0h3.98m3.98 0h3.98m3.98 0h3.98m3.98 0h3.98m3.98 0h3.98m3.98 0h3.98m4 0h3.97m4 0h3.97m3.98 0h3.98m3.98 0h4m3.97 0h3.98m3.98 0h3.98m4 0h3.97m3.98 0h3.98m4 0h3.97m3.98 0h3.98m3.98 0h3.98m3.98 0h3.98m3.98 0h3.98m3.98 0h3.98m3.98 0h3.98m3.98 0h4m3.97 0h4m3.97 0h3.98m3.98 0h3.98m4 0h3.97m3.98 0h3.98m3.98 0h4m3.97 0h3.98m3.98 0h4m3.97 0h3.98m3.98 0h3.98m3.98 0h3.98m3.98 0h3.98m3.98 0h3.98m3.98 0h3.98m3.98 0h3.98m3.98 0h3.98m4 0h3.97m3.98 0h3.98m3.98 0h4m3.97 0h3.98m3.98 0h3.98m4 0h3.97m3.98 0h3.98m3.98 0h4m3.98 0h3.98m3.98 0h3.98m3.98 0h3.98m3.98 0h3.98m3.98 0h3.98m3.98 0h3.98m3.98 0h3.98m4 0h3.97m3.97 0h3.98m3.98 0h3.98m4 0h3.97m3.98 0h3.98m3.98 0h4m3.97 0h3.98m3.98 0h3.98m4 0h3.98m3.98 0h3.98m3.98 0h3.98m3.98 0h3.98m3.98 0h3.98m3.98 0h3.98m3.98 0h3.98m3.98 0h3.98m3.98 0h2l.93.07.93.22.43.18m3.24 3.24l.18.43.22.93.07.94v1.98m0 3.97v3.96m0 3.97v3.96m0 3.98v3.97m0 3.96v3.98m0 3.97v3.96m0 3.98v3.96m0 3.97v3.98m0 3.96v3.97m0 3.97v3.97m0 3.97v3.97m0 3.97v3.96m0 3.97v3.97m0 3.96v3.97m0 3.96v3.97m0 3.97v3.96m0 3.97v3.96m0 3.97v3.97m0 3.96v3.97m0 3.96v3.96m0 3.97v3.96m0 3.96v3.97m0 3.96v3.96m0 3.96v3.97m0 3.96v3.96m0 3.97v3.95m0 3.97v3.97m0 3.95v3.97m0 3.97v3.95m0 3.97v3.96m0 3.97v3.97m0 3.96v3.97m0 3.96v3.98m0 3.97v3.96m0 3.98v3.97m0 3.96v3.98m0 3.96v3.97m0 3.97v3.97m0 3.97v3.97m0 3.97V599m0 3.97v3.97m0 3.96v3.97m0 3.97v3.96m0 3.97v3.96m0 3.97v3.97m0 3.96v3.97m0 3.97v3.96m0 3.97v3.96m0 3.97v3.97m0 3.96v3.97m0 3.96v3.96m0 3.97v3.96m0 3.96v3.96m0 3.97v3.96m0 3.96V718m0 3.96v3.96m0 3.97v3.95m0 3.97v3.96m0 3.97v3.97m0 3.96v2l-.07.93-.22.92-.18.44m-3.24 3.23l-.43.17-.92.22-.93.07h-2m-3.97 0h-3.98m-3.98 0h-3.98m-3.98 0h-3.98m-3.98 0h-3.98m-3.98 0h-3.98m-3.98 0h-3.98m-3.98 0h-3.98m-3.98 0h-3.98m-4 0h-3.97m-3.98 0h-3.98m-3.98 0h-4m-3.97 0h-3.98m-3.98 0h-3.98m-4 0h-3.97m-3.98 0h-3.98m-3.98 0h-4m-3.98 0h-3.98m-3.98 0h-3.98m-3.98 0h-3.98m-3.98 0h-3.98m-3.98 0h-3.98m-3.98 0h-3.98m-3.98 0h-3.98m-4 0h-3.97m-3.97 0h-3.98m-3.98 0H1438m-4 0h-3.97m-3.98 0h-3.98m-3.98 0h-4m-3.97 0h-3.98m-3.98 0h-3.98m-4 0h-3.98m-3.98 0h-3.98m-3.98 0h-3.98m-3.98 0h-3.98m-3.98 0h-3.98m-3.98 0h-3.98m-3.98 0h-3.98m-3.98 0h-3.98m-3.98 0h-4m-3.97 0h-3.98m-3.98 0h-4m-3.97 0h-3.98m-3.98 0h-3.98m-4 0h-3.97m-3.98 0h-3.98m-3.98 0h-4m-3.97 0h-4m-3.97 0h-3.98m-3.98 0h-3.98m-3.98 0h-3.98m-3.98 0H1231m-3.98 0h-3.98m-3.98 0h-3.98m-3.98 0h-3.98m-3.98 0h-4m-3.97 0h-3.98m-4 0h-3.97m-3.98 0h-3.98m-3.98 0h-4m-3.97 0h-3.98m-3.98 0h-3.98m-4 0h-3.97m-4 0h-3.97m-3.98 0h-3.98m-3.98 0h-3.98m-3.98 0h-3.98m-3.98 0h-3.98m-3.98 0h-3.98m-3.98 0h-3.98m-3.98 0h-4m-3.96 0h-4m-3.97 0h-4m-3.97 0h-3.98m-3.98 0h-3.98m-4 0h-3.97m-3.98 0h-3.98m-3.98 0h-4m-3.97 0h-4m-3.96 0h-4m-3.97 0h-3.98m-3.98 0h-3.98m-3.98 0h-3.98m-3.98 0h-3.98m-3.98 0h-3.98m-3.98 0h-3.98m-3.98 0h-4m-3.97 0h-3.98m-4 0h-3.97m-3.98 0h-3.98m-3.98 0h-4m-3.97 0h-3.98m-3.98 0h-3.98m-4 0h-1.98l-.94-.08-.92-.23-.43-.18m-3.24-3.24l-.2-.44-.2-.9-.08-.95v-2m0-3.95v-3.97m0-3.97v-3.96m0-3.97v-3.96m0-3.98v-3.96m0-3.97V714m0-3.96v-3.97m0-3.98v-3.96m0-3.97v-3.97m0-3.97v-3.97m0-3.97v-3.97m0-3.97v-3.97m0-3.97v-3.96m0-3.97v-3.96m0-3.97v-3.97m0-3.96v-3.97m0-3.97v-3.96m0-3.97v-3.96m0-3.97v-3.97m0-3.96v-3.97m0-3.96v-3.96m0-3.97v-3.96m0-3.96v-3.97m0-3.96v-3.96m0-3.96v-3.97m0-3.95v-3.97m0-3.97v-3.95m0-3.97v-3.97m0-3.95v-3.97m0-3.96v-3.97m0-3.97v-3.96m0-3.97v-3.96m0-3.98v-3.97m0-3.96v-3.98m0-3.97V484m0-3.98v-3.96m0-3.97v-3.98m0-3.96v-3.97m0-3.97v-3.97m0-3.97v-3.97m0-3.97v-3.97m0-3.97v-3.97m0-3.96v-3.97m0-3.96v-3.97m0-3.97v-3.96m0-3.97v-3.97m0-3.96v-3.97m0-3.96v-3.97m0-3.97v-3.96m0-3.97V365m0-3.96v-3.97m0-3.96v-3.96m0-3.96v-3.97m0-3.96v-3.96m0-3.97v-3.95m0-3.97v-3.97m0-3.95v-3.97m0-3.97v-3.95m0-3.97v-3.96m0-3.97v-1.98l.07-.94.2-.92.2-.42" stroke="#3a414a" fill="none"/><use xlink:href="#a" transform="matrix(1,0,0,1,897.6168538562822,286.666666666628) translate(228.4938271604938 19.555555555555557)"/><path d="M1071.33 478.9a1 1 0 0 1 1-1H1629a1 1 0 0 1 1 1v35.54a1 1 0 0 1-1 1h-556.67a1 1 0 0 1-1-1z" stroke="#000" fill="#edf5ff"/><use xlink:href="#b" transform="matrix(1,0,0,1,1076.3333333333337,482.88888888885015) translate(0 18.046875)"/><use xlink:href="#c" transform="matrix(1,0,0,1,1076.3333333333337,482.88888888885015) translate(115.21875 18.046875)"/><use xlink:href="#d" transform="matrix(1,0,0,1,1076.3333333333337,482.88888888885015) translate(172.828125 18.046875)"/><use xlink:href="#e" transform="matrix(1,0,0,1,1076.3333333333337,482.88888888885015) translate(220.8359375 18.046875)"/><use xlink:href="#f" transform="matrix(1,0,0,1,1076.3333333333337,482.88888888885015) translate(297.6484375 18.046875)"/><use xlink:href="#g" transform="matrix(1,0,0,1,1076.3333333333337,482.88888888885015) translate(336.0546875 18.046875)"/><use xlink:href="#h" transform="matrix(1,0,0,1,1076.3333333333337,482.88888888885015) translate(393.6640625 18.046875)"/><use xlink:href="#i" transform="matrix(1,0,0,1,1076.3333333333337,482.88888888885015) translate(441.671875 18.046875)"/><path d="M1071.33 516.44a1 1 0 0 1 1-1H1629a1 1 0 0 1 1 1V552a1 1 0 0 1-1 1h-556.67a1 1 0 0 1-1-1z" stroke="#000" fill="#cfe4ff"/><use xlink:href="#b" transform="matrix(1,0,0,1,1076.3333333333337,520.4444444444057) translate(0 18.046875)"/><use xlink:href="#c" transform="matrix(1,0,0,1,1076.3333333333337,520.4444444444057) translate(115.21875 18.046875)"/><use xlink:href="#d" transform="matrix(1,0,0,1,1076.3333333333337,520.4444444444057) translate(172.828125 18.046875)"/><use xlink:href="#e" transform="matrix(1,0,0,1,1076.3333333333337,520.4444444444057) translate(220.8359375 18.046875)"/><use xlink:href="#j" transform="matrix(1,0,0,1,1076.3333333333337,520.4444444444057) translate(297.6484375 18.046875)"/><use xlink:href="#k" transform="matrix(1,0,0,1,1076.3333333333337,520.4444444444057) translate(326.453125 18.046875)"/><use xlink:href="#g" transform="matrix(1,0,0,1,1076.3333333333337,520.4444444444057) translate(374.4609375 18.046875)"/><use xlink:href="#h" transform="matrix(1,0,0,1,1076.3333333333337,520.4444444444057) translate(432.0703125 18.046875)"/><use xlink:href="#i" transform="matrix(1,0,0,1,1076.3333333333337,520.4444444444057) translate(480.078125 18.046875)"/><path d="M1071.33 554a1 1 0 0 1 1-1H1629a1 1 0 0 1 1 1v35.56a1 1 0 0 1-1 1h-556.67a1 1 0 0 1-1-1z" stroke="#000" fill="#edf5ff"/><use xlink:href="#l" transform="matrix(1,0,0,1,1076.3333333333337,557.9999999999613) translate(0 18.046875)"/><use xlink:href="#m" transform="matrix(1,0,0,1,1076.3333333333337,557.9999999999613) translate(105.6171875 18.046875)"/><use xlink:href="#n" transform="matrix(1,0,0,1,1076.3333333333337,557.9999999999613) translate(163.2265625 18.046875)"/><use xlink:href="#o" transform="matrix(1,0,0,1,1076.3333333333337,557.9999999999613) translate(220.8359375 18.046875)"/><use xlink:href="#p" transform="matrix(1,0,0,1,1076.3333333333337,557.9999999999613) translate(278.4453125 18.046875)"/><use xlink:href="#q" transform="matrix(1,0,0,1,1076.3333333333337,557.9999999999613) translate(316.8515625 18.046875)"/><path d="M1071.33 591.56a1 1 0 0 1 1-1H1629a1 1 0 0 1 1 1v35.55a1 1 0 0 1-1 1h-556.67a1 1 0 0 1-1-1z" stroke="#000" fill="#cfe4ff"/><use xlink:href="#r" transform="matrix(1,0,0,1,1076.3333333333337,595.555555555517) translate(0 18.046875)"/><use xlink:href="#s" transform="matrix(1,0,0,1,1076.3333333333337,595.555555555517) translate(115.21875 18.046875)"/><use xlink:href="#j" transform="matrix(1,0,0,1,1076.3333333333337,595.555555555517) translate(201.6328125 18.046875)"/><use xlink:href="#t" transform="matrix(1,0,0,1,1076.3333333333337,595.555555555517) translate(230.4375 18.046875)"/><use xlink:href="#u" transform="matrix(1,0,0,1,1076.3333333333337,595.555555555517) translate(278.4453125 18.046875)"/><use xlink:href="#v" transform="matrix(1,0,0,1,1076.3333333333337,595.555555555517) translate(422.46875 18.046875)"/><path d="M1071.33 441.33a1 1 0 0 1 1-1H1629a1 1 0 0 1 1 1v35.56a1 1 0 0 1-1 1h-556.67a1 1 0 0 1-1-1z" stroke="#000" fill="#1071e5"/><use xlink:href="#w" transform="matrix(1,0,0,1,1076.3333333333337,445.3333333332945) translate(0 19.82421875)"/><use xlink:href="#x" transform="matrix(1,0,0,1,1076.3333333333337,445.3333333332945) translate(76.54578993055554 19.82421875)"/><path d="M142.67 366.22a1 1 0 0 1 1-1H703a1 1 0 0 1 1 1v35.56a1 1 0 0 1-1 1H143.67a1 1 0 0 1-1-1z" stroke="#000" fill="#edf5ff"/><use xlink:href="#b" transform="matrix(1,0,0,1,147.66666666666674,370.22222222218346) translate(0 18.046875)"/><use xlink:href="#c" transform="matrix(1,0,0,1,147.66666666666674,370.22222222218346) translate(115.21875 18.046875)"/><use xlink:href="#d" transform="matrix(1,0,0,1,147.66666666666674,370.22222222218346) translate(172.828125 18.046875)"/><use xlink:href="#e" transform="matrix(1,0,0,1,147.66666666666674,370.22222222218346) translate(220.8359375 18.046875)"/><use xlink:href="#f" transform="matrix(1,0,0,1,147.66666666666674,370.22222222218346) translate(297.6484375 18.046875)"/><use xlink:href="#g" transform="matrix(1,0,0,1,147.66666666666674,370.22222222218346) translate(336.0546875 18.046875)"/><use xlink:href="#h" transform="matrix(1,0,0,1,147.66666666666674,370.22222222218346) translate(393.6640625 18.046875)"/><use xlink:href="#i" transform="matrix(1,0,0,1,147.66666666666674,370.22222222218346) translate(441.671875 18.046875)"/><path d="M142.67 403.78a1 1 0 0 1 1-1H703a1 1 0 0 1 1 1v35.55a1 1 0 0 1-1 1H143.67a1 1 0 0 1-1-1z" stroke="#000" fill="#cfe4ff"/><use xlink:href="#b" transform="matrix(1,0,0,1,147.66666666666674,407.777777777739) translate(0 18.046875)"/><use xlink:href="#c" transform="matrix(1,0,0,1,147.66666666666674,407.777777777739) translate(115.21875 18.046875)"/><use xlink:href="#d" transform="matrix(1,0,0,1,147.66666666666674,407.777777777739) translate(172.828125 18.046875)"/><use xlink:href="#e" transform="matrix(1,0,0,1,147.66666666666674,407.777777777739) translate(220.8359375 18.046875)"/><use xlink:href="#j" transform="matrix(1,0,0,1,147.66666666666674,407.777777777739) translate(297.6484375 18.046875)"/><use xlink:href="#k" transform="matrix(1,0,0,1,147.66666666666674,407.777777777739) translate(326.453125 18.046875)"/><use xlink:href="#g" transform="matrix(1,0,0,1,147.66666666666674,407.777777777739) translate(374.4609375 18.046875)"/><use xlink:href="#h" transform="matrix(1,0,0,1,147.66666666666674,407.777777777739) translate(432.0703125 18.046875)"/><use xlink:href="#i" transform="matrix(1,0,0,1,147.66666666666674,407.777777777739) translate(480.078125 18.046875)"/><path d="M142.67 441.33a1 1 0 0 1 1-1H703a1 1 0 0 1 1 1v35.56a1 1 0 0 1-1 1H143.67a1 1 0 0 1-1-1z" stroke="#000" fill="#edf5ff"/><use xlink:href="#b" transform="matrix(1,0,0,1,147.66666666666674,445.33333333329466) translate(0 18.046875)"/><use xlink:href="#c" transform="matrix(1,0,0,1,147.66666666666674,445.33333333329466) translate(115.21875 18.046875)"/><use xlink:href="#d" transform="matrix(1,0,0,1,147.66666666666674,445.33333333329466) translate(172.828125 18.046875)"/><use xlink:href="#e" transform="matrix(1,0,0,1,147.66666666666674,445.33333333329466) translate(220.8359375 18.046875)"/><use xlink:href="#f" transform="matrix(1,0,0,1,147.66666666666674,445.33333333329466) translate(297.6484375 18.046875)"/><use xlink:href="#g" transform="matrix(1,0,0,1,147.66666666666674,445.33333333329466) translate(336.0546875 18.046875)"/><use xlink:href="#h" transform="matrix(1,0,0,1,147.66666666666674,445.33333333329466) translate(393.6640625 18.046875)"/><use xlink:href="#i" transform="matrix(1,0,0,1,147.66666666666674,445.33333333329466) translate(441.671875 18.046875)"/><path d="M142.67 478.9a1 1 0 0 1 1-1H703a1 1 0 0 1 1 1v35.54a1 1 0 0 1-1 1H143.67a1 1 0 0 1-1-1z" stroke="#000" fill="#cfe4ff"/><use xlink:href="#r" transform="matrix(1,0,0,1,147.66666666666674,482.8888888888502) translate(0 18.046875)"/><use xlink:href="#s" transform="matrix(1,0,0,1,147.66666666666674,482.8888888888502) translate(115.21875 18.046875)"/><use xlink:href="#j" transform="matrix(1,0,0,1,147.66666666666674,482.8888888888502) translate(201.6328125 18.046875)"/><use xlink:href="#t" transform="matrix(1,0,0,1,147.66666666666674,482.8888888888502) translate(230.4375 18.046875)"/><use xlink:href="#u" transform="matrix(1,0,0,1,147.66666666666674,482.8888888888502) translate(278.4453125 18.046875)"/><use xlink:href="#v" transform="matrix(1,0,0,1,147.66666666666674,482.8888888888502) translate(422.46875 18.046875)"/><path d="M142.67 516.44a1 1 0 0 1 1-1H703a1 1 0 0 1 1 1V552a1 1 0 0 1-1 1H143.67a1 1 0 0 1-1-1z" stroke="#000" fill="#edf5ff"/><use xlink:href="#b" transform="matrix(1,0,0,1,147.66666666666674,520.4444444444058) translate(0 18.046875)"/><use xlink:href="#c" transform="matrix(1,0,0,1,147.66666666666674,520.4444444444058) translate(115.21875 18.046875)"/><use xlink:href="#d" transform="matrix(1,0,0,1,147.66666666666674,520.4444444444058) translate(172.828125 18.046875)"/><use xlink:href="#e" transform="matrix(1,0,0,1,147.66666666666674,520.4444444444058) translate(220.8359375 18.046875)"/><use xlink:href="#f" transform="matrix(1,0,0,1,147.66666666666674,520.4444444444058) translate(297.6484375 18.046875)"/><use xlink:href="#g" transform="matrix(1,0,0,1,147.66666666666674,520.4444444444058) translate(336.0546875 18.046875)"/><use xlink:href="#h" transform="matrix(1,0,0,1,147.66666666666674,520.4444444444058) translate(393.6640625 18.046875)"/><use xlink:href="#i" transform="matrix(1,0,0,1,147.66666666666674,520.4444444444058) translate(441.671875 18.046875)"/><path d="M142.67 554a1 1 0 0 1 1-1H703a1 1 0 0 1 1 1v35.56a1 1 0 0 1-1 1H143.67a1 1 0 0 1-1-1z" stroke="#000" fill="#cfe4ff"/><use xlink:href="#l" transform="matrix(1,0,0,1,147.66666666666674,557.9999999999613) translate(0 18.046875)"/><use xlink:href="#m" transform="matrix(1,0,0,1,147.66666666666674,557.9999999999613) translate(105.6171875 18.046875)"/><use xlink:href="#n" transform="matrix(1,0,0,1,147.66666666666674,557.9999999999613) translate(163.2265625 18.046875)"/><use xlink:href="#o" transform="matrix(1,0,0,1,147.66666666666674,557.9999999999613) translate(220.8359375 18.046875)"/><use xlink:href="#p" transform="matrix(1,0,0,1,147.66666666666674,557.9999999999613) translate(278.4453125 18.046875)"/><use xlink:href="#q" transform="matrix(1,0,0,1,147.66666666666674,557.9999999999613) translate(316.8515625 18.046875)"/><path d="M142.67 591.56a1 1 0 0 1 1-1H703a1 1 0 0 1 1 1v35.55a1 1 0 0 1-1 1H143.67a1 1 0 0 1-1-1z" stroke="#000" fill="#edf5ff"/><use xlink:href="#r" transform="matrix(1,0,0,1,147.66666666666674,595.555555555517) translate(0 18.046875)"/><use xlink:href="#s" transform="matrix(1,0,0,1,147.66666666666674,595.555555555517) translate(115.21875 18.046875)"/><use xlink:href="#j" transform="matrix(1,0,0,1,147.66666666666674,595.555555555517) translate(201.6328125 18.046875)"/><use xlink:href="#t" transform="matrix(1,0,0,1,147.66666666666674,595.555555555517) translate(230.4375 18.046875)"/><use xlink:href="#u" transform="matrix(1,0,0,1,147.66666666666674,595.555555555517) translate(278.4453125 18.046875)"/><use xlink:href="#v" transform="matrix(1,0,0,1,147.66666666666674,595.555555555517) translate(422.46875 18.046875)"/><path d="M142.67 629.1a1 1 0 0 1 1-1H703a1 1 0 0 1 1 1v35.57a1 1 0 0 1-1 1H143.67a1 1 0 0 1-1-1z" stroke="#000" fill="#cfe4ff"/><use xlink:href="#l" transform="matrix(1,0,0,1,147.66666666666674,633.1111111110725) translate(0 18.046875)"/><use xlink:href="#m" transform="matrix(1,0,0,1,147.66666666666674,633.1111111110725) translate(105.6171875 18.046875)"/><use xlink:href="#n" transform="matrix(1,0,0,1,147.66666666666674,633.1111111110725) translate(163.2265625 18.046875)"/><use xlink:href="#o" transform="matrix(1,0,0,1,147.66666666666674,633.1111111110725) translate(220.8359375 18.046875)"/><use xlink:href="#p" transform="matrix(1,0,0,1,147.66666666666674,633.1111111110725) translate(278.4453125 18.046875)"/><use xlink:href="#q" transform="matrix(1,0,0,1,147.66666666666674,633.1111111110725) translate(316.8515625 18.046875)"/><path d="M142.67 666.67a1 1 0 0 1 1-1H703a1 1 0 0 1 1 1v35.55a1 1 0 0 1-1 1H143.67a1 1 0 0 1-1-1z" stroke="#000" fill="#edf5ff"/><use xlink:href="#b" transform="matrix(1,0,0,1,147.66666666666674,670.6666666666282) translate(0 18.046875)"/><use xlink:href="#c" transform="matrix(1,0,0,1,147.66666666666674,670.6666666666282) translate(115.21875 18.046875)"/><use xlink:href="#d" transform="matrix(1,0,0,1,147.66666666666674,670.6666666666282) translate(172.828125 18.046875)"/><use xlink:href="#e" transform="matrix(1,0,0,1,147.66666666666674,670.6666666666282) translate(220.8359375 18.046875)"/><use xlink:href="#f" transform="matrix(1,0,0,1,147.66666666666674,670.6666666666282) translate(297.6484375 18.046875)"/><use xlink:href="#g" transform="matrix(1,0,0,1,147.66666666666674,670.6666666666282) translate(336.0546875 18.046875)"/><use xlink:href="#h" transform="matrix(1,0,0,1,147.66666666666674,670.6666666666282) translate(393.6640625 18.046875)"/><use xlink:href="#i" transform="matrix(1,0,0,1,147.66666666666674,670.6666666666282) translate(441.671875 18.046875)"/><path d="M142.67 704.22a1 1 0 0 1 1-1H703a1 1 0 0 1 1 1v35.56a1 1 0 0 1-1 1H143.67a1 1 0 0 1-1-1z" stroke="#000" fill="#cfe4ff"/><g><use xlink:href="#b" transform="matrix(1,0,0,1,147.66666666666674,708.2222222221837) translate(0 18.046875)"/><use xlink:href="#c" transform="matrix(1,0,0,1,147.66666666666674,708.2222222221837) translate(115.21875 18.046875)"/><use xlink:href="#d" transform="matrix(1,0,0,1,147.66666666666674,708.2222222221837) translate(172.828125 18.046875)"/><use xlink:href="#e" transform="matrix(1,0,0,1,147.66666666666674,708.2222222221837) translate(220.8359375 18.046875)"/><use xlink:href="#j" transform="matrix(1,0,0,1,147.66666666666674,708.2222222221837) translate(297.6484375 18.046875)"/><use xlink:href="#k" transform="matrix(1,0,0,1,147.66666666666674,708.2222222221837) translate(326.453125 18.046875)"/><use xlink:href="#g" transform="matrix(1,0,0,1,147.66666666666674,708.2222222221837) translate(374.4609375 18.046875)"/><use xlink:href="#h" transform="matrix(1,0,0,1,147.66666666666674,708.2222222221837) translate(432.0703125 18.046875)"/><use xlink:href="#i" transform="matrix(1,0,0,1,147.66666666666674,708.2222222221837) translate(480.078125 18.046875)"/></g><path d="M142.67 328.67a1 1 0 0 1 1-1H703a1 1 0 0 1 1 1v35.55a1 1 0 0 1-1 1H143.67a1 1 0 0 1-1-1z" stroke="#000" fill="#1071e5"/><g><use xlink:href="#y" transform="matrix(1,0,0,1,147.66666666666674,332.6666666666278) translate(0 19.82421875)"/></g><path d="M914.67 366.22a1 1 0 0 1 1-1H1015a1 1 0 0 1 1 1v35.56a1 1 0 0 1-1 1h-99.33a1 1 0 0 1-1-1z" stroke="#000" fill="#edf5ff"/><g><use xlink:href="#z" transform="matrix(1,0,0,1,919.6666666666666,370.22222222218323) translate(0 18.046875)"/></g><path d="M914.67 403.78a1 1 0 0 1 1-1H1015a1 1 0 0 1 1 1v35.55a1 1 0 0 1-1 1h-99.33a1 1 0 0 1-1-1z" stroke="#000" fill="#cfe4ff"/><g><use xlink:href="#A" transform="matrix(1,0,0,1,919.6666666666666,407.7777777777389) translate(0 18.046875)"/></g><path d="M914.67 441.33a1 1 0 0 1 1-1H1015a1 1 0 0 1 1 1v35.56a1 1 0 0 1-1 1h-99.33a1 1 0 0 1-1-1z" stroke="#000" fill="#edf5ff"/><g><use xlink:href="#z" transform="matrix(1,0,0,1,919.6666666666666,445.33333333329455) translate(0 18.046875)"/></g><path d="M914.67 478.9a1 1 0 0 1 1-1H1015a1 1 0 0 1 1 1v35.54a1 1 0 0 1-1 1h-99.33a1 1 0 0 1-1-1z" stroke="#000" fill="#cfe4ff"/><g><use xlink:href="#B" transform="matrix(1,0,0,1,919.6666666666666,482.88888888885) translate(0 18.046875)"/></g><path d="M914.67 516.44a1 1 0 0 1 1-1H1015a1 1 0 0 1 1 1V552a1 1 0 0 1-1 1h-99.33a1 1 0 0 1-1-1z" stroke="#000" fill="#edf5ff"/><g><use xlink:href="#z" transform="matrix(1,0,0,1,919.6666666666666,520.4444444444056) translate(0 18.046875)"/></g><path d="M914.67 554a1 1 0 0 1 1-1H1015a1 1 0 0 1 1 1v35.56a1 1 0 0 1-1 1h-99.33a1 1 0 0 1-1-1z" stroke="#000" fill="#cfe4ff"/><g><use xlink:href="#C" transform="matrix(1,0,0,1,919.6666666666666,557.999999999961) translate(0 18.046875)"/></g><path d="M914.67 591.56a1 1 0 0 1 1-1H1015a1 1 0 0 1 1 1v35.55a1 1 0 0 1-1 1h-99.33a1 1 0 0 1-1-1z" stroke="#000" fill="#edf5ff"/><g><use xlink:href="#B" transform="matrix(1,0,0,1,919.6666666666666,595.5555555555167) translate(0 18.046875)"/></g><path d="M914.67 629.1a1 1 0 0 1 1-1H1015a1 1 0 0 1 1 1v35.57a1 1 0 0 1-1 1h-99.33a1 1 0 0 1-1-1z" stroke="#000" fill="#cfe4ff"/><g><use xlink:href="#C" transform="matrix(1,0,0,1,919.6666666666666,633.1111111110723) translate(0 18.046875)"/></g><path d="M914.67 666.67a1 1 0 0 1 1-1H1015a1 1 0 0 1 1 1v35.55a1 1 0 0 1-1 1h-99.33a1 1 0 0 1-1-1z" stroke="#000" fill="#edf5ff"/><g><use xlink:href="#z" transform="matrix(1,0,0,1,919.6666666666666,670.666666666628) translate(0 18.046875)"/></g><path d="M914.67 704.22a1 1 0 0 1 1-1H1015a1 1 0 0 1 1 1v35.56a1 1 0 0 1-1 1h-99.33a1 1 0 0 1-1-1z" stroke="#000" fill="#cfe4ff"/><g><use xlink:href="#A" transform="matrix(1,0,0,1,919.6666666666666,708.2222222221836) translate(0 18.046875)"/></g><path d="M914.67 328.67a1 1 0 0 1 1-1H1015a1 1 0 0 1 1 1v35.55a1 1 0 0 1-1 1h-99.33a1 1 0 0 1-1-1z" stroke="#000" fill="#1071e5"/><g><use xlink:href="#D" transform="matrix(1,0,0,1,919.6666666666666,332.6666666666276) translate(0 19.82421875)"/></g><path d="M1016.72 384.45l53.9 111.77" stroke="#3a414a" fill="none"/><path d="M1017.17 384.25l-.67.32v-1.72zM1070.83 497.82l-.67-1.4.67-.32z" stroke="#3a414a" stroke-width=".05" fill="#3a414a"/><path d="M1016.9 459.4l53.52 36.98" stroke="#3a414a" fill="none"/><path d="M1017.2 459l-.56.8-.14-.08v-1.22zM1070.83 496.06v1.2l-.7-.47.57-.84z" stroke="#3a414a" stroke-width=".05" fill="#3a414a"/><path d="M1016.9 533.94l53.52-37" stroke="#3a414a" fill="none"/><path d="M1017.2 534.34l-.7.5v-1.23l.14-.08zM1070.83 497.27l-.13.1-.57-.82.7-.5z" stroke="#3a414a" stroke-width=".05" fill="#3a414a"/><path d="M1017 609.33h53.33" stroke="#3a414a" fill="none"/><path d="M1017 609.83h-.5v-1h.5zM1070.83 609.83h-.5v-1h.5z" stroke="#3a414a" stroke-width=".05" fill="#3a414a"/><path d="M1016.8 646.48l53.74-74.3" stroke="#3a414a" fill="none"/><path d="M1017.2 646.77l-.7.97v-1.48zM1070.83 572.4l-.7-.5.7-.98z" stroke="#3a414a" stroke-width=".05" fill="#3a414a"/><path d="M1016.64 683.96l54.05-186.8" stroke="#3a414a" fill="none"/><path d="M1017.12 684.1l-.62 2.14v-2.33zM1070.83 497.2l-.62-.18.63-2.15z" stroke="#3a414a" stroke-width=".05" fill="#3a414a"/><path d="M1016.64 721.52l54.05-186.82" stroke="#3a414a" fill="none"/><path d="M1017.12 721.65l-.62 2.15v-2.33zM1070.83 534.76l-.62-.18.63-2.16z" stroke="#3a414a" stroke-width=".05" fill="#3a414a"/><path d="M1017 571.78h53.33" stroke="#3a414a" fill="none"/><path d="M1017 572.28h-.5v-1h.5zM1070.83 572.28h-.5v-1h.5z" stroke="#3a414a" stroke-width=".05" fill="#3a414a"/><path d="M1016.72 497.12l53.9 111.76" stroke="#3a414a" fill="none"/><path d="M1017.17 496.9l-.67.34v-1.72zM1070.83 610.48l-.67-1.4.67-.32z" stroke="#3a414a" stroke-width=".05" fill="#3a414a"/><path d="M1016.72 422l53.9 111.77" stroke="#3a414a" fill="none"/><path d="M1017.17 421.8l-.67.32v-1.72zM1070.83 535.37l-.67-1.4.67-.32z" stroke="#3a414a" stroke-width=".05" fill="#3a414a"/><g><path d="M730.67 523.67a6 6 0 0 1 6-6H829a6 6 0 0 0 6-6V492a2.3 2.3 0 0 1 4-1.54l49 54.4a6.67 6.67 0 0 1 0 8.93l-49 54.4a2.3 2.3 0 0 1-4-1.53V587a6 6 0 0 0-6-6h-92.33a6 6 0 0 1-6-6z" stroke="#3a414a" fill="#fff"/></g><g><use xlink:href="#E" transform="matrix(1,2.021286199229721e-15,-2.021286199229721e-15,1,735.6666666666666,491) translate(19.56172839506172 50.68402777777778)"/><use xlink:href="#F" transform="matrix(1,2.021286199229721e-15,-2.021286199229721e-15,1,735.6666666666666,491) translate(20.469135802469133 77.35069444444446)"/></g><path d="M142.67 774.33a6 6 0 0 1 6-6h228a6 6 0 0 1 6 6V799a6 6 0 0 1-6 6h-228a6 6 0 0 1-6-6z" stroke="#000" stroke-opacity="0" fill="#fff" fill-opacity="0"/><g><use xlink:href="#G" transform="matrix(1,0,0,1,147.66666666666674,773.3333333332945) translate(0 17.77777777777778)"/><use xlink:href="#H" transform="matrix(1,0,0,1,147.66666666666674,773.3333333332945) translate(57.407407407407405 17.77777777777778)"/><use xlink:href="#I" transform="matrix(1,0,0,1,147.66666666666674,773.3333333332945) translate(76.5432098765432 17.77777777777778)"/><use xlink:href="#J" transform="matrix(1,0,0,1,147.66666666666674,773.3333333332945) translate(119.75308641975309 17.77777777777778)"/></g><path d="M892.62 774.33a6 6 0 0 1 6-6h421.33a6 6 0 0 1 6 6V799a6 6 0 0 1-6 6H898.62a6 6 0 0 1-6-6z" stroke="#000" stroke-opacity="0" fill="#fff" fill-opacity="0"/><g><use xlink:href="#G" transform="matrix(1,0,0,1,897.6168538562823,773.3333333332945) translate(0 17.77777777777778)"/><use xlink:href="#H" transform="matrix(1,0,0,1,897.6168538562823,773.3333333332945) translate(57.407407407407405 17.77777777777778)"/><use xlink:href="#K" transform="matrix(1,0,0,1,897.6168538562823,773.3333333332945) translate(76.5432098765432 17.77777777777778)"/><use xlink:href="#J" transform="matrix(1,0,0,1,897.6168538562823,773.3333333332945) translate(119.75308641975309 17.77777777777778)"/></g><path d="M1137.7 634.1a6 6 0 0 1 6-6h503.27a6 6 0 0 1 6 6v38a6 6 0 0 1-6 6H1143.7a6 6 0 0 1-6-6z" stroke="#000" stroke-opacity="0" fill="#fff" fill-opacity="0"/><g><use xlink:href="#L" transform="matrix(1,0,0,1,1142.6915730718783,633.1111111110725) translate(34.69753086419752 25.46527777777778)"/><use xlink:href="#M" transform="matrix(1,0,0,1,1142.6915730718783,633.1111111110725) translate(81.54938271604937 25.46527777777778)"/><use xlink:href="#N" transform="matrix(1,0,0,1,1142.6915730718783,633.1111111110725) translate(100.0679012345679 25.46527777777778)"/><use xlink:href="#O" transform="matrix(1,0,0,1,1142.6915730718783,633.1111111110725) translate(175.25308641975306 25.46527777777778)"/><use xlink:href="#P" transform="matrix(1,0,0,1,1142.6915730718783,633.1111111110725) translate(245.5617283950617 25.46527777777778)"/><use xlink:href="#Q" transform="matrix(1,0,0,1,1142.6915730718783,633.1111111110725) translate(375.0061728395062 25.46527777777778)"/><use xlink:href="#R" transform="matrix(1,0,0,1,1142.6915730718783,633.1111111110725) translate(418.21604938271605 25.46527777777778)"/></g><path d="M1027.33 715.67a6 6 0 0 1 6-6h421.34a6 6 0 0 1 6 6v25.55a6 6 0 0 1-6 6h-421.34a6 6 0 0 1-6-6z" stroke="#000" stroke-opacity="0" fill="#fff" fill-opacity="0"/><g><use xlink:href="#S" transform="matrix(1,0,0,1,1032.3333333333335,714.6666666666667) translate(0 17.77777777777778)"/><use xlink:href="#T" transform="matrix(1,0,0,1,1032.3333333333335,714.6666666666667) translate(75.18518518518518 17.77777777777778)"/><use xlink:href="#U" transform="matrix(1,0,0,1,1032.3333333333335,714.6666666666667) translate(94.32098765432097 17.77777777777778)"/><use xlink:href="#V" transform="matrix(1,0,0,1,1032.3333333333335,714.6666666666667) translate(112.83950617283949 17.77777777777778)"/><use xlink:href="#W" transform="matrix(1,0,0,1,1032.3333333333335,714.6666666666667) translate(172.09876543209876 17.77777777777778)"/><use xlink:href="#X" transform="matrix(1,0,0,1,1032.3333333333335,714.6666666666667) translate(186.91358024691357 17.77777777777778)"/></g><path d="M1291.64 314.17v2.2m0 4.37v4.38m0 4.38v4.38m0 4.38v2.18l-.07.94-.22.92-.18.43m-3.24 3.24l-.43.18-.92.22-.94.07h-1.97m-3.95 0h-3.95m-3.95 0h-3.95m-3.95 0h-3.95m-3.95 0h-3.95m-3.95 0h-3.95m-3.95 0h-3.94m-3.95 0h-3.95m-3.95 0h-3.95m-3.95 0h-3.95m-3.95 0h-3.95m-3.95 0h-3.95m-3.95 0h-3.95m-3.95 0h-3.95m-3.94 0h-3.95m-3.96 0h-3.95m-3.96 0h-3.95m-3.96 0h-3.95m-3.96 0h-3.95m-3.96 0h-3.95m-3.96 0h-3.95m-3.96 0h-3.94m-3.95 0h-3.95m-3.95 0H1102m-3.95 0h-3.95m-3.95 0h-3.95m-3.95 0h-3.95m-3.95 0h-3.95m-3.95 0h-3.95m-3.94 0h-3.95m-3.94 0h-3.95m-3.94 0h-3.95m-3.94 0h-1.98" stroke="#3a414a" fill="none"/><path d="M1292.14 314.18h-1v-.5h1z" stroke="#3a414a" stroke-width=".05" fill="#3a414a"/><path d="M1018.12 346.44l14.26-4.63v9.28z" stroke="#3a414a" fill="#3a414a"/><path d="M1248.3 287.67a6 6 0 0 1 6-6h74.67a6 6 0 0 1 6 6v20a6 6 0 0 1-6 6h-74.66a6 6 0 0 1-6-6z" stroke="#000" stroke-opacity="0" fill-opacity="0"/><path d="M1326.33 287.67a6 6 0 0 1 6-6H1407a6 6 0 0 1 6 6v20a6 6 0 0 1-6 6h-74.67a6 6 0 0 1-6-6z" stroke="#000" stroke-opacity="0" fill-opacity="0"/><path d="M1369.63 423.45v-1.95m0-3.9v-3.88m0-3.9v-3.88m0-3.9v-3.88m0-3.9v-3.88m0-3.9v-3.88m0-3.9v-1.95h.04v-1.97m0-3.9v-3.92m0-3.9v-3.92m0-3.9v-3.92m0-3.92v-3.9m0-3.92v-3.9m0-3.92v-3.9m0-3.92v-3.9m0-3.92v-1.95" stroke="#3a414a" fill="none"/><path d="M1369.63 438.2l-4.63-14.25h9.27z" stroke="#3a414a" fill="#3a414a"/><path d="M1370.17 314.18h-1v-.5h1z" stroke="#3a414a" stroke-width=".05" fill="#3a414a"/><defs><path fill="#3a414a" d="M24-248c120-7 223 5 221 122C244-46 201 0 124 0H24v-248zM76-40c74 7 117-18 117-86 0-67-45-88-117-82v168" id="Y"/><path fill="#3a414a" d="M25-224v-37h50v37H25zM25 0v-190h50V0H25" id="Z"/><path fill="#3a414a" d="M190-63c-7 42-38 67-86 67-59 0-84-38-90-98-12-110 154-137 174-36l-49 2c-2-19-15-32-35-32-30 0-35 28-38 64-6 74 65 87 74 30" id="aa"/><path fill="#3a414a" d="M115-3C79 11 28 4 28-45v-112H4v-33h27l15-45h31v45h36v33H77v99c-1 23 16 31 38 25v30" id="ab"/><path fill="#3a414a" d="M110-194c64 0 96 36 96 99 0 64-35 99-97 99-61 0-95-36-95-99 0-62 34-99 96-99zm-1 164c35 0 45-28 45-65 0-40-10-65-43-65-34 0-45 26-45 65 0 36 10 65 43 65" id="ac"/><path fill="#3a414a" d="M135-194c87-1 58 113 63 194h-50c-7-57 23-157-34-157-59 0-34 97-39 157H25l-1-190h47c2 12-1 28 3 38 12-26 28-41 61-42" id="ad"/><path fill="#3a414a" d="M133-34C117-15 103 5 69 4 32 3 11-16 11-54c-1-60 55-63 116-61 1-26-3-47-28-47-18 1-26 9-28 27l-52-2c7-38 36-58 82-57s74 22 75 68l1 82c-1 14 12 18 25 15v27c-30 8-71 5-69-32zm-48 3c29 0 43-24 42-57-32 0-66-3-65 30 0 17 8 27 23 27" id="ae"/><path fill="#3a414a" d="M135-150c-39-12-60 13-60 57V0H25l-1-190h47c2 13-1 29 3 40 6-28 27-53 61-41v41" id="af"/><path fill="#3a414a" d="M123 10C108 53 80 86 19 72V37c35 8 53-11 59-39L3-190h52l48 148c12-52 28-100 44-148h51" id="ag"/><path fill="#3a414a" d="M15-91v-56l181-69v40L49-119l147 57v40" id="ah"/><path fill="#3a414a" d="M85 4C-2 5 27-109 22-190h50c7 57-23 150 33 157 60-5 35-97 40-157h50l1 190h-47c-2-12 1-28-3-38-12 25-28 42-61 42" id="ai"/><path fill="#3a414a" d="M23 0v-37h61v-169l-59 37v-38l62-41h46v211h57V0H23" id="aj"/><path fill="#3a414a" d="M115-159c48 0 72 30 72 78 0 54-30 85-83 85-64 0-91-50-91-122 0-98 58-163 141-120 15 8 21 24 27 44l-47 6c-5-31-48-31-61-4-7 14-11 33-11 60 9-17 28-27 53-27zM102-35c24 0 36-20 36-45s-11-43-37-43c-23 0-36 14-36 38 0 27 11 50 37 50" id="ak"/><path fill="#3a414a" d="M76-54c-1 42 2 86-19 110H24C36 42 46 24 48 0H25v-54h51" id="al"/><path fill="#3a414a" d="M137-138c1-29-70-34-71-4 15 46 118 7 119 86 1 83-164 76-172 9l43-7c4 19 20 25 44 25 33 8 57-30 24-41C81-84 22-81 20-136c-2-80 154-74 161-7" id="am"/><path fill="#3a414a" d="M195-6C206 82 75 100 31 46c-4-6-6-13-8-21l49-6c3 16 16 24 34 25 40 0 42-37 40-79-11 22-30 35-61 35-53 0-70-43-70-97 0-56 18-96 73-97 30 0 46 14 59 34l2-30h47zm-90-29c32 0 41-27 41-63 0-35-9-62-40-62-32 0-39 29-40 63 0 36 9 62 39 62" id="an"/><path fill="#3a414a" d="M15-22v-40l146-57-146-57v-40l181 69v56" id="ao"/><g id="a"><use transform="matrix(0.06790123456790123,0,0,0.06790123456790123,0,0)" xlink:href="#Y"/><use transform="matrix(0.06790123456790123,0,0,0.06790123456790123,17.586419753086417,0)" xlink:href="#Z"/><use transform="matrix(0.06790123456790123,0,0,0.06790123456790123,24.37654320987654,0)" xlink:href="#aa"/><use transform="matrix(0.06790123456790123,0,0,0.06790123456790123,37.95679012345679,0)" xlink:href="#ab"/><use transform="matrix(0.06790123456790123,0,0,0.06790123456790123,46.03703703703703,0)" xlink:href="#Z"/><use transform="matrix(0.06790123456790123,0,0,0.06790123456790123,52.82716049382715,0)" xlink:href="#ac"/><use transform="matrix(0.06790123456790123,0,0,0.06790123456790123,67.69753086419752,0)" xlink:href="#ad"/><use transform="matrix(0.06790123456790123,0,0,0.06790123456790123,82.56790123456788,0)" xlink:href="#ae"/><use transform="matrix(0.06790123456790123,0,0,0.06790123456790123,96.14814814814812,0)" xlink:href="#af"/><use transform="matrix(0.06790123456790123,0,0,0.06790123456790123,105.6543209876543,0)" xlink:href="#ag"/><use transform="matrix(0.06790123456790123,0,0,0.06790123456790123,119.23456790123456,0)" xlink:href="#ah"/><use transform="matrix(0.06790123456790123,0,0,0.06790123456790123,133.49382716049382,0)" xlink:href="#ai"/><use transform="matrix(0.06790123456790123,0,0,0.06790123456790123,148.3641975308642,0)" xlink:href="#Z"/><use transform="matrix(0.06790123456790123,0,0,0.06790123456790123,155.15432098765433,0)" xlink:href="#ad"/><use transform="matrix(0.06790123456790123,0,0,0.06790123456790123,170.0246913580247,0)" xlink:href="#ab"/><use transform="matrix(0.06790123456790123,0,0,0.06790123456790123,178.10493827160496,0)" xlink:href="#aj"/><use transform="matrix(0.06790123456790123,0,0,0.06790123456790123,191.68518518518522,0)" xlink:href="#ak"/><use transform="matrix(0.06790123456790123,0,0,0.06790123456790123,205.26543209876547,0)" xlink:href="#al"/><use transform="matrix(0.06790123456790123,0,0,0.06790123456790123,212.0555555555556,0)" xlink:href="#am"/><use transform="matrix(0.06790123456790123,0,0,0.06790123456790123,225.63580246913585,0)" xlink:href="#ab"/><use transform="matrix(0.06790123456790123,0,0,0.06790123456790123,233.7160493827161,0)" xlink:href="#af"/><use transform="matrix(0.06790123456790123,0,0,0.06790123456790123,243.22222222222226,0)" xlink:href="#Z"/><use transform="matrix(0.06790123456790123,0,0,0.06790123456790123,250.0123456790124,0)" xlink:href="#ad"/><use transform="matrix(0.06790123456790123,0,0,0.06790123456790123,264.8827160493828,0)" xlink:href="#an"/><use transform="matrix(0.06790123456790123,0,0,0.06790123456790123,279.7530864197532,0)" xlink:href="#ao"/></g><path fill="#0a3069" d="M285-1169c8 382 2 780 4 1169H129v-1349h237c86 239 188 461 253 720 69-258 169-481 255-720h225V0H937c2-390-5-788 6-1169-75 255-170 488-259 729H547c-90-240-185-475-262-729" id="ap"/><path fill="#0a3069" d="M615-1102c343 0 484 203 482 560-1 347-147 562-488 562-336 0-475-219-479-562-4-349 156-560 485-560zm-8 989c240 0 301-180 301-429 0-245-55-427-290-427-236 0-299 181-299 427 0 243 61 429 288 429" id="aq"/><path fill="#0a3069" d="M147 0v-137l681-806H187v-139h844v137L349-139h719V0H147" id="ar"/><path fill="#0a3069" d="M745-142h380V0H143v-142h422v-798H246v-142h499v940zM545-1292v-192h200v192H545" id="as"/><path fill="#0a3069" d="M736-142h380V0H134v-142h422v-1200H267v-142h469v1342" id="at"/><path fill="#0a3069" d="M1000-272c3 95 12 159 101 161 21 0 41-3 59-7V-6c-44 10-86 16-139 16-141 2-191-84-197-217h-6C748-76 648 20 446 20c-207 0-318-120-318-322 0-266 194-348 454-354l236-4c12-191-40-305-222-305-140 0-220 47-232 172l-188-17c33-204 181-292 423-292 255 0 401 118 401 364v466zm-683-27c0 109 63 184 175 182 166-3 259-96 306-217 24-65 20-120 20-200-232 7-501-28-501 235" id="au"/><path fill="#0a3069" d="M114 20l821-1504h178L296 20H114" id="av"/><path fill="#0a3069" d="M937-319V0H757v-319H103v-140l635-890h199v888h188v142H937zm-180-835L257-461h500v-693" id="aw"/><path fill="#0a3069" d="M496 0v-299h235V0H496" id="ax"/><path fill="#0a3069" d="M1065-1013c47 164 49 500-1 665C999-130 875 20 611 20c-377 0-484-300-487-695-2-245 41-425 141-551 77-98 191-144 352-144 261 0 386 140 448 357zM741-155c199-92 203-504 159-785-26-168-96-284-283-284-281 0-308 256-311 549-2 181 18 324 80 428 46 77 115 118 227 120 47 0 90-10 128-28" id="ay"/><g id="b"><use transform="matrix(0.0078125,0,0,0.0078125,0,0)" xlink:href="#ap"/><use transform="matrix(0.0078125,0,0,0.0078125,9.6015625,0)" xlink:href="#aq"/><use transform="matrix(0.0078125,0,0,0.0078125,19.203125,0)" xlink:href="#ar"/><use transform="matrix(0.0078125,0,0,0.0078125,28.8046875,0)" xlink:href="#as"/><use transform="matrix(0.0078125,0,0,0.0078125,38.40625,0)" xlink:href="#at"/><use transform="matrix(0.0078125,0,0,0.0078125,48.0078125,0)" xlink:href="#at"/><use transform="matrix(0.0078125,0,0,0.0078125,57.609375,0)" xlink:href="#au"/><use transform="matrix(0.0078125,0,0,0.0078125,67.2109375,0)" xlink:href="#av"/><use transform="matrix(0.0078125,0,0,0.0078125,76.8125,0)" xlink:href="#aw"/><use transform="matrix(0.0078125,0,0,0.0078125,86.4140625,0)" xlink:href="#ax"/><use transform="matrix(0.0078125,0,0,0.0078125,96.015625,0)" xlink:href="#ay"/></g><path fill="#0a3069" d="M891-1484c-201 251-362 514-362 954 0 441 161 704 362 955H701C500 176 342-90 342-532c0-440 159-704 359-952h190" id="az"/><path fill="#0a3069" d="M614-1226c-167 1-283 53-283 213 0 183 186 193 334 234 230 63 463 120 463 409 0 286-219 387-518 390C309 23 131-98 79-338l185-37c34 165 149 248 351 246 184-2 324-58 324-238 0-203-207-221-372-266-210-57-422-111-422-377 0-267 201-356 470-360 279-5 430 101 480 324l-188 33c-28-141-121-215-293-213" id="aA"/><path fill="#0a3069" d="M202-1349h823v156H709v1037h316V0H202v-156h316v-1037H202v-156" id="aB"/><path fill="#0a3069" d="M162 0v-1349h919v156H353v422h668v154H353v461h769V0H162" id="aC"/><g id="c"><use transform="matrix(0.0078125,0,0,0.0078125,0,0)" xlink:href="#az"/><use transform="matrix(0.0078125,0,0,0.0078125,9.6015625,0)" xlink:href="#ap"/><use transform="matrix(0.0078125,0,0,0.0078125,19.203125,0)" xlink:href="#aA"/><use transform="matrix(0.0078125,0,0,0.0078125,28.8046875,0)" xlink:href="#aB"/><use transform="matrix(0.0078125,0,0,0.0078125,38.40625,0)" xlink:href="#aC"/></g><path fill="#0a3069" d="M353-779c69-51 166-92 291-90 218 3 357 100 423 255 21 52 32 109 32 170 0 305-189 464-500 464-268 0-424-116-471-335l182-21c35 130 124 212 293 209 198-4 309-114 309-313 0-182-118-282-305-282-120 0-198 45-262 101H169l47-728h801v145H382" id="aD"/><path fill="#0a3069" d="M496-783v-299h235v299H496zM352 363l169-662h265L475 363H352" id="aE"/><g id="d"><use transform="matrix(0.0078125,0,0,0.0078125,0,0)" xlink:href="#aD"/><use transform="matrix(0.0078125,0,0,0.0078125,9.6015625,0)" xlink:href="#ax"/><use transform="matrix(0.0078125,0,0,0.0078125,19.203125,0)" xlink:href="#ay"/><use transform="matrix(0.0078125,0,0,0.0078125,28.8046875,0)" xlink:href="#aE"/></g><path fill="#0a3069" d="M1018 0H810c-67-251-137-496-194-756C558-495 487-250 419 0H211L0-1349h189c48 393 110 772 142 1181 58-262 128-512 197-763h175c69 251 139 500 197 763 37-402 92-789 139-1181h189" id="aF"/><path fill="#0a3069" d="M706-1102c241 0 344 136 343 381V0H868v-695c1-168-57-273-220-268-190 6-283 138-283 336V0H185c-3-360 6-732-6-1082h170c4 54 7 126 8 185h3c63-121 164-204 346-205" id="aG"/><path fill="#0a3069" d="M865-914c-3-187-2-380-2-570h180v1261c0 76 1 155 6 223H877c-8-49-9-116-10-174h-5C801-44 708 26 530 26c-135 0-234-46-297-139s-95-232-95-419c0-377 131-566 392-566 176 0 271 63 335 184zm-286-51c-222 0-255 197-255 427 0 229 31 425 253 425 237 0 286-195 286-441 0-238-52-411-284-411" id="aH"/><path fill="#0a3069" d="M1018 0H814c-67-224-138-444-200-673C552-442 476-224 407 0H204L21-1082h178c43 310 105 601 126 933 54-225 128-425 193-638h193c63 212 134 415 185 638 22-336 90-622 136-933h176" id="aI"/><path fill="#0a3069" d="M873-819c-18-114-119-146-250-146-163 0-245 50-245 151 0 151 170 148 294 185 182 54 388 94 388 320 0 240-189 325-439 329-245 4-410-69-454-268l159-31c24 133 136 168 295 165 144-2 270-31 270-171 0-164-195-160-331-202-167-52-350-87-350-299 0-218 173-315 413-313 220 2 373 77 412 260" id="aJ"/><g id="e"><use transform="matrix(0.0078125,0,0,0.0078125,0,0)" xlink:href="#aF"/><use transform="matrix(0.0078125,0,0,0.0078125,9.6015625,0)" xlink:href="#as"/><use transform="matrix(0.0078125,0,0,0.0078125,19.203125,0)" xlink:href="#aG"/><use transform="matrix(0.0078125,0,0,0.0078125,28.8046875,0)" xlink:href="#aH"/><use transform="matrix(0.0078125,0,0,0.0078125,38.40625,0)" xlink:href="#aq"/><use transform="matrix(0.0078125,0,0,0.0078125,48.0078125,0)" xlink:href="#aI"/><use transform="matrix(0.0078125,0,0,0.0078125,57.609375,0)" xlink:href="#aJ"/></g><path fill="#0a3069" d="M141-911c0-296 172-459 469-459 157 0 276 55 356 166s121 278 121 501c-1 324-87 567-297 677-134 70-367 56-475-22-71-52-117-126-145-226l172-27c34 111 103 176 238 176 187 0 261-138 304-298 16-65 24-141 25-227-59 121-177 199-350 199-275 0-418-184-418-460zm461 318c168 0 289-96 289-269 0-158-59-275-163-332-36-20-77-30-124-30-187 0-280 125-280 313s90 318 278 318" id="aK"/><path fill="#0a3069" d="M528-1484c201 248 357 511 357 952 0 442-156 709-357 957H336C537 174 700-89 700-530c0-440-163-703-364-954h192" id="aL"/><g id="f"><use transform="matrix(0.0078125,0,0,0.0078125,0,0)" xlink:href="#aK"/><use transform="matrix(0.0078125,0,0,0.0078125,9.6015625,0)" xlink:href="#aD"/><use transform="matrix(0.0078125,0,0,0.0078125,19.203125,0)" xlink:href="#aL"/></g><path fill="#0a3069" d="M102-681c0-398 126-689 513-689 165 0 291 58 379 174s132 287 132 515c-1 318-88 554-298 657-123 61-317 58-438-3-206-104-288-341-288-654zm749 406c94-160 97-656-5-807-57-85-130-132-231-132-104 0-178 47-234 132-101 153-99 655 1 809 57 89 130 138 232 138 109 0 184-49 237-140" id="aM"/><path fill="#0a3069" d="M698-1104c312 3 392 244 392 558 0 315-82 566-392 566-169 0-277-65-331-184h-5c8 188 2 394 4 589H185V-858c0-76-1-156-6-224h175c6 52 9 120 10 178h4c58-122 150-202 330-200zm-49 991c225 0 255-203 255-433 0-225-32-419-253-419-236 0-285 192-285 441 0 237 53 411 283 411" id="aN"/><path fill="#0a3069" d="M617-1102c355 0 481 238 477 599H322c5 222 84 388 301 388 144 0 244-59 284-166l158 45C1002-72 854 20 623 20c-342 0-490-220-490-568 0-346 151-554 484-554zm291 461c-18-192-90-328-289-328-194 0-287 128-295 328h584" id="aO"/><path fill="#0a3069" d="M839-1102c70 0 148 7 206 17v167c-112-18-268-36-363 15-129 69-208 203-208 395V0H294c-10-367 32-789-52-1082h171c21 75 41 161 48 250h5c67-152 152-270 373-270" id="aP"/><g id="g"><use transform="matrix(0.0078125,0,0,0.0078125,0,0)" xlink:href="#aM"/><use transform="matrix(0.0078125,0,0,0.0078125,9.6015625,0)" xlink:href="#aN"/><use transform="matrix(0.0078125,0,0,0.0078125,19.203125,0)" xlink:href="#aO"/><use transform="matrix(0.0078125,0,0,0.0078125,28.8046875,0)" xlink:href="#aP"/><use transform="matrix(0.0078125,0,0,0.0078125,38.40625,0)" xlink:href="#au"/></g><path fill="#0a3069" d="M672-881c271 0 424 163 424 435 0 291-160 466-455 466-367 0-490-287-490-662 0-324 85-568 293-680 129-70 351-59 460 16 73 50 125 123 153 223l-172 31c-31-108-107-172-232-172-259 0-316 252-323 529 59-113 178-186 342-186zm-37 756c186 0 278-124 278-313s-96-304-284-304c-163 0-281 93-281 261 0 157 65 270 168 327 35 19 75 29 119 29" id="aQ"/><path fill="#0a3069" d="M611-1370c266 0 451 106 451 368 0 147-77 243-154 327-132 144-316 255-451 395-42 44-75 87-96 134h723V0H144v-117c124-264 387-411 582-603 73-72 151-147 151-271 0-161-104-231-266-231-163 0-249 90-268 238l-184-17c35-233 185-369 452-369" id="aR"/><g id="h"><use transform="matrix(0.0078125,0,0,0.0078125,0,0)" xlink:href="#aQ"/><use transform="matrix(0.0078125,0,0,0.0078125,9.6015625,0)" xlink:href="#ax"/><use transform="matrix(0.0078125,0,0,0.0078125,19.203125,0)" xlink:href="#ay"/><use transform="matrix(0.0078125,0,0,0.0078125,28.8046875,0)" xlink:href="#aR"/></g><path fill="#0a3069" d="M410 425v-1909h547v139H590V286h367v139H410" id="aS"/><path fill="#0a3069" d="M270 425V286h367v-1631H270v-139h547V425H270" id="aT"/><g id="i"><use transform="matrix(0.0078125,0,0,0.0078125,0,0)" xlink:href="#aS"/><use transform="matrix(0.0078125,0,0,0.0078125,9.6015625,0)" xlink:href="#aO"/><use transform="matrix(0.0078125,0,0,0.0078125,19.203125,0)" xlink:href="#aG"/><use transform="matrix(0.0078125,0,0,0.0078125,28.8046875,0)" xlink:href="#aT"/></g><path fill="#0a3069" d="M912-211c-10-84-18-177-18-274v-864h172V0H836L316-1130c7 79 16 167 16 254V0H162v-1349h222" id="aU"/><path fill="#0a3069" d="M709-1193V0H519v-1193H76v-156h1076v156H709" id="aV"/><g id="j"><use transform="matrix(0.0078125,0,0,0.0078125,0,0)" xlink:href="#aU"/><use transform="matrix(0.0078125,0,0,0.0078125,9.6015625,0)" xlink:href="#aV"/></g><g id="k"><use transform="matrix(0.0078125,0,0,0.0078125,0,0)" xlink:href="#aw"/><use transform="matrix(0.0078125,0,0,0.0078125,9.6015625,0)" xlink:href="#ax"/><use transform="matrix(0.0078125,0,0,0.0078125,19.203125,0)" xlink:href="#ay"/><use transform="matrix(0.0078125,0,0,0.0078125,28.8046875,0)" xlink:href="#aL"/></g><g id="l"><use transform="matrix(0.0078125,0,0,0.0078125,0,0)" xlink:href="#aM"/><use transform="matrix(0.0078125,0,0,0.0078125,9.6015625,0)" xlink:href="#aN"/><use transform="matrix(0.0078125,0,0,0.0078125,19.203125,0)" xlink:href="#aO"/><use transform="matrix(0.0078125,0,0,0.0078125,28.8046875,0)" xlink:href="#aP"/><use transform="matrix(0.0078125,0,0,0.0078125,38.40625,0)" xlink:href="#au"/><use transform="matrix(0.0078125,0,0,0.0078125,48.0078125,0)" xlink:href="#av"/><use transform="matrix(0.0078125,0,0,0.0078125,57.609375,0)" xlink:href="#aK"/><use transform="matrix(0.0078125,0,0,0.0078125,67.2109375,0)" xlink:href="#ax"/><use transform="matrix(0.0078125,0,0,0.0078125,76.8125,0)" xlink:href="#aQ"/><use transform="matrix(0.0078125,0,0,0.0078125,86.4140625,0)" xlink:href="#aR"/></g><path fill="#0a3069" d="M614-836l333-513h205L717-705 1193 0H988L614-573 241 0H36l476-705-435-644h205" id="aW"/><path fill="#0a3069" d="M148-1120c216-7 379-89 463-229h166v1204h353V0H157v-145h439v-1021c-79 124-254 184-448 194v-148" id="aX"/><g id="m"><use transform="matrix(0.0078125,0,0,0.0078125,0,0)" xlink:href="#az"/><use transform="matrix(0.0078125,0,0,0.0078125,9.6015625,0)" xlink:href="#aW"/><use transform="matrix(0.0078125,0,0,0.0078125,19.203125,0)" xlink:href="#aX"/><use transform="matrix(0.0078125,0,0,0.0078125,28.8046875,0)" xlink:href="#aX"/><use transform="matrix(0.0078125,0,0,0.0078125,38.40625,0)" xlink:href="#aE"/></g><path fill="#0a3069" d="M237 0v-1349h191v1193h672V0H237" id="aY"/><path fill="#0a3069" d="M528 20c-247 0-343-132-343-381v-721h180v686c-4 177 45 284 224 277 194-8 279-136 279-336v-627h181c3 360-6 732 6 1082H885c-4-54-7-126-8-185h-3C809-64 714 20 528 20" id="aZ"/><path fill="#0a3069" d="M932 0L611-444 288 0H94l415-556-397-526h199l300 421 298-421h201L713-558 1133 0H932" id="ba"/><g id="n"><use transform="matrix(0.0078125,0,0,0.0078125,0,0)" xlink:href="#aY"/><use transform="matrix(0.0078125,0,0,0.0078125,9.6015625,0)" xlink:href="#as"/><use transform="matrix(0.0078125,0,0,0.0078125,19.203125,0)" xlink:href="#aG"/><use transform="matrix(0.0078125,0,0,0.0078125,28.8046875,0)" xlink:href="#aZ"/><use transform="matrix(0.0078125,0,0,0.0078125,38.40625,0)" xlink:href="#ba"/></g><path fill="#0a3069" d="M682 16c-209 0-323-80-324-285v-671H190v-142h170l58-282h120v282h432v142H538v652c2 114 60 155 182 155 106 0 209-16 297-34v137C921-4 806 16 682 16" id="bb"/><g id="o"><use transform="matrix(0.0078125,0,0,0.0078125,0,0)" xlink:href="#ap"/><use transform="matrix(0.0078125,0,0,0.0078125,9.6015625,0)" xlink:href="#as"/><use transform="matrix(0.0078125,0,0,0.0078125,19.203125,0)" xlink:href="#aG"/><use transform="matrix(0.0078125,0,0,0.0078125,28.8046875,0)" xlink:href="#bb"/><use transform="matrix(0.0078125,0,0,0.0078125,38.40625,0)" xlink:href="#aE"/></g><g id="p"><use transform="matrix(0.0078125,0,0,0.0078125,0,0)" xlink:href="#aO"/><use transform="matrix(0.0078125,0,0,0.0078125,9.6015625,0)" xlink:href="#aG"/><use transform="matrix(0.0078125,0,0,0.0078125,19.203125,0)" xlink:href="#aL"/></g><path fill="#0a3069" d="M622-1349c296 4 497 117 497 404 0 282-193 424-485 431H353V0H162v-1349h460zm-15 684c195-3 320-88 320-277 0-184-129-255-328-254H353v531h254" id="bc"/><g id="q"><use transform="matrix(0.0078125,0,0,0.0078125,0,0)" xlink:href="#bc"/><use transform="matrix(0.0078125,0,0,0.0078125,9.6015625,0)" xlink:href="#aP"/><use transform="matrix(0.0078125,0,0,0.0078125,19.203125,0)" xlink:href="#aO"/><use transform="matrix(0.0078125,0,0,0.0078125,28.8046875,0)" xlink:href="#aJ"/><use transform="matrix(0.0078125,0,0,0.0078125,38.40625,0)" xlink:href="#bb"/><use transform="matrix(0.0078125,0,0,0.0078125,48.0078125,0)" xlink:href="#aq"/><use transform="matrix(0.0078125,0,0,0.0078125,57.609375,0)" xlink:href="#av"/><use transform="matrix(0.0078125,0,0,0.0078125,67.2109375,0)" xlink:href="#aR"/><use transform="matrix(0.0078125,0,0,0.0078125,76.8125,0)" xlink:href="#ax"/><use transform="matrix(0.0078125,0,0,0.0078125,86.4140625,0)" xlink:href="#aX"/><use transform="matrix(0.0078125,0,0,0.0078125,96.015625,0)" xlink:href="#ax"/><use transform="matrix(0.0078125,0,0,0.0078125,105.6171875,0)" xlink:href="#aX"/></g><g id="r"><use transform="matrix(0.0078125,0,0,0.0078125,0,0)" xlink:href="#ap"/><use transform="matrix(0.0078125,0,0,0.0078125,9.6015625,0)" xlink:href="#aq"/><use transform="matrix(0.0078125,0,0,0.0078125,19.203125,0)" xlink:href="#ar"/><use transform="matrix(0.0078125,0,0,0.0078125,28.8046875,0)" xlink:href="#as"/><use transform="matrix(0.0078125,0,0,0.0078125,38.40625,0)" xlink:href="#at"/><use transform="matrix(0.0078125,0,0,0.0078125,48.0078125,0)" xlink:href="#at"/><use transform="matrix(0.0078125,0,0,0.0078125,57.609375,0)" xlink:href="#au"/><use transform="matrix(0.0078125,0,0,0.0078125,67.2109375,0)" xlink:href="#av"/><use transform="matrix(0.0078125,0,0,0.0078125,76.8125,0)" xlink:href="#aD"/><use transform="matrix(0.0078125,0,0,0.0078125,86.4140625,0)" xlink:href="#ax"/><use transform="matrix(0.0078125,0,0,0.0078125,96.015625,0)" xlink:href="#ay"/></g><g id="s"><use transform="matrix(0.0078125,0,0,0.0078125,0,0)" xlink:href="#az"/><use transform="matrix(0.0078125,0,0,0.0078125,9.6015625,0)" xlink:href="#aF"/><use transform="matrix(0.0078125,0,0,0.0078125,19.203125,0)" xlink:href="#as"/><use transform="matrix(0.0078125,0,0,0.0078125,28.8046875,0)" xlink:href="#aG"/><use transform="matrix(0.0078125,0,0,0.0078125,38.40625,0)" xlink:href="#aH"/><use transform="matrix(0.0078125,0,0,0.0078125,48.0078125,0)" xlink:href="#aq"/><use transform="matrix(0.0078125,0,0,0.0078125,57.609375,0)" xlink:href="#aI"/><use transform="matrix(0.0078125,0,0,0.0078125,67.2109375,0)" xlink:href="#aJ"/></g><g id="t"><use transform="matrix(0.0078125,0,0,0.0078125,0,0)" xlink:href="#aQ"/><use transform="matrix(0.0078125,0,0,0.0078125,9.6015625,0)" xlink:href="#ax"/><use transform="matrix(0.0078125,0,0,0.0078125,19.203125,0)" xlink:href="#ay"/><use transform="matrix(0.0078125,0,0,0.0078125,28.8046875,0)" xlink:href="#aL"/></g><path fill="#0a3069" d="M655-135c108 0 195-33 260-74v-336H622v-160h479v572C981-54 839 20 639 20c-388 0-526-306-526-701 0-406 129-689 529-689 261 0 392 137 461 331l-171 56c-47-131-122-231-288-231-281 0-330 245-330 533 0 179 28 314 84 407s142 139 257 139" id="bd"/><path fill="#0a3069" d="M631 20c-350 0-501-215-501-562 0-355 162-560 502-560 250 0 399 118 446 323l-192 14c-23-124-109-196-262-196-242 0-305 171-305 415 1 245 61 427 304 427 151 0 248-77 267-215l190 12C1039-107 883 20 631 20" id="be"/><path fill="#0a3069" d="M914 0L548-499l-132 98V0H236v-1484h180v927l475-525h211L663-617 1125 0H914" id="bf"/><g id="u"><use transform="matrix(0.0078125,0,0,0.0078125,0,0)" xlink:href="#bd"/><use transform="matrix(0.0078125,0,0,0.0078125,9.6015625,0)" xlink:href="#aO"/><use transform="matrix(0.0078125,0,0,0.0078125,19.203125,0)" xlink:href="#be"/><use transform="matrix(0.0078125,0,0,0.0078125,28.8046875,0)" xlink:href="#bf"/><use transform="matrix(0.0078125,0,0,0.0078125,38.40625,0)" xlink:href="#aq"/><use transform="matrix(0.0078125,0,0,0.0078125,48.0078125,0)" xlink:href="#av"/><use transform="matrix(0.0078125,0,0,0.0078125,57.609375,0)" xlink:href="#aR"/><use transform="matrix(0.0078125,0,0,0.0078125,67.2109375,0)" xlink:href="#ay"/><use transform="matrix(0.0078125,0,0,0.0078125,76.8125,0)" xlink:href="#aX"/><use transform="matrix(0.0078125,0,0,0.0078125,86.4140625,0)" xlink:href="#ay"/><use transform="matrix(0.0078125,0,0,0.0078125,96.015625,0)" xlink:href="#ay"/><use transform="matrix(0.0078125,0,0,0.0078125,105.6171875,0)" xlink:href="#aX"/><use transform="matrix(0.0078125,0,0,0.0078125,115.21875,0)" xlink:href="#ay"/><use transform="matrix(0.0078125,0,0,0.0078125,124.8203125,0)" xlink:href="#aX"/></g><path fill="#0a3069" d="M385-1193v494h676v158H385V0H194v-1349h891v156H385" id="bg"/><path fill="#0a3069" d="M839-1335c-182-6-269 67-259 253h491v142H580V0H400v-940H138v-142h262c-15-293 132-408 418-402 94 2 200 7 281 21v145c-75-10-177-14-260-17" id="bh"/><path fill="#0a3069" d="M1060-1016c0 191-128 285-295 323v4c154 18 262 91 313 209 14 35 21 72 21 110 0 277-194 390-478 390-292 0-457-129-493-382l186-17c24 161 121 250 307 250 172 1 298-80 291-247-8-208-220-239-446-233v-156c217 9 409-34 409-232 0-152-102-225-264-225-159 0-264 88-278 233l-181-14c33-239 196-367 461-367 264 0 447 102 447 354" id="bi"/><path fill="#0a3069" d="M809-709c168 33 285 134 285 331 0 277-191 398-480 398-287 0-481-120-481-396 0-192 118-296 281-331v-4c-145-39-248-139-248-313 0-238 192-346 444-346 211 0 357 75 422 217 19 41 27 86 27 131 0 172-101 274-250 309v4zm-197-70c168 0 260-73 260-233 0-158-100-224-262-224-160 0-260 68-260 224 0 155 97 232 262 233zm4 664c194 1 291-91 291-280 0-172-115-249-297-249-178 0-291 85-291 253 0 186 106 275 297 276" id="bj"/><g id="v"><use transform="matrix(0.0078125,0,0,0.0078125,0,0)" xlink:href="#bg"/><use transform="matrix(0.0078125,0,0,0.0078125,9.6015625,0)" xlink:href="#as"/><use transform="matrix(0.0078125,0,0,0.0078125,19.203125,0)" xlink:href="#aP"/><use transform="matrix(0.0078125,0,0,0.0078125,28.8046875,0)" xlink:href="#aO"/><use transform="matrix(0.0078125,0,0,0.0078125,38.40625,0)" xlink:href="#bh"/><use transform="matrix(0.0078125,0,0,0.0078125,48.0078125,0)" xlink:href="#aq"/><use transform="matrix(0.0078125,0,0,0.0078125,57.609375,0)" xlink:href="#ba"/><use transform="matrix(0.0078125,0,0,0.0078125,67.2109375,0)" xlink:href="#av"/><use transform="matrix(0.0078125,0,0,0.0078125,76.8125,0)" xlink:href="#bi"/><use transform="matrix(0.0078125,0,0,0.0078125,86.4140625,0)" xlink:href="#bj"/><use transform="matrix(0.0078125,0,0,0.0078125,96.015625,0)" xlink:href="#ax"/><use transform="matrix(0.0078125,0,0,0.0078125,105.6171875,0)" xlink:href="#ay"/></g><path fill="#fff" d="M774 0H438L31-1082h297c94 290 200 568 280 872 83-304 194-581 291-872h294" id="bk"/><path fill="#fff" d="M775-193C708-75 621 20 439 20 226 20 106-93 106-306c0-251 170-341 417-346l223-4c4-143-12-264-148-264-103 0-141 58-150 153l-293-14c37-219 194-321 455-321 263 0 418 130 417 390v392c1 84 5 161 89 160 21 0 42-2 62-6v152c-57 15-108 27-180 26-145 0-202-73-217-205h-6zm-256 17c168 0 234-139 227-325-166 4-347-25-347 173 0 94 33 152 120 152" id="bl"/><path fill="#fff" d="M794-190h353V0H118v-190h395v-1104H223v-190h571v1294" id="bm"/><path fill="#fff" d="M471 20c-247 0-336-169-336-415v-687h281v607c4 148 31 285 172 285 152 0 207-150 207-312v-580h281c4 359-9 736 8 1082H816c-7-63-11-146-12-215h-5C736-76 644 20 471 20" id="bn"/><path fill="#fff" d="M1113-274C1038-96 884 20 626 20c-352 0-526-209-526-566 0-358 185-556 530-556 358 0 496 251 499 615H395c5 180 68 319 245 319 102 0 186-45 208-129zM857-663c-6-177-128-307-315-247-94 30-141 121-145 247h460" id="bo"/><path fill="#fff" d="M622-916c-112 2-200 14-200 111 0 90 89 101 168 121 234 58 514 77 514 368C1104-4 751 54 434 5 267-21 161-112 121-270l247-37c24 111 113 145 252 141 114-3 226-12 226-124 0-101-103-113-192-134-225-54-490-76-490-351 0-247 201-328 458-328 245 0 413 88 457 292l-249 26c-16-98-92-133-208-131" id="bp"/><g id="w"><use transform="matrix(0.008897569444444444,0,0,0.008897569444444444,0,0)" xlink:href="#bk"/><use transform="matrix(0.008897569444444444,0,0,0.008897569444444444,10.935112847222221,0)" xlink:href="#bl"/><use transform="matrix(0.008897569444444444,0,0,0.008897569444444444,21.870225694444443,0)" xlink:href="#bm"/><use transform="matrix(0.008897569444444444,0,0,0.008897569444444444,32.805338541666664,0)" xlink:href="#bn"/><use transform="matrix(0.008897569444444444,0,0,0.008897569444444444,43.740451388888886,0)" xlink:href="#bo"/><use transform="matrix(0.008897569444444444,0,0,0.008897569444444444,54.67556423611111,0)" xlink:href="#bp"/></g><path fill="#fff" d="M621-530c0 421 127 700 301 955H641C466 173 344-110 344-531s122-702 297-953h281c-174 254-301 534-301 954" id="bq"/><path fill="#fff" d="M768-1103c247 0 336 167 336 416V0H824v-619c-3-164-24-273-171-273-164 0-229 142-229 312V0H143c-4-359 9-736-8-1082h268c7 63 12 146 13 215h4c67-145 160-236 348-236" id="br"/><path fill="#fff" d="M794-190h353V0H118v-190h395v-702H223v-190h571v892zM513-1277v-207h281v207H513" id="bs"/><path fill="#fff" d="M800 425c-1-198 1-404 0-596C746-55 645 20 483 20 183 20 97-237 97-543c0-242 74-429 227-518 49-28 105-42 168-42 163 0 248 85 306 197h4c1-59 6-126 15-176h272c-4 67-9 153-8 236V425H800zm-66-671c93-114 91-467-2-586-35-45-76-79-141-79-64 0-113 31-149 92-69 115-66 440 4 561 39 68 130 111 220 70 25-11 46-31 68-58" id="bt"/><path fill="#fff" d="M885-531c0 421-122 704-297 956H307c174-255 301-534 301-955 0-420-127-700-301-954h281c175 251 297 532 297 953" id="bu"/><g id="x"><use transform="matrix(0.008897569444444444,0,0,0.008897569444444444,0,0)" xlink:href="#bq"/><use transform="matrix(0.008897569444444444,0,0,0.008897569444444444,10.935112847222221,0)" xlink:href="#bn"/><use transform="matrix(0.008897569444444444,0,0,0.008897569444444444,21.870225694444443,0)" xlink:href="#br"/><use transform="matrix(0.008897569444444444,0,0,0.008897569444444444,32.805338541666664,0)" xlink:href="#bs"/><use transform="matrix(0.008897569444444444,0,0,0.008897569444444444,43.740451388888886,0)" xlink:href="#bt"/><use transform="matrix(0.008897569444444444,0,0,0.008897569444444444,54.67556423611111,0)" xlink:href="#bn"/><use transform="matrix(0.008897569444444444,0,0,0.008897569444444444,65.61067708333333,0)" xlink:href="#bo"/><use transform="matrix(0.008897569444444444,0,0,0.008897569444444444,76.54578993055554,0)" xlink:href="#bu"/></g><path fill="#fff" d="M875-1102c70 0 148 7 206 17v237c-110-17-267-37-359 15-123 69-192 207-192 395V0H250c-10-367 32-789-52-1082h271c19 69 36 149 46 228h4c52-151 151-250 356-248" id="bv"/><path fill="#fff" d="M324-409v-244h580v244H324" id="bw"/><path fill="#fff" d="M1108-33c-3 314-178 467-492 467-243 0-400-94-447-291l281-33c17 79 82 141 174 141 176 0 212-155 205-347-2-40 5-80 0-115C773-85 665-12 501-12c-288 0-377-242-377-538 0-242 65-426 223-510 50-26 108-39 175-39 160 0 253 78 307 191h5c1-58 5-125 14-174h266c-12 335-3 703-6 1049zM811-384c25-82 27-259 1-342-30-99-77-180-190-180-172 0-205 171-205 356 0 116 18 202 54 258 48 76 129 107 221 70 62-25 96-86 119-162" id="bx"/><path fill="#fff" d="M711 13c-250 0-386-99-385-349l2-556H161v-190h181l88-282h176v282h385v190H606v530c-10 130 45 186 174 184 91-2 176-11 255-27v186C933-1 833 13 711 13" id="by"/><g id="y"><use transform="matrix(0.008897569444444444,0,0,0.008897569444444444,0,0)" xlink:href="#bn"/><use transform="matrix(0.008897569444444444,0,0,0.008897569444444444,10.935112847222221,0)" xlink:href="#bp"/><use transform="matrix(0.008897569444444444,0,0,0.008897569444444444,21.870225694444443,0)" xlink:href="#bo"/><use transform="matrix(0.008897569444444444,0,0,0.008897569444444444,32.805338541666664,0)" xlink:href="#bv"/><use transform="matrix(0.008897569444444444,0,0,0.008897569444444444,43.740451388888886,0)" xlink:href="#bw"/><use transform="matrix(0.008897569444444444,0,0,0.008897569444444444,54.67556423611111,0)" xlink:href="#bl"/><use transform="matrix(0.008897569444444444,0,0,0.008897569444444444,65.61067708333333,0)" xlink:href="#bx"/><use transform="matrix(0.008897569444444444,0,0,0.008897569444444444,76.54578993055554,0)" xlink:href="#bo"/><use transform="matrix(0.008897569444444444,0,0,0.008897569444444444,87.48090277777777,0)" xlink:href="#br"/><use transform="matrix(0.008897569444444444,0,0,0.008897569444444444,98.416015625,0)" xlink:href="#by"/></g><use transform="matrix(0.0078125,0,0,0.0078125,0,0)" xlink:href="#ay" id="z"/><use transform="matrix(0.0078125,0,0,0.0078125,0,0)" xlink:href="#aX" id="A"/><use transform="matrix(0.0078125,0,0,0.0078125,0,0)" xlink:href="#bi" id="B"/><use transform="matrix(0.0078125,0,0,0.0078125,0,0)" xlink:href="#aR" id="C"/><path fill="#fff" d="M802-909c-3-189-2-383-2-575h281v1248c-1 83 4 168 8 236H817c-9-50-14-117-15-176h-4C735-49 651 20 482 20 191 20 97-238 97-539c0-243 66-432 221-519 50-28 108-42 175-42 162 2 253 78 309 191zm-70 658c91-113 93-462 2-584-46-61-145-100-224-53-96 56-119 190-120 349 0 123 17 214 52 275 46 82 130 115 222 74 25-12 46-33 68-61" id="bz"/><path fill="#fff" d="M1109-360C1066-122 902 20 624 20c-347 0-514-209-514-555 0-353 168-567 518-567 270 0 425 136 473 361l-283 14c-16-106-75-183-196-182-75 0-130 31-165 93s-52 152-52 270c0 249 74 374 221 374 120 0 188-82 201-201" id="bA"/><g id="D"><use transform="matrix(0.008897569444444444,0,0,0.008897569444444444,0,0)" xlink:href="#bs"/><use transform="matrix(0.008897569444444444,0,0,0.008897569444444444,10.935112847222221,0)" xlink:href="#br"/><use transform="matrix(0.008897569444444444,0,0,0.008897569444444444,21.870225694444443,0)" xlink:href="#bz"/><use transform="matrix(0.008897569444444444,0,0,0.008897569444444444,32.805338541666664,0)" xlink:href="#bs"/><use transform="matrix(0.008897569444444444,0,0,0.008897569444444444,43.740451388888886,0)" xlink:href="#bA"/><use transform="matrix(0.008897569444444444,0,0,0.008897569444444444,54.67556423611111,0)" xlink:href="#bo"/><use transform="matrix(0.008897569444444444,0,0,0.008897569444444444,65.61067708333333,0)" xlink:href="#bp"/></g><path fill="#3a414a" d="M85-194c31 0 48 13 60 33l-1-100h32l1 261h-30c-2-10 0-23-3-31C134-8 116 4 85 4 32 4 16-35 15-94c0-66 23-100 70-100zm9 24c-40 0-46 34-46 75 0 40 6 74 45 74 42 0 51-32 51-76 0-42-9-74-50-73" id="bB"/><path fill="#3a414a" d="M24-231v-30h32v30H24zM24 0v-190h32V0H24" id="bC"/><path fill="#3a414a" d="M96-169c-40 0-48 33-48 73s9 75 48 75c24 0 41-14 43-38l32 2c-6 37-31 61-74 61-59 0-76-41-82-99-10-93 101-131 147-64 4 7 5 14 7 22l-32 3c-4-21-16-35-41-35" id="bD"/><path fill="#3a414a" d="M59-47c-2 24 18 29 38 22v24C64 9 27 4 27-40v-127H5v-23h24l9-43h21v43h35v23H59v120" id="bE"/><path fill="#3a414a" d="M100-194c62-1 85 37 85 99 1 63-27 99-86 99S16-35 15-95c0-66 28-99 85-99zM99-20c44 1 53-31 53-75 0-43-8-75-51-75s-53 32-53 75 10 74 51 75" id="bF"/><path fill="#3a414a" d="M117-194c89-4 53 116 60 194h-32v-121c0-31-8-49-39-48C34-167 62-67 57 0H25l-1-190h30c1 10-1 24 2 32 11-22 29-35 61-36" id="bG"/><path fill="#3a414a" d="M141-36C126-15 110 5 73 4 37 3 15-17 15-53c-1-64 63-63 125-63 3-35-9-54-41-54-24 1-41 7-42 31l-33-3c5-37 33-52 76-52 45 0 72 20 72 64v82c-1 20 7 32 28 27v20c-31 9-61-2-59-35zM48-53c0 20 12 33 32 33 41-3 63-29 60-74-43 2-92-5-92 41" id="bH"/><path fill="#3a414a" d="M114-163C36-179 61-72 57 0H25l-1-190h30c1 12-1 29 2 39 6-27 23-49 58-41v29" id="bI"/><path fill="#3a414a" d="M179-190L93 31C79 59 56 82 12 73V49c39 6 53-20 64-50L1-190h34L92-34l54-156h33" id="bJ"/><g id="E"><use transform="matrix(0.06172839506172839,0,0,0.06172839506172839,0,0)" xlink:href="#bB"/><use transform="matrix(0.06172839506172839,0,0,0.06172839506172839,12.345679012345679,0)" xlink:href="#bC"/><use transform="matrix(0.06172839506172839,0,0,0.06172839506172839,17.22222222222222,0)" xlink:href="#bD"/><use transform="matrix(0.06172839506172839,0,0,0.06172839506172839,28.333333333333332,0)" xlink:href="#bE"/><use transform="matrix(0.06172839506172839,0,0,0.06172839506172839,34.50617283950617,0)" xlink:href="#bC"/><use transform="matrix(0.06172839506172839,0,0,0.06172839506172839,39.382716049382715,0)" xlink:href="#bF"/><use transform="matrix(0.06172839506172839,0,0,0.06172839506172839,51.72839506172839,0)" xlink:href="#bG"/><use transform="matrix(0.06172839506172839,0,0,0.06172839506172839,64.07407407407408,0)" xlink:href="#bH"/><use transform="matrix(0.06172839506172839,0,0,0.06172839506172839,76.41975308641976,0)" xlink:href="#bI"/><use transform="matrix(0.06172839506172839,0,0,0.06172839506172839,83.76543209876544,0)" xlink:href="#bJ"/></g><path fill="#3a414a" d="M100-194c63 0 86 42 84 106H49c0 40 14 67 53 68 26 1 43-12 49-29l28 8c-11 28-37 45-77 45C44 4 14-33 15-96c1-61 26-98 85-98zm52 81c6-60-76-77-97-28-3 7-6 17-6 28h103" id="bK"/><path fill="#3a414a" d="M177-190C167-65 218 103 67 71c-23-6-38-20-44-43l32-5c15 47 100 32 89-28v-30C133-14 115 1 83 1 29 1 15-40 15-95c0-56 16-97 71-98 29-1 48 16 59 35 1-10 0-23 2-32h30zM94-22c36 0 50-32 50-73 0-42-14-75-50-75-39 0-46 34-46 75s6 73 46 73" id="bL"/><g id="F"><use transform="matrix(0.06172839506172839,0,0,0.06172839506172839,0,0)" xlink:href="#bK"/><use transform="matrix(0.06172839506172839,0,0,0.06172839506172839,12.345679012345679,0)" xlink:href="#bG"/><use transform="matrix(0.06172839506172839,0,0,0.06172839506172839,24.691358024691358,0)" xlink:href="#bD"/><use transform="matrix(0.06172839506172839,0,0,0.06172839506172839,35.80246913580247,0)" xlink:href="#bF"/><use transform="matrix(0.06172839506172839,0,0,0.06172839506172839,48.148148148148145,0)" xlink:href="#bB"/><use transform="matrix(0.06172839506172839,0,0,0.06172839506172839,60.49382716049382,0)" xlink:href="#bC"/><use transform="matrix(0.06172839506172839,0,0,0.06172839506172839,65.37037037037037,0)" xlink:href="#bG"/><use transform="matrix(0.06172839506172839,0,0,0.06172839506172839,77.71604938271605,0)" xlink:href="#bL"/></g><path fill="#3a414a" d="M136-208V0H84v-208H4v-40h212v40h-80" id="bM"/><path fill="#3a414a" d="M25 0v-261h50V0H25" id="bN"/><g id="G"><use transform="matrix(0.06172839506172839,0,0,0.06172839506172839,0,0)" xlink:href="#bM"/><use transform="matrix(0.06172839506172839,0,0,0.06172839506172839,11.851851851851851,0)" xlink:href="#ac"/><use transform="matrix(0.06172839506172839,0,0,0.06172839506172839,25.370370370370367,0)" xlink:href="#ab"/><use transform="matrix(0.06172839506172839,0,0,0.06172839506172839,32.716049382716044,0)" xlink:href="#ae"/><use transform="matrix(0.06172839506172839,0,0,0.06172839506172839,45.06172839506172,0)" xlink:href="#bN"/></g><path fill="#3a414a" d="M15-148v-39h180v39H15zm0 97v-39h180v39H15" id="bO"/><use transform="matrix(0.06172839506172839,0,0,0.06172839506172839,0,0)" xlink:href="#bO" id="H"/><path fill="#3a414a" d="M139-81c0-46-55-55-73-27H18l9-140h149v37H72l-4 63c44-38 133-4 122 66C201 21 21 35 11-62l49-4c5 18 15 30 39 30 26 0 40-18 40-45" id="bP"/><path fill="#3a414a" d="M99-251c69 0 84 53 88 123 5 99-61 162-144 118-15-8-21-25-26-45l46-6c4 31 50 33 63 7 7-15 12-36 12-60-9 18-29 28-54 28-48 0-72-32-72-82 0-55 31-83 87-83zm-1 128c24 0 37-16 37-39 0-27-10-51-37-51-25 0-35 19-35 45 0 25 10 45 35 45" id="bQ"/><g id="I"><use transform="matrix(0.06172839506172839,0,0,0.06172839506172839,0,0)" xlink:href="#bP"/><use transform="matrix(0.06172839506172839,0,0,0.06172839506172839,12.345679012345679,0)" xlink:href="#aj"/><use transform="matrix(0.06172839506172839,0,0,0.06172839506172839,24.691358024691358,0)" xlink:href="#bQ"/></g><path fill="#3a414a" d="M135-194c52 0 70 43 70 98 0 56-19 99-73 100-30 1-46-15-58-35L72 0H24l1-261h50v104c11-23 29-37 60-37zM114-30c31 0 40-27 40-66 0-37-7-63-39-63s-41 28-41 65c0 36 8 64 40 64" id="bR"/><path fill="#3a414a" d="M185-48c-13 30-37 53-82 52C43 2 14-33 14-96s30-98 90-98c62 0 83 45 84 108H66c0 31 8 55 39 56 18 0 30-7 34-22zm-45-69c5-46-57-63-70-21-2 6-4 13-4 21h74" id="bS"/><g id="J"><use transform="matrix(0.06172839506172839,0,0,0.06172839506172839,0,0)" xlink:href="#bR"/><use transform="matrix(0.06172839506172839,0,0,0.06172839506172839,13.518518518518517,0)" xlink:href="#ag"/><use transform="matrix(0.06172839506172839,0,0,0.06172839506172839,25.864197530864196,0)" xlink:href="#ab"/><use transform="matrix(0.06172839506172839,0,0,0.06172839506172839,33.20987654320987,0)" xlink:href="#bS"/><use transform="matrix(0.06172839506172839,0,0,0.06172839506172839,45.55555555555555,0)" xlink:href="#am"/></g><path fill="#3a414a" d="M182-182c0 78-84 86-111 141h115V0H12c-6-101 99-100 120-180 1-22-12-31-33-32-23 0-32 14-35 34l-49-3c5-45 32-70 84-70 51 0 83 22 83 69" id="bT"/><g id="K"><use transform="matrix(0.06172839506172839,0,0,0.06172839506172839,0,0)" xlink:href="#bT"/><use transform="matrix(0.06172839506172839,0,0,0.06172839506172839,12.345679012345679,0)" xlink:href="#bT"/><use transform="matrix(0.06172839506172839,0,0,0.06172839506172839,24.691358024691358,0)" xlink:href="#bQ"/></g><path fill="#3a414a" d="M24 0v-261h32V0H24" id="bU"/><g id="L"><use transform="matrix(0.06172839506172839,0,0,0.06172839506172839,0,0)" xlink:href="#bF"/><use transform="matrix(0.06172839506172839,0,0,0.06172839506172839,12.345679012345679,0)" xlink:href="#bG"/><use transform="matrix(0.06172839506172839,0,0,0.06172839506172839,24.691358024691358,0)" xlink:href="#bU"/><use transform="matrix(0.06172839506172839,0,0,0.06172839506172839,29.5679012345679,0)" xlink:href="#bJ"/></g><path fill="#3a414a" d="M155-56V0h-30v-56H8v-25l114-167h33v167h35v25h-35zm-30-156c-27 46-58 90-88 131h88v-131" id="bV"/><use transform="matrix(0.06172839506172839,0,0,0.06172839506172839,0,0)" xlink:href="#bV" id="M"/><path fill="#3a414a" d="M135-143c-3-34-86-38-87 0 15 53 115 12 119 90S17 21 10-45l28-5c4 36 97 45 98 0-10-56-113-15-118-90-4-57 82-63 122-42 12 7 21 19 24 35" id="bW"/><g id="N"><use transform="matrix(0.06172839506172839,0,0,0.06172839506172839,0,0)" xlink:href="#bB"/><use transform="matrix(0.06172839506172839,0,0,0.06172839506172839,12.345679012345679,0)" xlink:href="#bC"/><use transform="matrix(0.06172839506172839,0,0,0.06172839506172839,17.22222222222222,0)" xlink:href="#bW"/><use transform="matrix(0.06172839506172839,0,0,0.06172839506172839,28.333333333333332,0)" xlink:href="#bE"/><use transform="matrix(0.06172839506172839,0,0,0.06172839506172839,34.50617283950617,0)" xlink:href="#bC"/><use transform="matrix(0.06172839506172839,0,0,0.06172839506172839,39.382716049382715,0)" xlink:href="#bG"/><use transform="matrix(0.06172839506172839,0,0,0.06172839506172839,51.72839506172839,0)" xlink:href="#bD"/><use transform="matrix(0.06172839506172839,0,0,0.06172839506172839,62.839506172839506,0)" xlink:href="#bE"/></g><path fill="#3a414a" d="M108 0H70L1-190h34L89-25l56-165h34" id="bX"/><path fill="#3a414a" d="M84 4C-5 8 30-112 23-190h32v120c0 31 7 50 39 49 72-2 45-101 50-169h31l1 190h-30c-1-10 1-25-2-33-11 22-28 36-60 37" id="bY"/><g id="O"><use transform="matrix(0.06172839506172839,0,0,0.06172839506172839,0,0)" xlink:href="#bX"/><use transform="matrix(0.06172839506172839,0,0,0.06172839506172839,11.11111111111111,0)" xlink:href="#bH"/><use transform="matrix(0.06172839506172839,0,0,0.06172839506172839,23.45679012345679,0)" xlink:href="#bU"/><use transform="matrix(0.06172839506172839,0,0,0.06172839506172839,28.333333333333336,0)" xlink:href="#bY"/><use transform="matrix(0.06172839506172839,0,0,0.06172839506172839,40.67901234567901,0)" xlink:href="#bK"/><use transform="matrix(0.06172839506172839,0,0,0.06172839506172839,53.02469135802469,0)" xlink:href="#bW"/></g><path fill="#3a414a" d="M115-194c55 1 70 41 70 98S169 2 115 4C84 4 66-9 55-30l1 105H24l-1-265h31l2 30c10-21 28-34 59-34zm-8 174c40 0 45-34 45-75s-6-73-45-74c-42 0-51 32-51 76 0 43 10 73 51 73" id="bZ"/><g id="P"><use transform="matrix(0.06172839506172839,0,0,0.06172839506172839,0,0)" xlink:href="#bI"/><use transform="matrix(0.06172839506172839,0,0,0.06172839506172839,7.345679012345679,0)" xlink:href="#bK"/><use transform="matrix(0.06172839506172839,0,0,0.06172839506172839,19.691358024691358,0)" xlink:href="#bZ"/><use transform="matrix(0.06172839506172839,0,0,0.06172839506172839,32.03703703703704,0)" xlink:href="#bI"/><use transform="matrix(0.06172839506172839,0,0,0.06172839506172839,39.382716049382715,0)" xlink:href="#bK"/><use transform="matrix(0.06172839506172839,0,0,0.06172839506172839,51.72839506172839,0)" xlink:href="#bW"/><use transform="matrix(0.06172839506172839,0,0,0.06172839506172839,62.839506172839506,0)" xlink:href="#bK"/><use transform="matrix(0.06172839506172839,0,0,0.06172839506172839,75.18518518518519,0)" xlink:href="#bG"/><use transform="matrix(0.06172839506172839,0,0,0.06172839506172839,87.53086419753087,0)" xlink:href="#bE"/><use transform="matrix(0.06172839506172839,0,0,0.06172839506172839,93.70370370370371,0)" xlink:href="#bC"/><use transform="matrix(0.06172839506172839,0,0,0.06172839506172839,98.58024691358025,0)" xlink:href="#bG"/><use transform="matrix(0.06172839506172839,0,0,0.06172839506172839,110.92592592592594,0)" xlink:href="#bL"/></g><path fill="#3a414a" d="M101-251c82-7 93 87 43 132L82-64C71-53 59-42 53-27h129V0H18c2-99 128-94 128-182 0-28-16-43-45-43s-46 15-49 41l-32-3c6-41 34-60 81-64" id="ca"/><path fill="#3a414a" d="M54-142c48-35 137-8 131 61C196 18 31 33 14-55l32-4c7 23 22 37 52 37 35-1 51-22 54-58 4-55-73-65-99-34H22l8-134h141v27H59" id="cb"/><path fill="#3a414a" d="M110-160c48 1 74 30 74 79 0 53-28 85-80 85-65 0-83-55-86-122-5-90 50-162 133-122 14 7 22 21 27 39l-31 6c-5-40-67-38-82-6-9 19-15 44-15 74 11-20 30-34 60-33zm-7 138c34 0 49-23 49-58s-16-56-50-56c-29 0-50 16-49 49 1 36 15 65 50 65" id="cc"/><g id="Q"><use transform="matrix(0.06172839506172839,0,0,0.06172839506172839,0,0)" xlink:href="#ca"/><use transform="matrix(0.06172839506172839,0,0,0.06172839506172839,12.345679012345679,0)" xlink:href="#cb"/><use transform="matrix(0.06172839506172839,0,0,0.06172839506172839,24.691358024691358,0)" xlink:href="#cc"/></g><path fill="#3a414a" d="M115-194c53 0 69 39 70 98 0 66-23 100-70 100C84 3 66-7 56-30L54 0H23l1-261h32v101c10-23 28-34 59-34zm-8 174c40 0 45-34 45-75 0-40-5-75-45-74-42 0-51 32-51 76 0 43 10 73 51 73" id="cd"/><g id="R"><use transform="matrix(0.06172839506172839,0,0,0.06172839506172839,0,0)" xlink:href="#cd"/><use transform="matrix(0.06172839506172839,0,0,0.06172839506172839,12.345679012345679,0)" xlink:href="#bJ"/><use transform="matrix(0.06172839506172839,0,0,0.06172839506172839,23.45679012345679,0)" xlink:href="#bE"/><use transform="matrix(0.06172839506172839,0,0,0.06172839506172839,29.62962962962963,0)" xlink:href="#bK"/><use transform="matrix(0.06172839506172839,0,0,0.06172839506172839,41.97530864197531,0)" xlink:href="#bW"/></g><g id="S"><use transform="matrix(0.06172839506172839,0,0,0.06172839506172839,0,0)" xlink:href="#bC"/><use transform="matrix(0.06172839506172839,0,0,0.06172839506172839,4.876543209876543,0)" xlink:href="#bG"/><use transform="matrix(0.06172839506172839,0,0,0.06172839506172839,17.22222222222222,0)" xlink:href="#bB"/><use transform="matrix(0.06172839506172839,0,0,0.06172839506172839,29.5679012345679,0)" xlink:href="#bC"/><use transform="matrix(0.06172839506172839,0,0,0.06172839506172839,34.44444444444444,0)" xlink:href="#bD"/><use transform="matrix(0.06172839506172839,0,0,0.06172839506172839,45.55555555555556,0)" xlink:href="#bK"/><use transform="matrix(0.06172839506172839,0,0,0.06172839506172839,57.901234567901234,0)" xlink:href="#bW"/></g><path fill="#3a414a" d="M18-150v-26h174v26H18zm0 90v-26h174v26H18" id="ce"/><use transform="matrix(0.06172839506172839,0,0,0.06172839506172839,0,0)" xlink:href="#ce" id="T"/><use transform="matrix(0.06172839506172839,0,0,0.06172839506172839,0,0)" xlink:href="#ca" id="U"/><g id="V"><use transform="matrix(0.06172839506172839,0,0,0.06172839506172839,0,0)" xlink:href="#cd"/><use transform="matrix(0.06172839506172839,0,0,0.06172839506172839,12.345679012345679,0)" xlink:href="#bJ"/><use transform="matrix(0.06172839506172839,0,0,0.06172839506172839,23.45679012345679,0)" xlink:href="#bE"/><use transform="matrix(0.06172839506172839,0,0,0.06172839506172839,29.62962962962963,0)" xlink:href="#bK"/><use transform="matrix(0.06172839506172839,0,0,0.06172839506172839,41.97530864197531,0)" xlink:href="#bW"/></g><path fill="#3a414a" d="M80-196l47-18 7 23-49 13 32 44-20 13-27-46-27 45-21-12 33-44-49-13 8-23 47 19-2-53h23" id="cf"/><use transform="matrix(0.06172839506172839,0,0,0.06172839506172839,0,0)" xlink:href="#cf" id="W"/><path fill="#3a414a" d="M27 0v-27h64v-190l-56 39v-29l58-41h29v221h61V0H27" id="cg"/><path fill="#3a414a" d="M101-251c68 0 85 55 85 127S166 4 100 4C33 4 14-52 14-124c0-73 17-127 87-127zm-1 229c47 0 54-49 54-102s-4-102-53-102c-51 0-55 48-55 102 0 53 5 102 54 102" id="ch"/><g id="X"><use transform="matrix(0.06172839506172839,0,0,0.06172839506172839,0,0)" xlink:href="#cg"/><use transform="matrix(0.06172839506172839,0,0,0.06172839506172839,12.345679012345679,0)" xlink:href="#ch"/></g></defs></g></svg>