<svg xmlns="http://www.w3.org/2000/svg" xmlns:xlink="http://www.w3.org/1999/xlink" xmlns:lucid="lucid" width="1478" height="482.33"><g transform="translate(-10.333333333343532 -3.500000000000327)" lucid:page-tab-id="m6NIKMxDM3Yz"><path d="M0 0h1760v1360H0z" fill="#fff"/><g stroke="#000" stroke-opacity="0" stroke-width="1.5"><path d="M1089.7 396.85c.13-.85.67-1.35 1.24-2.13l31.82-23.53c1.35-1.26 3.42-.98 4.38.6 1 1.28.73 3.25-.58 4.22l-29.25 21.87 22.1 28.86c1.22 1.32.95 3.3-.4 4.55-1.53.95-3.37.7-4.36-.6l-24.3-31.47c-.63-.66-.74-1.53-.63-2.38zM1088.2 200.1c.13-.84.47-1.65 1.24-2.12l29.02-21.9-22.1-28.87c-1.2-1.3-.94-3.3.4-4.54 1.53-.94 3.38-.7 4.37.6l24.3 31.48c1 1.28.74 3.26-.6 4.5L1093 202.8c-1.34 1.25-3.18 1-4.14-.57l-.23-.02c-.38-.63-.54-1.22-.42-2.07z"/><path d="M992.86 271.56c8.6-62.9 66.63-106.7 129.24-98.14.47.06.93.12 1.4.2 1.6.2 2.8 1.8 2.55 3.5-.23 1.7-1.8 2.9-3.4 2.7-53.34-7.86-103.3 23.24-119.72 74.73-8.77 28.1-6.4 55.44 7.36 81.74 14.13 26.92 35.8 45.1 65.07 54 1.57.5 2.53 2.06 2.07 3.72-.46 1.66-2.23 2.57-4.03 2.04-30.6-9.35-53.58-28.3-68.45-56.76-11.57-21.7-15.4-43.48-12.1-67.74zM1089.75 396.57c.23-1.7 1.77-2.63 3.6-2.38 53.15 7.53 103.12-23.57 119.5-74.78 8.8-28.4 6.43-55.72-7.33-82.03-14.14-26.94-35.85-44.84-65.08-54-1.57-.5-2.53-2.08-2.07-3.74.46-1.66 2.23-2.57 4.03-2.03 30.6 9.35 53.58 28.3 68.46 56.76 14.7 27.86 17.3 56.94 7.85 86.68-17.24 54.25-69.83 87.3-126.15 79.03-1.84-.24-3.03-1.84-2.8-3.53z"/></g><g filter="url(#a)"><path d="M31.33 30.5a6 6 0 0 1 6-6h240a6 6 0 0 1 6 6v218a6 6 0 0 1-6 6h-240a6 6 0 0 1-6-6z" stroke="#000" stroke-width="2" fill="#fff"/><use xlink:href="#b" transform="matrix(1,0,0,1,36.33333333334353,29.500000000000327) translate(34.796296296296305 80.13888888888889)"/><use xlink:href="#c" transform="matrix(1,0,0,1,36.33333333334353,29.500000000000327) translate(110.67283950617283 80.13888888888889)"/><use xlink:href="#d" transform="matrix(1,0,0,1,36.33333333334353,29.500000000000327) translate(121 103.24999999999999)"/><use xlink:href="#e" transform="matrix(1,0,0,1,36.33333333334353,29.500000000000327) translate(23.839506172839577 126.36111111111109)"/><use xlink:href="#f" transform="matrix(1,0,0,1,36.33333333334353,29.500000000000327) translate(119.8888888888889 126.36111111111109)"/><use xlink:href="#g" transform="matrix(1,0,0,1,36.33333333334353,29.500000000000327) translate(180.32098765432096 126.36111111111109)"/><use xlink:href="#h" transform="matrix(1,0,0,1,36.33333333334353,29.500000000000327) translate(38.34567901234574 153.02777777777774)"/><use xlink:href="#i" transform="matrix(1,0,0,1,36.33333333334353,29.500000000000327) translate(91.3703703703704 153.02777777777774)"/><use xlink:href="#j" transform="matrix(1,0,0,1,36.33333333334353,29.500000000000327) translate(185.13580246913574 153.02777777777774)"/></g><g filter="url(#k)"><path d="M731 30.5a6 6 0 0 1 6-6h329.33a6 6 0 0 1 6 6v218a6 6 0 0 1-6 6H737a6 6 0 0 1-6-6z" stroke="#000" stroke-width="2" fill="#fff"/><use xlink:href="#l" transform="matrix(1,0,0,1,735.9999999999588,29.50000000000034) translate(59.87654320987656 52.388888888888886)"/><use xlink:href="#m" transform="matrix(1,0,0,1,735.9999999999588,29.50000000000034) translate(182.41975308641975 52.388888888888886)"/><use xlink:href="#n" transform="matrix(1,0,0,1,735.9999999999588,29.50000000000034) translate(47.86419753086423 89.72222222222221)"/><use xlink:href="#o" transform="matrix(1,0,0,1,735.9999999999588,29.50000000000034) translate(172.22222222222223 89.72222222222221)"/><use xlink:href="#p" transform="matrix(1,0,0,1,735.9999999999588,29.50000000000034) translate(166 112.83333333333333)"/><use xlink:href="#q" transform="matrix(1,0,0,1,735.9999999999588,29.50000000000034) translate(20.475308641975317 135.94444444444443)"/><use xlink:href="#r" transform="matrix(1,0,0,1,735.9999999999588,29.50000000000034) translate(109.05555555555556 135.94444444444443)"/><use xlink:href="#s" transform="matrix(1,0,0,1,735.9999999999588,29.50000000000034) translate(130.04320987654322 135.94444444444443)"/><use xlink:href="#t" transform="matrix(1,0,0,1,735.9999999999588,29.50000000000034) translate(202.8827160493827 135.94444444444443)"/><use xlink:href="#u" transform="matrix(1,0,0,1,735.9999999999588,29.50000000000034) translate(252.26543209876542 135.94444444444443)"/><use xlink:href="#t" transform="matrix(1,0,0,1,735.9999999999588,29.50000000000034) translate(3.2222222222222285 162.6111111111111)"/><use xlink:href="#v" transform="matrix(1,0,0,1,735.9999999999588,29.50000000000034) translate(52.604938271604944 162.6111111111111)"/><use xlink:href="#w" transform="matrix(1,0,0,1,735.9999999999588,29.50000000000034) translate(166.12345679012347 162.6111111111111)"/><use xlink:href="#x" transform="matrix(1,0,0,1,735.9999999999588,29.50000000000034) translate(66.67901234567901 189.27777777777774)"/><use xlink:href="#y" transform="matrix(1,0,0,1,735.9999999999588,29.50000000000034) translate(156.74074074074076 189.27777777777774)"/><use xlink:href="#z" transform="matrix(1,0,0,1,735.9999999999588,29.50000000000034) translate(246.80246913580245 189.27777777777774)"/></g><g filter="url(#A)"><path d="M336 30.5a6 6 0 0 1 6-6h329.33a6 6 0 0 1 6 6v218a6 6 0 0 1-6 6H342a6 6 0 0 1-6-6z" stroke="#000" stroke-width="2" fill="#fff"/><use xlink:href="#B" transform="matrix(1,0,0,1,340.999999999981,29.50000000000034) translate(15.197530864197546 52.388888888888886)"/><use xlink:href="#C" transform="matrix(1,0,0,1,340.999999999981,29.50000000000034) translate(134.1111111111111 52.388888888888886)"/><use xlink:href="#D" transform="matrix(1,0,0,1,340.999999999981,29.50000000000034) translate(125.46913580246914 89.72222222222221)"/><use xlink:href="#d" transform="matrix(1,0,0,1,340.999999999981,29.50000000000034) translate(166 112.83333333333331)"/><use xlink:href="#E" transform="matrix(1,0,0,1,340.999999999981,29.50000000000034) translate(18.685185185185276 135.9444444444444)"/><use xlink:href="#F" transform="matrix(1,0,0,1,340.999999999981,29.50000000000034) translate(150.59876543209876 135.9444444444444)"/><use xlink:href="#G" transform="matrix(1,0,0,1,340.999999999981,29.50000000000034) translate(206.03086419753083 135.9444444444444)"/><use xlink:href="#H" transform="matrix(1,0,0,1,340.999999999981,29.50000000000034) translate(42.91358024691367 162.61111111111106)"/><use xlink:href="#I" transform="matrix(1,0,0,1,340.999999999981,29.50000000000034) translate(115.75308641975312 162.61111111111106)"/><use xlink:href="#J" transform="matrix(1,0,0,1,340.999999999981,29.50000000000034) translate(245.8765432098765 162.61111111111106)"/><use xlink:href="#K" transform="matrix(1,0,0,1,340.999999999981,29.50000000000034) translate(63.59259259259268 189.27777777777771)"/><use xlink:href="#H" transform="matrix(1,0,0,1,340.999999999981,29.50000000000034) translate(177.04938271604937 189.27777777777771)"/><use xlink:href="#j" transform="matrix(1,0,0,1,340.999999999981,29.50000000000034) translate(249.8888888888888 189.27777777777771)"/></g><path d="M287.33 139.5h42.22" stroke="#3a414a" stroke-width="6" fill="none"/><path d="M287.4 142.5h-3.07v-6h3.08z" stroke="#3a414a" stroke-width=".05" fill="#3a414a"/><path d="M311.9 149.68l17.2-10.18-17.2-10.18M681.33 138.17h43.22" stroke="#3a414a" stroke-width="6" fill="none"/><path d="M681.4 141.17h-3.07v-6h3.08z" stroke="#3a414a" stroke-width=".05" fill="#3a414a"/><path d="M706.9 148.35l17.2-10.18L706.9 128" stroke="#3a414a" stroke-width="6" fill="none"/><g filter="url(#L)"><path d="M1126 206a6 6 0 0 1 6-6h329.33a6 6 0 0 1 6 6v148a6 6 0 0 1-6 6H1132a6 6 0 0 1-6-6z" stroke="#000" stroke-width="2" fill="#fff"/><use xlink:href="#M" transform="matrix(1,0,0,1,1130.9999999999368,205.00000000000045) translate(75.00000000000003 48.326388888888886)"/><use xlink:href="#N" transform="matrix(1,0,0,1,1130.9999999999368,205.00000000000045) translate(145.08641975308643 48.326388888888886)"/><use xlink:href="#p" transform="matrix(1,0,0,1,1130.9999999999368,205.00000000000045) translate(166 71.4375)"/><use xlink:href="#O" transform="matrix(1,0,0,1,1130.9999999999368,205.00000000000045) translate(40.228395061728406 94.54861111111111)"/><use xlink:href="#P" transform="matrix(1,0,0,1,1130.9999999999368,205.00000000000045) translate(85.78395061728396 94.54861111111111)"/><use xlink:href="#t" transform="matrix(1,0,0,1,1130.9999999999368,205.00000000000045) translate(128.87037037037038 94.54861111111111)"/><use xlink:href="#Q" transform="matrix(1,0,0,1,1130.9999999999368,205.00000000000045) translate(178.2530864197531 94.54861111111111)"/><use xlink:href="#R" transform="matrix(1,0,0,1,1130.9999999999368,205.00000000000045) translate(207.8827160493827 94.54861111111111)"/><use xlink:href="#S" transform="matrix(1,0,0,1,1130.9999999999368,205.00000000000045) translate(268.3148148148148 94.54861111111111)"/><use xlink:href="#T" transform="matrix(1,0,0,1,1130.9999999999368,205.00000000000045) translate(125.32098765432099 121.21527777777777)"/></g><g filter="url(#L)"><path d="M731 310.83a6 6 0 0 1 6-6h329.33a6 6 0 0 1 6 6v148a6 6 0 0 1-6 6H737a6 6 0 0 1-6-6z" stroke="#000" stroke-width="2" fill="#fff"/><use xlink:href="#U" transform="matrix(1,0,0,1,735.9999999999588,309.8333333333335) translate(28.03086419753089 29.576388888888886)"/><use xlink:href="#V" transform="matrix(1,0,0,1,735.9999999999588,309.8333333333335) translate(167.85802469135803 29.576388888888886)"/><use xlink:href="#W" transform="matrix(1,0,0,1,735.9999999999588,309.8333333333335) translate(33.950617283950635 66.90972222222221)"/><use xlink:href="#X" transform="matrix(1,0,0,1,735.9999999999588,309.8333333333335) translate(94.35802469135803 66.90972222222221)"/><use xlink:href="#Y" transform="matrix(1,0,0,1,735.9999999999588,309.8333333333335) translate(192.7037037037037 66.90972222222221)"/><use xlink:href="#p" transform="matrix(1,0,0,1,735.9999999999588,309.8333333333335) translate(166 90.02083333333333)"/><use xlink:href="#Z" transform="matrix(1,0,0,1,735.9999999999588,309.8333333333335) translate(51.40123456790124 113.13194444444443)"/><use xlink:href="#aa" transform="matrix(1,0,0,1,735.9999999999588,309.8333333333335) translate(183.31481481481484 113.13194444444443)"/><use xlink:href="#ab" transform="matrix(1,0,0,1,735.9999999999588,309.8333333333335) translate(90.84567901234568 139.79861111111111)"/></g><g filter="url(#L)"><path d="M336 310.83a6 6 0 0 1 6-6h329.33a6 6 0 0 1 6 6v148a6 6 0 0 1-6 6H342a6 6 0 0 1-6-6z" stroke="#000" stroke-width="2" fill="#fff"/><use xlink:href="#ac" transform="matrix(1,0,0,1,340.9999999999807,309.8333333333335) translate(41.77160493827162 62.388888888888886)"/><use xlink:href="#m" transform="matrix(1,0,0,1,340.9999999999807,309.8333333333335) translate(200.52469135802468 62.388888888888886)"/><use xlink:href="#ad" transform="matrix(1,0,0,1,340.9999999999807,309.8333333333335) translate(106.4135802469136 99.72222222222221)"/></g><path d="M727 384.83h-43.2" stroke="#3a414a" stroke-width="6" fill="none"/><path d="M730 387.83h-3.08v-6H730z" stroke="#3a414a" stroke-width=".05" fill="#3a414a"/><path d="M701.44 374.65l-17.2 10.18 17.2 10.18" stroke="#3a414a" stroke-width="6" fill="none"/><defs><path fill="#3a414a" d="M24-248c120-7 223 5 221 122C244-46 201 0 124 0H24v-248zM76-40c74 7 117-18 117-86 0-67-45-88-117-82v168" id="ae"/><path fill="#3a414a" d="M133-34C117-15 103 5 69 4 32 3 11-16 11-54c-1-60 55-63 116-61 1-26-3-47-28-47-18 1-26 9-28 27l-52-2c7-38 36-58 82-57s74 22 75 68l1 82c-1 14 12 18 25 15v27c-30 8-71 5-69-32zm-48 3c29 0 43-24 42-57-32 0-66-3-65 30 0 17 8 27 23 27" id="af"/><path fill="#3a414a" d="M115-3C79 11 28 4 28-45v-112H4v-33h27l15-45h31v45h36v33H77v99c-1 23 16 31 38 25v30" id="ag"/><g id="b"><use transform="matrix(0.08641975308641973,0,0,0.08641975308641973,0,0)" xlink:href="#ae"/><use transform="matrix(0.08641975308641973,0,0,0.08641975308641973,22.38271604938271,0)" xlink:href="#af"/><use transform="matrix(0.08641975308641973,0,0,0.08641975308641973,39.66666666666666,0)" xlink:href="#ag"/><use transform="matrix(0.08641975308641973,0,0,0.08641975308641973,49.950617283950606,0)" xlink:href="#af"/></g><path fill="#3a414a" d="M121-226c-27-7-43 5-38 36h38v33H83V0H34v-157H6v-33h28c-9-59 32-81 87-68v32" id="ah"/><path fill="#3a414a" d="M110-194c64 0 96 36 96 99 0 64-35 99-97 99-61 0-95-36-95-99 0-62 34-99 96-99zm-1 164c35 0 45-28 45-65 0-40-10-65-43-65-34 0-45 26-45 65 0 36 10 65 43 65" id="ai"/><path fill="#3a414a" d="M135-150c-39-12-60 13-60 57V0H25l-1-190h47c2 13-1 29 3 40 6-28 27-53 61-41v41" id="aj"/><path fill="#3a414a" d="M220-157c-53 9-28 100-34 157h-49v-107c1-27-5-49-29-50C55-147 81-57 75 0H25l-1-190h47c2 12-1 28 3 38 10-53 101-56 108 0 13-22 24-43 59-42 82 1 51 116 57 194h-49v-107c-1-25-5-48-29-50" id="ak"/><g id="c"><use transform="matrix(0.08641975308641973,0,0,0.08641975308641973,0,0)" xlink:href="#ah"/><use transform="matrix(0.08641975308641973,0,0,0.08641975308641973,10.28395061728395,0)" xlink:href="#ai"/><use transform="matrix(0.08641975308641973,0,0,0.08641975308641973,29.20987654320987,0)" xlink:href="#aj"/><use transform="matrix(0.08641975308641973,0,0,0.08641975308641973,41.30864197530863,0)" xlink:href="#ak"/><use transform="matrix(0.08641975308641973,0,0,0.08641975308641973,68.96296296296295,0)" xlink:href="#af"/><use transform="matrix(0.08641975308641973,0,0,0.08641975308641973,86.2469135802469,0)" xlink:href="#ag"/></g><path fill="#3a414a" d="M114-163C36-179 61-72 57 0H25l-1-190h30c1 12-1 29 2 39 6-27 23-49 58-41v29" id="al"/><path fill="#3a414a" d="M100-194c63 0 86 42 84 106H49c0 40 14 67 53 68 26 1 43-12 49-29l28 8c-11 28-37 45-77 45C44 4 14-33 15-96c1-61 26-98 85-98zm52 81c6-60-76-77-97-28-3 7-6 17-6 28h103" id="am"/><path fill="#3a414a" d="M24 0v-261h32V0H24" id="an"/><path fill="#3a414a" d="M141-36C126-15 110 5 73 4 37 3 15-17 15-53c-1-64 63-63 125-63 3-35-9-54-41-54-24 1-41 7-42 31l-33-3c5-37 33-52 76-52 45 0 72 20 72 64v82c-1 20 7 32 28 27v20c-31 9-61-2-59-35zM48-53c0 20 12 33 32 33 41-3 63-29 60-74-43 2-92-5-92 41" id="ao"/><path fill="#3a414a" d="M59-47c-2 24 18 29 38 22v24C64 9 27 4 27-40v-127H5v-23h24l9-43h21v43h35v23H59v120" id="ap"/><path fill="#3a414a" d="M24-231v-30h32v30H24zM24 0v-190h32V0H24" id="aq"/><path fill="#3a414a" d="M100-194c62-1 85 37 85 99 1 63-27 99-86 99S16-35 15-95c0-66 28-99 85-99zM99-20c44 1 53-31 53-75 0-43-8-75-51-75s-53 32-53 75 10 74 51 75" id="ar"/><path fill="#3a414a" d="M117-194c89-4 53 116 60 194h-32v-121c0-31-8-49-39-48C34-167 62-67 57 0H25l-1-190h30c1 10-1 24 2 32 11-22 29-35 61-36" id="as"/><g id="e"><use transform="matrix(0.06172839506172835,0,0,0.06172839506172835,0,0)" xlink:href="#al"/><use transform="matrix(0.06172839506172835,0,0,0.06172839506172835,7.345679012345673,0)" xlink:href="#am"/><use transform="matrix(0.06172839506172835,0,0,0.06172839506172835,19.691358024691343,0)" xlink:href="#an"/><use transform="matrix(0.06172839506172835,0,0,0.06172839506172835,24.567901234567884,0)" xlink:href="#ao"/><use transform="matrix(0.06172839506172835,0,0,0.06172839506172835,36.913580246913554,0)" xlink:href="#ap"/><use transform="matrix(0.06172839506172835,0,0,0.06172839506172835,43.08641975308639,0)" xlink:href="#aq"/><use transform="matrix(0.06172839506172835,0,0,0.06172839506172835,47.962962962962926,0)" xlink:href="#ar"/><use transform="matrix(0.06172839506172835,0,0,0.06172839506172835,60.308641975308596,0)" xlink:href="#as"/><use transform="matrix(0.06172839506172835,0,0,0.06172839506172835,72.65432098765427,0)" xlink:href="#ao"/><use transform="matrix(0.06172839506172835,0,0,0.06172839506172835,84.99999999999994,0)" xlink:href="#an"/></g><path fill="#3a414a" d="M115-194c53 0 69 39 70 98 0 66-23 100-70 100C84 3 66-7 56-30L54 0H23l1-261h32v101c10-23 28-34 59-34zm-8 174c40 0 45-34 45-75 0-40-5-75-45-74-42 0-51 32-51 76 0 43 10 73 51 73" id="at"/><path fill="#3a414a" d="M68-38c1 34 0 65-14 84H32c9-13 17-26 17-46H33v-38h35" id="au"/><g id="f"><use transform="matrix(0.06172839506172835,0,0,0.06172839506172835,0,0)" xlink:href="#ap"/><use transform="matrix(0.06172839506172835,0,0,0.06172839506172835,6.172839506172835,0)" xlink:href="#ao"/><use transform="matrix(0.06172839506172835,0,0,0.06172839506172835,18.518518518518505,0)" xlink:href="#at"/><use transform="matrix(0.06172839506172835,0,0,0.06172839506172835,30.864197530864175,0)" xlink:href="#an"/><use transform="matrix(0.06172839506172835,0,0,0.06172839506172835,35.74074074074071,0)" xlink:href="#am"/><use transform="matrix(0.06172839506172835,0,0,0.06172839506172835,48.08641975308638,0)" xlink:href="#au"/></g><path fill="#3a414a" d="M96-169c-40 0-48 33-48 73s9 75 48 75c24 0 41-14 43-38l32 2c-6 37-31 61-74 61-59 0-76-41-82-99-10-93 101-131 147-64 4 7 5 14 7 22l-32 3c-4-21-16-35-41-35" id="av"/><path fill="#3a414a" d="M135-143c-3-34-86-38-87 0 15 53 115 12 119 90S17 21 10-45l28-5c4 36 97 45 98 0-10-56-113-15-118-90-4-57 82-63 122-42 12 7 21 19 24 35" id="aw"/><path fill="#3a414a" d="M108 0H70L1-190h34L89-25l56-165h34" id="ax"/><g id="g"><use transform="matrix(0.06172839506172835,0,0,0.06172839506172835,0,0)" xlink:href="#av"/><use transform="matrix(0.06172839506172835,0,0,0.06172839506172835,11.111111111111104,0)" xlink:href="#aw"/><use transform="matrix(0.06172839506172835,0,0,0.06172839506172835,22.222222222222207,0)" xlink:href="#ax"/><use transform="matrix(0.06172839506172835,0,0,0.06172839506172835,31.666666666666643,0)" xlink:href="#au"/></g><path fill="#3a414a" d="M24-231v-30h32v30H24zM-9 49c24 4 33-6 33-30v-209h32V24c2 40-23 58-65 49V49" id="ay"/><g id="h"><use transform="matrix(0.06172839506172835,0,0,0.06172839506172835,0,0)" xlink:href="#ay"/><use transform="matrix(0.06172839506172835,0,0,0.06172839506172835,4.87654320987654,0)" xlink:href="#aw"/><use transform="matrix(0.06172839506172835,0,0,0.06172839506172835,15.987654320987646,0)" xlink:href="#ar"/><use transform="matrix(0.06172839506172835,0,0,0.06172839506172835,28.333333333333314,0)" xlink:href="#as"/><use transform="matrix(0.06172839506172835,0,0,0.06172839506172835,40.679012345678984,0)" xlink:href="#au"/></g><path fill="#3a414a" d="M115-194c55 1 70 41 70 98S169 2 115 4C84 4 66-9 55-30l1 105H24l-1-265h31l2 30c10-21 28-34 59-34zm-8 174c40 0 45-34 45-75s-6-73-45-74c-42 0-51 32-51 76 0 43 10 73 51 73" id="az"/><path fill="#3a414a" d="M84 4C-5 8 30-112 23-190h32v120c0 31 7 50 39 49 72-2 45-101 50-169h31l1 190h-30c-1-10 1-25-2-33-11 22-28 36-60 37" id="aA"/><path fill="#3a414a" d="M101-234c-31-9-42 10-38 44h38v23H63V0H32v-167H5v-23h27c-7-52 17-82 69-68v24" id="aB"/><g id="i"><use transform="matrix(0.06172839506172835,0,0,0.06172839506172835,0,0)" xlink:href="#az"/><use transform="matrix(0.06172839506172835,0,0,0.06172839506172835,12.34567901234567,0)" xlink:href="#al"/><use transform="matrix(0.06172839506172835,0,0,0.06172839506172835,19.691358024691343,0)" xlink:href="#ar"/><use transform="matrix(0.06172839506172835,0,0,0.06172839506172835,32.03703703703701,0)" xlink:href="#ap"/><use transform="matrix(0.06172839506172835,0,0,0.06172839506172835,38.209876543209845,0)" xlink:href="#ar"/><use transform="matrix(0.06172839506172835,0,0,0.06172839506172835,50.555555555555515,0)" xlink:href="#at"/><use transform="matrix(0.06172839506172835,0,0,0.06172839506172835,62.901234567901184,0)" xlink:href="#aA"/><use transform="matrix(0.06172839506172835,0,0,0.06172839506172835,75.24691358024685,0)" xlink:href="#aB"/><use transform="matrix(0.06172839506172835,0,0,0.06172839506172835,81.41975308641969,0)" xlink:href="#au"/></g><path fill="#3a414a" d="M33 0v-38h34V0H33" id="aC"/><g id="j"><use transform="matrix(0.06172839506172835,0,0,0.06172839506172835,0,0)" xlink:href="#aC"/><use transform="matrix(0.06172839506172835,0,0,0.06172839506172835,6.172839506172835,0)" xlink:href="#aC"/><use transform="matrix(0.06172839506172835,0,0,0.06172839506172835,12.34567901234567,0)" xlink:href="#aC"/></g><filter id="a" filterUnits="objectBoundingBox" x="-.04" y="-.02" width="1.08" height="1.09"><feOffset result="offOut" in="SourceAlpha" dy="6"/><feGaussianBlur result="blurOut" in="offOut" stdDeviation="5"/><feColorMatrix result="colorOut" in="blurOut" values="0 0 0 0 0 0 0 0 0 0 0 0 0 0 0 0 0 0 0.5019607843137255 0"/><feBlend in="SourceGraphic" in2="colorOut"/></filter><path fill="#3a414a" d="M24 0v-248h195v40H76v63h132v40H76v65h150V0H24" id="aD"/><path fill="#3a414a" d="M144 0l-44-69L55 0H2l70-98-66-92h53l41 62 40-62h54l-67 91 71 99h-54" id="aE"/><path fill="#3a414a" d="M135-194c53 0 70 44 70 98 0 56-19 98-73 100-31 1-45-17-59-34 3 33 2 69 2 105H25l-1-265h48c2 10 0 23 3 31 11-24 29-35 60-35zM114-30c33 0 39-31 40-66 0-38-9-64-40-64-56 0-55 130 0 130" id="aF"/><path fill="#3a414a" d="M25 0v-261h50V0H25" id="aG"/><path fill="#3a414a" d="M185-48c-13 30-37 53-82 52C43 2 14-33 14-96s30-98 90-98c62 0 83 45 84 108H66c0 31 8 55 39 56 18 0 30-7 34-22zm-45-69c5-46-57-63-70-21-2 6-4 13-4 21h74" id="aH"/><g id="l"><use transform="matrix(0.08641975308641973,0,0,0.08641975308641973,0,0)" xlink:href="#aD"/><use transform="matrix(0.08641975308641973,0,0,0.08641975308641973,20.740740740740737,0)" xlink:href="#aE"/><use transform="matrix(0.08641975308641973,0,0,0.08641975308641973,38.02469135802468,0)" xlink:href="#aF"/><use transform="matrix(0.08641975308641973,0,0,0.08641975308641973,56.950617283950606,0)" xlink:href="#aG"/><use transform="matrix(0.08641975308641973,0,0,0.08641975308641973,65.59259259259258,0)" xlink:href="#ai"/><use transform="matrix(0.08641975308641973,0,0,0.08641975308641973,84.5185185185185,0)" xlink:href="#aj"/><use transform="matrix(0.08641975308641973,0,0,0.08641975308641973,96.61728395061726,0)" xlink:href="#aH"/></g><path fill="#3a414a" d="M199 0l-22-63H83L61 0H9l90-248h61L250 0h-51zm-33-102l-36-108c-10 38-24 72-36 108h72" id="aI"/><path fill="#3a414a" d="M231 0h-52l-39-155L100 0H48L-1-190h46L77-45c9-52 24-97 36-145h53l37 145 32-145h46" id="aJ"/><g id="m"><use transform="matrix(0.08641975308641973,0,0,0.08641975308641973,0,0)" xlink:href="#aI"/><use transform="matrix(0.08641975308641973,0,0,0.08641975308641973,22.38271604938271,0)" xlink:href="#aj"/><use transform="matrix(0.08641975308641973,0,0,0.08641975308641973,34.481481481481474,0)" xlink:href="#aj"/><use transform="matrix(0.08641975308641973,0,0,0.08641975308641973,46.58024691358024,0)" xlink:href="#ai"/><use transform="matrix(0.08641975308641973,0,0,0.08641975308641973,65.50617283950616,0)" xlink:href="#aJ"/></g><path fill="#3a414a" d="M137-138c1-29-70-34-71-4 15 46 118 7 119 86 1 83-164 76-172 9l43-7c4 19 20 25 44 25 33 8 57-30 24-41C81-84 22-81 20-136c-2-80 154-74 161-7" id="aK"/><path fill="#3a414a" d="M190-63c-7 42-38 67-86 67-59 0-84-38-90-98-12-110 154-137 174-36l-49 2c-2-19-15-32-35-32-30 0-35 28-38 64-6 74 65 87 74 30" id="aL"/><path fill="#3a414a" d="M114-157C55-157 80-60 75 0H25v-261h50l-1 109c12-26 28-41 61-42 86-1 58 113 63 194h-50c-7-57 23-157-34-157" id="aM"/><g id="n"><use transform="matrix(0.08641975308641973,0,0,0.08641975308641973,0,0)" xlink:href="#aK"/><use transform="matrix(0.08641975308641973,0,0,0.08641975308641973,17.283950617283946,0)" xlink:href="#aL"/><use transform="matrix(0.08641975308641973,0,0,0.08641975308641973,34.56790123456789,0)" xlink:href="#aM"/><use transform="matrix(0.08641975308641973,0,0,0.08641975308641973,53.49382716049381,0)" xlink:href="#aH"/><use transform="matrix(0.08641975308641973,0,0,0.08641975308641973,70.77777777777776,0)" xlink:href="#ak"/><use transform="matrix(0.08641975308641973,0,0,0.08641975308641973,98.43209876543207,0)" xlink:href="#af"/></g><path fill="#3a414a" d="M25-224v-37h50v37H25zM25 0v-190h50V0H25" id="aN"/><path fill="#3a414a" d="M135-194c87-1 58 113 63 194h-50c-7-57 23-157-34-157-59 0-34 97-39 157H25l-1-190h47c2 12-1 28 3 38 12-26 28-41 61-42" id="aO"/><g id="o"><use transform="matrix(0.08641975308641973,0,0,0.08641975308641973,0,0)" xlink:href="#ai"/><use transform="matrix(0.08641975308641973,0,0,0.08641975308641973,18.92592592592592,0)" xlink:href="#aF"/><use transform="matrix(0.08641975308641973,0,0,0.08641975308641973,37.85185185185184,0)" xlink:href="#ag"/><use transform="matrix(0.08641975308641973,0,0,0.08641975308641973,48.13580246913579,0)" xlink:href="#aN"/><use transform="matrix(0.08641975308641973,0,0,0.08641975308641973,56.777777777777764,0)" xlink:href="#ai"/><use transform="matrix(0.08641975308641973,0,0,0.08641975308641973,75.70370370370368,0)" xlink:href="#aO"/><use transform="matrix(0.08641975308641973,0,0,0.08641975308641973,94.6296296296296,0)" xlink:href="#aK"/></g><path fill="#3a414a" d="M210-169c-67 3-38 105-44 169h-31v-121c0-29-5-50-35-48C34-165 62-65 56 0H25l-1-190h30c1 10-1 24 2 32 10-44 99-50 107 0 11-21 27-35 58-36 85-2 47 119 55 194h-31v-121c0-29-5-49-35-48" id="aP"/><g id="q"><use transform="matrix(0.06172839506172839,0,0,0.06172839506172839,0,0)" xlink:href="#az"/><use transform="matrix(0.06172839506172839,0,0,0.06172839506172839,12.345679012345679,0)" xlink:href="#al"/><use transform="matrix(0.06172839506172839,0,0,0.06172839506172839,19.691358024691358,0)" xlink:href="#aq"/><use transform="matrix(0.06172839506172839,0,0,0.06172839506172839,24.5679012345679,0)" xlink:href="#aP"/><use transform="matrix(0.06172839506172839,0,0,0.06172839506172839,43.02469135802468,0)" xlink:href="#aq"/><use transform="matrix(0.06172839506172839,0,0,0.06172839506172839,47.90123456790123,0)" xlink:href="#ap"/><use transform="matrix(0.06172839506172839,0,0,0.06172839506172839,54.07407407407407,0)" xlink:href="#aq"/><use transform="matrix(0.06172839506172839,0,0,0.06172839506172839,58.95061728395061,0)" xlink:href="#ax"/><use transform="matrix(0.06172839506172839,0,0,0.06172839506172839,70.06172839506172,0)" xlink:href="#am"/></g><path fill="#3a414a" d="M234-2c-28 10-62 0-77-18C117 19 8 12 13-65c3-43 29-61 60-76-25-40-17-114 47-108 35 3 59 15 59 50 0 44-40 53-71 69 14 26 32 50 51 72 14-21 24-43 30-72l26 8c-9 33-21 57-38 82 13 13 33 22 57 15v23zM97-151c25-10 52-18 56-48-1-18-13-29-33-29-42 0-39 50-23 77zM42-66c-3 51 71 58 98 28-20-24-41-51-56-80-23 10-40 24-42 52" id="aQ"/><use transform="matrix(0.06172839506172839,0,0,0.06172839506172839,0,0)" xlink:href="#aQ" id="r"/><path fill="#3a414a" d="M85-194c31 0 48 13 60 33l-1-100h32l1 261h-30c-2-10 0-23-3-31C134-8 116 4 85 4 32 4 16-35 15-94c0-66 23-100 70-100zm9 24c-40 0-46 34-46 75 0 40 6 74 45 74 42 0 51-32 51-76 0-42-9-74-50-73" id="aR"/><g id="s"><use transform="matrix(0.06172839506172839,0,0,0.06172839506172839,0,0)" xlink:href="#as"/><use transform="matrix(0.06172839506172839,0,0,0.06172839506172839,12.345679012345679,0)" xlink:href="#am"/><use transform="matrix(0.06172839506172839,0,0,0.06172839506172839,24.691358024691358,0)" xlink:href="#aw"/><use transform="matrix(0.06172839506172839,0,0,0.06172839506172839,35.80246913580247,0)" xlink:href="#ap"/><use transform="matrix(0.06172839506172839,0,0,0.06172839506172839,41.97530864197531,0)" xlink:href="#am"/><use transform="matrix(0.06172839506172839,0,0,0.06172839506172839,54.32098765432099,0)" xlink:href="#aR"/></g><g id="t"><use transform="matrix(0.06172839506172839,0,0,0.06172839506172839,0,0)" xlink:href="#aR"/><use transform="matrix(0.06172839506172839,0,0,0.06172839506172839,12.345679012345679,0)" xlink:href="#ao"/><use transform="matrix(0.06172839506172839,0,0,0.06172839506172839,24.691358024691358,0)" xlink:href="#ap"/><use transform="matrix(0.06172839506172839,0,0,0.06172839506172839,30.864197530864196,0)" xlink:href="#ao"/></g><path fill="#3a414a" d="M179-190L93 31C79 59 56 82 12 73V49c39 6 53-20 64-50L1-190h34L92-34l54-156h33" id="aS"/><g id="u"><use transform="matrix(0.06172839506172839,0,0,0.06172839506172839,0,0)" xlink:href="#ap"/><use transform="matrix(0.06172839506172839,0,0,0.06172839506172839,6.172839506172839,0)" xlink:href="#aS"/><use transform="matrix(0.06172839506172839,0,0,0.06172839506172839,17.28395061728395,0)" xlink:href="#az"/><use transform="matrix(0.06172839506172839,0,0,0.06172839506172839,29.629629629629626,0)" xlink:href="#am"/><use transform="matrix(0.06172839506172839,0,0,0.06172839506172839,41.9753086419753,0)" xlink:href="#aw"/><use transform="matrix(0.06172839506172839,0,0,0.06172839506172839,53.08641975308642,0)" xlink:href="#au"/></g><path fill="#3a414a" d="M177-190C167-65 218 103 67 71c-23-6-38-20-44-43l32-5c15 47 100 32 89-28v-30C133-14 115 1 83 1 29 1 15-40 15-95c0-56 16-97 71-98 29-1 48 16 59 35 1-10 0-23 2-32h30zM94-22c36 0 50-32 50-73 0-42-14-75-50-75-39 0-46 34-46 75s6 73 46 73" id="aT"/><g id="v"><use transform="matrix(0.06172839506172839,0,0,0.06172839506172839,0,0)" xlink:href="#am"/><use transform="matrix(0.06172839506172839,0,0,0.06172839506172839,12.345679012345679,0)" xlink:href="#as"/><use transform="matrix(0.06172839506172839,0,0,0.06172839506172839,24.691358024691358,0)" xlink:href="#av"/><use transform="matrix(0.06172839506172839,0,0,0.06172839506172839,35.80246913580247,0)" xlink:href="#ar"/><use transform="matrix(0.06172839506172839,0,0,0.06172839506172839,48.148148148148145,0)" xlink:href="#aR"/><use transform="matrix(0.06172839506172839,0,0,0.06172839506172839,60.49382716049382,0)" xlink:href="#aq"/><use transform="matrix(0.06172839506172839,0,0,0.06172839506172839,65.37037037037037,0)" xlink:href="#as"/><use transform="matrix(0.06172839506172839,0,0,0.06172839506172839,77.71604938271605,0)" xlink:href="#aT"/><use transform="matrix(0.06172839506172839,0,0,0.06172839506172839,90.06172839506173,0)" xlink:href="#aw"/><use transform="matrix(0.06172839506172839,0,0,0.06172839506172839,101.17283950617285,0)" xlink:href="#au"/></g><path fill="#3a414a" d="M9 0v-24l116-142H16v-24h144v24L44-24h123V0H9" id="aU"/><g id="w"><use transform="matrix(0.06172839506172839,0,0,0.06172839506172839,0,0)" xlink:href="#aR"/><use transform="matrix(0.06172839506172839,0,0,0.06172839506172839,12.345679012345679,0)" xlink:href="#am"/><use transform="matrix(0.06172839506172839,0,0,0.06172839506172839,24.691358024691358,0)" xlink:href="#as"/><use transform="matrix(0.06172839506172839,0,0,0.06172839506172839,37.03703703703704,0)" xlink:href="#ar"/><use transform="matrix(0.06172839506172839,0,0,0.06172839506172839,49.382716049382715,0)" xlink:href="#al"/><use transform="matrix(0.06172839506172839,0,0,0.06172839506172839,56.72839506172839,0)" xlink:href="#aP"/><use transform="matrix(0.06172839506172839,0,0,0.06172839506172839,75.18518518518518,0)" xlink:href="#ao"/><use transform="matrix(0.06172839506172839,0,0,0.06172839506172839,87.53086419753086,0)" xlink:href="#an"/><use transform="matrix(0.06172839506172839,0,0,0.06172839506172839,92.4074074074074,0)" xlink:href="#aq"/><use transform="matrix(0.06172839506172839,0,0,0.06172839506172839,97.28395061728395,0)" xlink:href="#aU"/><use transform="matrix(0.06172839506172839,0,0,0.06172839506172839,108.39506172839506,0)" xlink:href="#ao"/><use transform="matrix(0.06172839506172839,0,0,0.06172839506172839,120.74074074074075,0)" xlink:href="#ap"/><use transform="matrix(0.06172839506172839,0,0,0.06172839506172839,126.91358024691357,0)" xlink:href="#aq"/><use transform="matrix(0.06172839506172839,0,0,0.06172839506172839,131.79012345679013,0)" xlink:href="#ar"/><use transform="matrix(0.06172839506172839,0,0,0.06172839506172839,144.1358024691358,0)" xlink:href="#as"/><use transform="matrix(0.06172839506172839,0,0,0.06172839506172839,156.48148148148147,0)" xlink:href="#au"/></g><g id="x"><use transform="matrix(0.06172839506172839,0,0,0.06172839506172839,0,0)" xlink:href="#ao"/><use transform="matrix(0.06172839506172839,0,0,0.06172839506172839,12.345679012345679,0)" xlink:href="#aR"/><use transform="matrix(0.06172839506172839,0,0,0.06172839506172839,24.691358024691358,0)" xlink:href="#ao"/><use transform="matrix(0.06172839506172839,0,0,0.06172839506172839,37.03703703703704,0)" xlink:href="#az"/><use transform="matrix(0.06172839506172839,0,0,0.06172839506172839,49.382716049382715,0)" xlink:href="#ap"/><use transform="matrix(0.06172839506172839,0,0,0.06172839506172839,55.55555555555556,0)" xlink:href="#aq"/><use transform="matrix(0.06172839506172839,0,0,0.06172839506172839,60.4320987654321,0)" xlink:href="#ax"/><use transform="matrix(0.06172839506172839,0,0,0.06172839506172839,71.54320987654322,0)" xlink:href="#am"/></g><path fill="#3a414a" d="M106-169C34-169 62-67 57 0H25v-261h32l-1 103c12-21 28-36 61-36 89 0 53 116 60 194h-32v-121c2-32-8-49-39-48" id="aV"/><g id="y"><use transform="matrix(0.06172839506172839,0,0,0.06172839506172839,0,0)" xlink:href="#aw"/><use transform="matrix(0.06172839506172839,0,0,0.06172839506172839,11.11111111111111,0)" xlink:href="#av"/><use transform="matrix(0.06172839506172839,0,0,0.06172839506172839,22.22222222222222,0)" xlink:href="#aV"/><use transform="matrix(0.06172839506172839,0,0,0.06172839506172839,34.5679012345679,0)" xlink:href="#am"/><use transform="matrix(0.06172839506172839,0,0,0.06172839506172839,46.913580246913575,0)" xlink:href="#aP"/><use transform="matrix(0.06172839506172839,0,0,0.06172839506172839,65.37037037037037,0)" xlink:href="#ao"/><use transform="matrix(0.06172839506172839,0,0,0.06172839506172839,77.71604938271605,0)" xlink:href="#au"/></g><g id="z"><use transform="matrix(0.06172839506172839,0,0,0.06172839506172839,0,0)" xlink:href="#aC"/><use transform="matrix(0.06172839506172839,0,0,0.06172839506172839,6.172839506172839,0)" xlink:href="#aC"/><use transform="matrix(0.06172839506172839,0,0,0.06172839506172839,12.345679012345679,0)" xlink:href="#aC"/></g><filter id="k" filterUnits="objectBoundingBox" x="-.03" y="-.02" width="1.06" height="1.09"><feOffset result="offOut" in="SourceAlpha" dy="6"/><feGaussianBlur result="blurOut" in="offOut" stdDeviation="5"/><feColorMatrix result="colorOut" in="blurOut" values="0 0 0 0 0 0 0 0 0 0 0 0 0 0 0 0 0 0 0.5019607843137255 0"/><feBlend in="SourceGraphic" in2="colorOut"/></filter><path fill="#3a414a" d="M24 0v-248h52V0H24" id="aW"/><path fill="#3a414a" d="M88-194c31-1 46 15 58 34l-1-101h50l1 261h-48c-2-10 0-23-3-31C134-8 116 4 84 4 32 4 16-41 15-95c0-56 19-97 73-99zm17 164c33 0 40-30 41-66 1-37-9-64-41-64s-38 30-39 65c0 43 13 65 39 65" id="aX"/><path fill="#3a414a" d="M123 10C108 53 80 86 19 72V37c35 8 53-11 59-39L3-190h52l48 148c12-52 28-100 44-148h51" id="aY"/><g id="B"><use transform="matrix(0.08641975308641973,0,0,0.08641975308641973,0,0)" xlink:href="#aW"/><use transform="matrix(0.08641975308641973,0,0,0.08641975308641973,8.641975308641973,0)" xlink:href="#aX"/><use transform="matrix(0.08641975308641973,0,0,0.08641975308641973,27.56790123456789,0)" xlink:href="#aH"/><use transform="matrix(0.08641975308641973,0,0,0.08641975308641973,44.85185185185183,0)" xlink:href="#aO"/><use transform="matrix(0.08641975308641973,0,0,0.08641975308641973,63.77777777777776,0)" xlink:href="#ag"/><use transform="matrix(0.08641975308641973,0,0,0.08641975308641973,74.0617283950617,0)" xlink:href="#aN"/><use transform="matrix(0.08641975308641973,0,0,0.08641975308641973,82.70370370370368,0)" xlink:href="#ah"/><use transform="matrix(0.08641975308641973,0,0,0.08641975308641973,92.98765432098763,0)" xlink:href="#aY"/></g><path fill="#3a414a" d="M12 0v-35l95-120H19v-35h142v35L67-36h103V0H12" id="aZ"/><g id="C"><use transform="matrix(0.08641975308641973,0,0,0.08641975308641973,0,0)" xlink:href="#ai"/><use transform="matrix(0.08641975308641973,0,0,0.08641975308641973,18.92592592592592,0)" xlink:href="#aF"/><use transform="matrix(0.08641975308641973,0,0,0.08641975308641973,37.85185185185184,0)" xlink:href="#ag"/><use transform="matrix(0.08641975308641973,0,0,0.08641975308641973,48.13580246913579,0)" xlink:href="#aN"/><use transform="matrix(0.08641975308641973,0,0,0.08641975308641973,56.777777777777764,0)" xlink:href="#ak"/><use transform="matrix(0.08641975308641973,0,0,0.08641975308641973,84.43209876543207,0)" xlink:href="#aN"/><use transform="matrix(0.08641975308641973,0,0,0.08641975308641973,93.07407407407405,0)" xlink:href="#aZ"/><use transform="matrix(0.08641975308641973,0,0,0.08641975308641973,108.6296296296296,0)" xlink:href="#af"/><use transform="matrix(0.08641975308641973,0,0,0.08641975308641973,125.91358024691355,0)" xlink:href="#ag"/><use transform="matrix(0.08641975308641973,0,0,0.08641975308641973,136.19753086419752,0)" xlink:href="#aN"/><use transform="matrix(0.08641975308641973,0,0,0.08641975308641973,144.8395061728395,0)" xlink:href="#ai"/><use transform="matrix(0.08641975308641973,0,0,0.08641975308641973,163.76543209876542,0)" xlink:href="#aO"/></g><path fill="#3a414a" d="M195-6C206 82 75 100 31 46c-4-6-6-13-8-21l49-6c3 16 16 24 34 25 40 0 42-37 40-79-11 22-30 35-61 35-53 0-70-43-70-97 0-56 18-96 73-97 30 0 46 14 59 34l2-30h47zm-90-29c32 0 41-27 41-63 0-35-9-62-40-62-32 0-39 29-40 63 0 36 9 62 39 62" id="ba"/><g id="D"><use transform="matrix(0.08641975308641973,0,0,0.08641975308641973,0,0)" xlink:href="#ba"/><use transform="matrix(0.08641975308641973,0,0,0.08641975308641973,18.92592592592592,0)" xlink:href="#ai"/><use transform="matrix(0.08641975308641973,0,0,0.08641975308641973,37.85185185185184,0)" xlink:href="#af"/><use transform="matrix(0.08641975308641973,0,0,0.08641975308641973,55.13580246913578,0)" xlink:href="#aG"/><use transform="matrix(0.08641975308641973,0,0,0.08641975308641973,63.77777777777776,0)" xlink:href="#aK"/></g><g id="E"><use transform="matrix(0.06172839506172835,0,0,0.06172839506172835,0,0)" xlink:href="#av"/><use transform="matrix(0.06172839506172835,0,0,0.06172839506172835,11.111111111111104,0)" xlink:href="#ar"/><use transform="matrix(0.06172839506172835,0,0,0.06172839506172835,23.456790123456774,0)" xlink:href="#aP"/><use transform="matrix(0.06172839506172835,0,0,0.06172839506172835,41.913580246913554,0)" xlink:href="#az"/><use transform="matrix(0.06172839506172835,0,0,0.06172839506172835,54.259259259259224,0)" xlink:href="#al"/><use transform="matrix(0.06172839506172835,0,0,0.06172839506172835,61.604938271604894,0)" xlink:href="#am"/><use transform="matrix(0.06172839506172835,0,0,0.06172839506172835,73.95061728395056,0)" xlink:href="#aw"/><use transform="matrix(0.06172839506172835,0,0,0.06172839506172835,85.06172839506166,0)" xlink:href="#aw"/><use transform="matrix(0.06172839506172835,0,0,0.06172839506172835,96.17283950617276,0)" xlink:href="#aq"/><use transform="matrix(0.06172839506172835,0,0,0.06172839506172835,101.04938271604931,0)" xlink:href="#ar"/><use transform="matrix(0.06172839506172835,0,0,0.06172839506172835,113.39506172839498,0)" xlink:href="#as"/></g><g id="F"><use transform="matrix(0.06172839506172835,0,0,0.06172839506172835,0,0)" xlink:href="#al"/><use transform="matrix(0.06172839506172835,0,0,0.06172839506172835,7.345679012345673,0)" xlink:href="#ao"/><use transform="matrix(0.06172839506172835,0,0,0.06172839506172835,19.691358024691343,0)" xlink:href="#ap"/><use transform="matrix(0.06172839506172835,0,0,0.06172839506172835,25.86419753086418,0)" xlink:href="#aq"/><use transform="matrix(0.06172839506172835,0,0,0.06172839506172835,30.74074074074072,0)" xlink:href="#ar"/><use transform="matrix(0.06172839506172835,0,0,0.06172839506172835,43.08641975308639,0)" xlink:href="#au"/></g><g id="G"><use transform="matrix(0.06172839506172835,0,0,0.06172839506172835,0,0)" xlink:href="#av"/><use transform="matrix(0.06172839506172835,0,0,0.06172839506172835,11.111111111111104,0)" xlink:href="#ar"/><use transform="matrix(0.06172839506172835,0,0,0.06172839506172835,23.456790123456774,0)" xlink:href="#as"/><use transform="matrix(0.06172839506172835,0,0,0.06172839506172835,35.80246913580244,0)" xlink:href="#ax"/><use transform="matrix(0.06172839506172835,0,0,0.06172839506172835,46.91358024691354,0)" xlink:href="#am"/><use transform="matrix(0.06172839506172835,0,0,0.06172839506172835,59.25925925925921,0)" xlink:href="#al"/><use transform="matrix(0.06172839506172835,0,0,0.06172839506172835,66.60493827160488,0)" xlink:href="#aw"/><use transform="matrix(0.06172839506172835,0,0,0.06172839506172835,77.71604938271598,0)" xlink:href="#aq"/><use transform="matrix(0.06172839506172835,0,0,0.06172839506172835,82.59259259259252,0)" xlink:href="#ar"/><use transform="matrix(0.06172839506172835,0,0,0.06172839506172835,94.9382716049382,0)" xlink:href="#as"/></g><g id="H"><use transform="matrix(0.06172839506172835,0,0,0.06172839506172835,0,0)" xlink:href="#aw"/><use transform="matrix(0.06172839506172835,0,0,0.06172839506172835,11.111111111111104,0)" xlink:href="#az"/><use transform="matrix(0.06172839506172835,0,0,0.06172839506172835,23.456790123456774,0)" xlink:href="#am"/><use transform="matrix(0.06172839506172835,0,0,0.06172839506172835,35.80246913580244,0)" xlink:href="#am"/><use transform="matrix(0.06172839506172835,0,0,0.06172839506172835,48.14814814814811,0)" xlink:href="#aR"/><use transform="matrix(0.06172839506172835,0,0,0.06172839506172835,60.49382716049378,0)" xlink:href="#au"/></g><path fill="#3a414a" d="M145-31C134-9 116 4 85 4 32 4 16-35 15-94c0-59 17-99 70-100 32-1 48 14 60 33 0-11-1-24 2-32h30l-1 268h-32zM93-21c41 0 51-33 51-76s-8-73-50-73c-40 0-46 35-46 75s5 74 45 74" id="bb"/><path fill="#3a414a" d="M16-82v-28h88v28H16" id="bc"/><g id="I"><use transform="matrix(0.06172839506172835,0,0,0.06172839506172835,0,0)" xlink:href="#bb"/><use transform="matrix(0.06172839506172835,0,0,0.06172839506172835,12.34567901234567,0)" xlink:href="#aA"/><use transform="matrix(0.06172839506172835,0,0,0.06172839506172835,24.69135802469134,0)" xlink:href="#am"/><use transform="matrix(0.06172839506172835,0,0,0.06172839506172835,37.03703703703701,0)" xlink:href="#al"/><use transform="matrix(0.06172839506172835,0,0,0.06172839506172835,44.38271604938268,0)" xlink:href="#aS"/><use transform="matrix(0.06172839506172835,0,0,0.06172839506172835,55.49382716049378,0)" xlink:href="#bc"/><use transform="matrix(0.06172839506172835,0,0,0.06172839506172835,62.83950617283945,0)" xlink:href="#ao"/><use transform="matrix(0.06172839506172835,0,0,0.06172839506172835,75.18518518518512,0)" xlink:href="#at"/><use transform="matrix(0.06172839506172835,0,0,0.06172839506172835,87.53086419753079,0)" xlink:href="#aq"/><use transform="matrix(0.06172839506172835,0,0,0.06172839506172835,92.40740740740733,0)" xlink:href="#an"/><use transform="matrix(0.06172839506172835,0,0,0.06172839506172835,97.28395061728388,0)" xlink:href="#aq"/><use transform="matrix(0.06172839506172835,0,0,0.06172839506172835,102.16049382716042,0)" xlink:href="#ap"/><use transform="matrix(0.06172839506172835,0,0,0.06172839506172835,108.33333333333326,0)" xlink:href="#aS"/><use transform="matrix(0.06172839506172835,0,0,0.06172839506172835,117.77777777777769,0)" xlink:href="#au"/></g><g id="J"><use transform="matrix(0.06172839506172835,0,0,0.06172839506172835,0,0)" xlink:href="#aR"/><use transform="matrix(0.06172839506172835,0,0,0.06172839506172835,12.34567901234567,0)" xlink:href="#ao"/><use transform="matrix(0.06172839506172835,0,0,0.06172839506172835,24.69135802469134,0)" xlink:href="#ap"/><use transform="matrix(0.06172839506172835,0,0,0.06172839506172835,30.864197530864175,0)" xlink:href="#ao"/></g><g id="K"><use transform="matrix(0.06172839506172835,0,0,0.06172839506172835,0,0)" xlink:href="#az"/><use transform="matrix(0.06172839506172835,0,0,0.06172839506172835,12.34567901234567,0)" xlink:href="#al"/><use transform="matrix(0.06172839506172835,0,0,0.06172839506172835,19.691358024691343,0)" xlink:href="#ar"/><use transform="matrix(0.06172839506172835,0,0,0.06172839506172835,32.03703703703701,0)" xlink:href="#av"/><use transform="matrix(0.06172839506172835,0,0,0.06172839506172835,43.14814814814811,0)" xlink:href="#am"/><use transform="matrix(0.06172839506172835,0,0,0.06172839506172835,55.49382716049378,0)" xlink:href="#aw"/><use transform="matrix(0.06172839506172835,0,0,0.06172839506172835,66.60493827160488,0)" xlink:href="#aw"/><use transform="matrix(0.06172839506172835,0,0,0.06172839506172835,77.71604938271598,0)" xlink:href="#aq"/><use transform="matrix(0.06172839506172835,0,0,0.06172839506172835,82.59259259259252,0)" xlink:href="#as"/><use transform="matrix(0.06172839506172835,0,0,0.06172839506172835,94.9382716049382,0)" xlink:href="#aT"/></g><filter id="A" filterUnits="objectBoundingBox" x="-.03" y="-.02" width="1.06" height="1.09"><feOffset result="offOut" in="SourceAlpha" dy="6"/><feGaussianBlur result="blurOut" in="offOut" stdDeviation="5"/><feColorMatrix result="colorOut" in="blurOut" values="0 0 0 0 0 0 0 0 0 0 0 0 0 0 0 0 0 0 0.5019607843137255 0"/><feBlend in="SourceGraphic" in2="colorOut"/></filter><path fill="#3a414a" d="M136-208V0H84v-208H4v-40h212v40h-80" id="bd"/><g id="M"><use transform="matrix(0.08641975308641973,0,0,0.08641975308641973,0,0)" xlink:href="#bd"/><use transform="matrix(0.08641975308641973,0,0,0.08641975308641973,16.592592592592588,0)" xlink:href="#aH"/><use transform="matrix(0.08641975308641973,0,0,0.08641975308641973,33.87654320987653,0)" xlink:href="#aK"/><use transform="matrix(0.08641975308641973,0,0,0.08641975308641973,51.16049382716048,0)" xlink:href="#ag"/></g><g id="N"><use transform="matrix(0.08641975308641973,0,0,0.08641975308641973,0,0)" xlink:href="#ai"/><use transform="matrix(0.08641975308641973,0,0,0.08641975308641973,18.92592592592592,0)" xlink:href="#aF"/><use transform="matrix(0.08641975308641973,0,0,0.08641975308641973,37.85185185185184,0)" xlink:href="#ag"/><use transform="matrix(0.08641975308641973,0,0,0.08641975308641973,48.13580246913579,0)" xlink:href="#aN"/><use transform="matrix(0.08641975308641973,0,0,0.08641975308641973,56.777777777777764,0)" xlink:href="#ai"/><use transform="matrix(0.08641975308641973,0,0,0.08641975308641973,75.70370370370368,0)" xlink:href="#aO"/><use transform="matrix(0.08641975308641973,0,0,0.08641975308641973,94.6296296296296,0)" xlink:href="#aK"/></g><path fill="#3a414a" d="M206 0h-36l-40-164L89 0H53L-1-190h32L70-26l43-164h34l41 164 42-164h31" id="be"/><g id="O"><use transform="matrix(0.06172839506172839,0,0,0.06172839506172839,0,0)" xlink:href="#be"/><use transform="matrix(0.06172839506172839,0,0,0.06172839506172839,15.987654320987653,0)" xlink:href="#aq"/><use transform="matrix(0.06172839506172839,0,0,0.06172839506172839,20.864197530864196,0)" xlink:href="#ap"/><use transform="matrix(0.06172839506172839,0,0,0.06172839506172839,27.037037037037035,0)" xlink:href="#aV"/></g><g id="P"><use transform="matrix(0.06172839506172839,0,0,0.06172839506172839,0,0)" xlink:href="#al"/><use transform="matrix(0.06172839506172839,0,0,0.06172839506172839,7.345679012345679,0)" xlink:href="#am"/><use transform="matrix(0.06172839506172839,0,0,0.06172839506172839,19.691358024691358,0)" xlink:href="#ao"/><use transform="matrix(0.06172839506172839,0,0,0.06172839506172839,32.03703703703704,0)" xlink:href="#an"/></g><g id="Q"><use transform="matrix(0.06172839506172839,0,0,0.06172839506172839,0,0)" xlink:href="#ao"/><use transform="matrix(0.06172839506172839,0,0,0.06172839506172839,12.345679012345679,0)" xlink:href="#aw"/></g><g id="R"><use transform="matrix(0.06172839506172839,0,0,0.06172839506172839,0,0)" xlink:href="#aP"/><use transform="matrix(0.06172839506172839,0,0,0.06172839506172839,18.456790123456788,0)" xlink:href="#aA"/><use transform="matrix(0.06172839506172839,0,0,0.06172839506172839,30.80246913580247,0)" xlink:href="#av"/><use transform="matrix(0.06172839506172839,0,0,0.06172839506172839,41.91358024691358,0)" xlink:href="#aV"/></g><g id="S"><use transform="matrix(0.06172839506172839,0,0,0.06172839506172839,0,0)" xlink:href="#ao"/><use transform="matrix(0.06172839506172839,0,0,0.06172839506172839,12.345679012345679,0)" xlink:href="#aw"/></g><g id="T"><use transform="matrix(0.06172839506172839,0,0,0.06172839506172839,0,0)" xlink:href="#az"/><use transform="matrix(0.06172839506172839,0,0,0.06172839506172839,12.345679012345679,0)" xlink:href="#ar"/><use transform="matrix(0.06172839506172839,0,0,0.06172839506172839,24.691358024691358,0)" xlink:href="#aw"/><use transform="matrix(0.06172839506172839,0,0,0.06172839506172839,35.80246913580247,0)" xlink:href="#aw"/><use transform="matrix(0.06172839506172839,0,0,0.06172839506172839,46.91358024691358,0)" xlink:href="#aq"/><use transform="matrix(0.06172839506172839,0,0,0.06172839506172839,51.79012345679013,0)" xlink:href="#at"/><use transform="matrix(0.06172839506172839,0,0,0.06172839506172839,64.13580246913581,0)" xlink:href="#an"/><use transform="matrix(0.06172839506172839,0,0,0.06172839506172839,69.01234567901236,0)" xlink:href="#am"/></g><filter id="L" filterUnits="objectBoundingBox" x="-.03" y="-.03" width="1.06" height="1.13"><feOffset result="offOut" in="SourceAlpha" dy="6"/><feGaussianBlur result="blurOut" in="offOut" stdDeviation="5"/><feColorMatrix result="colorOut" in="blurOut" values="0 0 0 0 0 0 0 0 0 0 0 0 0 0 0 0 0 0 0.5019607843137255 0"/><feBlend in="SourceGraphic" in2="colorOut"/></filter><path fill="#3a414a" d="M140-251c80 0 125 45 125 126S219 4 139 4C58 4 15-44 15-125s44-126 125-126zm-1 214c52 0 73-35 73-88 0-50-21-86-72-86-52 0-73 35-73 86s22 88 72 88" id="bf"/><g id="U"><use transform="matrix(0.08641975308641973,0,0,0.08641975308641973,0,0)" xlink:href="#bf"/><use transform="matrix(0.08641975308641973,0,0,0.08641975308641973,24.197530864197525,0)" xlink:href="#aF"/><use transform="matrix(0.08641975308641973,0,0,0.08641975308641973,43.12345679012344,0)" xlink:href="#ag"/><use transform="matrix(0.08641975308641973,0,0,0.08641975308641973,53.40740740740738,0)" xlink:href="#aN"/><use transform="matrix(0.08641975308641973,0,0,0.08641975308641973,62.04938271604937,0)" xlink:href="#ak"/><use transform="matrix(0.08641975308641973,0,0,0.08641975308641973,89.70370370370368,0)" xlink:href="#aN"/><use transform="matrix(0.08641975308641973,0,0,0.08641975308641973,98.34567901234566,0)" xlink:href="#aZ"/><use transform="matrix(0.08641975308641973,0,0,0.08641975308641973,113.90123456790121,0)" xlink:href="#aH"/></g><g id="V"><use transform="matrix(0.08641975308641973,0,0,0.08641975308641973,0,0)" xlink:href="#ag"/><use transform="matrix(0.08641975308641973,0,0,0.08641975308641973,10.28395061728395,0)" xlink:href="#aj"/><use transform="matrix(0.08641975308641973,0,0,0.08641975308641973,22.38271604938271,0)" xlink:href="#af"/><use transform="matrix(0.08641975308641973,0,0,0.08641975308641973,39.66666666666666,0)" xlink:href="#aO"/><use transform="matrix(0.08641975308641973,0,0,0.08641975308641973,58.59259259259258,0)" xlink:href="#aK"/><use transform="matrix(0.08641975308641973,0,0,0.08641975308641973,75.87654320987653,0)" xlink:href="#aF"/><use transform="matrix(0.08641975308641973,0,0,0.08641975308641973,94.80246913580245,0)" xlink:href="#ai"/><use transform="matrix(0.08641975308641973,0,0,0.08641975308641973,113.72839506172836,0)" xlink:href="#aj"/><use transform="matrix(0.08641975308641973,0,0,0.08641975308641973,125.82716049382714,0)" xlink:href="#ag"/></g><path fill="#3a414a" d="M24-248c93 1 206-16 204 79-1 75-69 88-152 82V0H24v-248zm52 121c47 0 100 7 100-41 0-47-54-39-100-39v80" id="bg"/><path fill="#3a414a" d="M67-125c0 53 21 87 73 88 37 1 54-22 65-47l45 17C233-25 199 4 140 4 58 4 20-42 15-125 8-235 124-281 211-232c18 10 29 29 36 50l-46 12c-8-25-30-41-62-41-52 0-71 34-72 86" id="bh"/><g id="W"><use transform="matrix(0.08641975308641973,0,0,0.08641975308641973,0,0)" xlink:href="#aW"/><use transform="matrix(0.08641975308641973,0,0,0.08641975308641973,8.641975308641973,0)" xlink:href="#bg"/><use transform="matrix(0.08641975308641973,0,0,0.08641975308641973,29.382716049382708,0)" xlink:href="#bh"/></g><g id="X"><use transform="matrix(0.08641975308641973,0,0,0.08641975308641973,0,0)" xlink:href="#aI"/><use transform="matrix(0.08641975308641973,0,0,0.08641975308641973,22.38271604938271,0)" xlink:href="#aj"/><use transform="matrix(0.08641975308641973,0,0,0.08641975308641973,34.481481481481474,0)" xlink:href="#aj"/><use transform="matrix(0.08641975308641973,0,0,0.08641975308641973,46.58024691358024,0)" xlink:href="#ai"/><use transform="matrix(0.08641975308641973,0,0,0.08641975308641973,65.50617283950616,0)" xlink:href="#aJ"/></g><path fill="#3a414a" d="M169-182c-1-43-94-46-97-3 18 66 151 10 154 114 3 95-165 93-204 36-6-8-10-19-12-30l50-8c3 46 112 56 116 5-17-69-150-10-154-114-4-87 153-88 188-35 5 8 8 18 10 28" id="bi"/><g id="Y"><use transform="matrix(0.08641975308641973,0,0,0.08641975308641973,0,0)" xlink:href="#bi"/><use transform="matrix(0.08641975308641973,0,0,0.08641975308641973,20.740740740740737,0)" xlink:href="#ag"/><use transform="matrix(0.08641975308641973,0,0,0.08641975308641973,31.024691358024686,0)" xlink:href="#aj"/><use transform="matrix(0.08641975308641973,0,0,0.08641975308641973,43.12345679012345,0)" xlink:href="#aH"/><use transform="matrix(0.08641975308641973,0,0,0.08641975308641973,60.4074074074074,0)" xlink:href="#af"/><use transform="matrix(0.08641975308641973,0,0,0.08641975308641973,77.69135802469134,0)" xlink:href="#ak"/></g><g id="Z"><use transform="matrix(0.06172839506172839,0,0,0.06172839506172839,0,0)" xlink:href="#av"/><use transform="matrix(0.06172839506172839,0,0,0.06172839506172839,11.11111111111111,0)" xlink:href="#ar"/><use transform="matrix(0.06172839506172839,0,0,0.06172839506172839,23.45679012345679,0)" xlink:href="#aP"/><use transform="matrix(0.06172839506172839,0,0,0.06172839506172839,41.91358024691358,0)" xlink:href="#az"/><use transform="matrix(0.06172839506172839,0,0,0.06172839506172839,54.25925925925926,0)" xlink:href="#al"/><use transform="matrix(0.06172839506172839,0,0,0.06172839506172839,61.60493827160494,0)" xlink:href="#am"/><use transform="matrix(0.06172839506172839,0,0,0.06172839506172839,73.95061728395062,0)" xlink:href="#aw"/><use transform="matrix(0.06172839506172839,0,0,0.06172839506172839,85.06172839506173,0)" xlink:href="#aw"/><use transform="matrix(0.06172839506172839,0,0,0.06172839506172839,96.17283950617285,0)" xlink:href="#aq"/><use transform="matrix(0.06172839506172839,0,0,0.06172839506172839,101.0493827160494,0)" xlink:href="#ar"/><use transform="matrix(0.06172839506172839,0,0,0.06172839506172839,113.39506172839508,0)" xlink:href="#as"/></g><g id="aa"><use transform="matrix(0.06172839506172839,0,0,0.06172839506172839,0,0)" xlink:href="#ao"/><use transform="matrix(0.06172839506172839,0,0,0.06172839506172839,12.345679012345679,0)" xlink:href="#an"/><use transform="matrix(0.06172839506172839,0,0,0.06172839506172839,17.22222222222222,0)" xlink:href="#aT"/><use transform="matrix(0.06172839506172839,0,0,0.06172839506172839,29.5679012345679,0)" xlink:href="#ar"/><use transform="matrix(0.06172839506172839,0,0,0.06172839506172839,41.913580246913575,0)" xlink:href="#al"/><use transform="matrix(0.06172839506172839,0,0,0.06172839506172839,49.25925925925925,0)" xlink:href="#aq"/><use transform="matrix(0.06172839506172839,0,0,0.06172839506172839,54.1358024691358,0)" xlink:href="#ap"/><use transform="matrix(0.06172839506172839,0,0,0.06172839506172839,60.30864197530864,0)" xlink:href="#aV"/><use transform="matrix(0.06172839506172839,0,0,0.06172839506172839,72.65432098765432,0)" xlink:href="#aP"/><use transform="matrix(0.06172839506172839,0,0,0.06172839506172839,91.1111111111111,0)" xlink:href="#au"/></g><g id="ab"><use transform="matrix(0.06172839506172839,0,0,0.06172839506172839,0,0)" xlink:href="#aR"/><use transform="matrix(0.06172839506172839,0,0,0.06172839506172839,12.345679012345679,0)" xlink:href="#am"/><use transform="matrix(0.06172839506172839,0,0,0.06172839506172839,24.691358024691358,0)" xlink:href="#an"/><use transform="matrix(0.06172839506172839,0,0,0.06172839506172839,29.5679012345679,0)" xlink:href="#ap"/><use transform="matrix(0.06172839506172839,0,0,0.06172839506172839,35.74074074074074,0)" xlink:href="#ao"/><use transform="matrix(0.06172839506172839,0,0,0.06172839506172839,48.08641975308642,0)" xlink:href="#bc"/><use transform="matrix(0.06172839506172839,0,0,0.06172839506172839,55.432098765432094,0)" xlink:href="#aR"/><use transform="matrix(0.06172839506172839,0,0,0.06172839506172839,67.77777777777777,0)" xlink:href="#aq"/><use transform="matrix(0.06172839506172839,0,0,0.06172839506172839,72.65432098765432,0)" xlink:href="#av"/><use transform="matrix(0.06172839506172839,0,0,0.06172839506172839,83.76543209876543,0)" xlink:href="#ap"/><use transform="matrix(0.06172839506172839,0,0,0.06172839506172839,89.93827160493827,0)" xlink:href="#aq"/><use transform="matrix(0.06172839506172839,0,0,0.06172839506172839,94.81481481481481,0)" xlink:href="#ar"/><use transform="matrix(0.06172839506172839,0,0,0.06172839506172839,107.1604938271605,0)" xlink:href="#as"/><use transform="matrix(0.06172839506172839,0,0,0.06172839506172839,119.50617283950618,0)" xlink:href="#ao"/><use transform="matrix(0.06172839506172839,0,0,0.06172839506172839,131.85185185185185,0)" xlink:href="#al"/><use transform="matrix(0.06172839506172839,0,0,0.06172839506172839,139.19753086419752,0)" xlink:href="#aS"/></g><g id="ac"><use transform="matrix(0.08641975308641973,0,0,0.08641975308641973,0,0)" xlink:href="#bf"/><use transform="matrix(0.08641975308641973,0,0,0.08641975308641973,24.197530864197525,0)" xlink:href="#aF"/><use transform="matrix(0.08641975308641973,0,0,0.08641975308641973,43.12345679012344,0)" xlink:href="#ag"/><use transform="matrix(0.08641975308641973,0,0,0.08641975308641973,53.40740740740738,0)" xlink:href="#aN"/><use transform="matrix(0.08641975308641973,0,0,0.08641975308641973,62.04938271604937,0)" xlink:href="#ak"/><use transform="matrix(0.08641975308641973,0,0,0.08641975308641973,89.70370370370368,0)" xlink:href="#aN"/><use transform="matrix(0.08641975308641973,0,0,0.08641975308641973,98.34567901234566,0)" xlink:href="#aZ"/><use transform="matrix(0.08641975308641973,0,0,0.08641975308641973,113.90123456790121,0)" xlink:href="#aH"/><use transform="matrix(0.08641975308641973,0,0,0.08641975308641973,131.18518518518516,0)" xlink:href="#aX"/></g><g id="ad"><use transform="matrix(0.08641975308641973,0,0,0.08641975308641973,0,0)" xlink:href="#bi"/><use transform="matrix(0.08641975308641973,0,0,0.08641975308641973,20.740740740740737,0)" xlink:href="#aL"/><use transform="matrix(0.08641975308641973,0,0,0.08641975308641973,38.02469135802468,0)" xlink:href="#aM"/><use transform="matrix(0.08641975308641973,0,0,0.08641975308641973,56.950617283950606,0)" xlink:href="#aH"/><use transform="matrix(0.08641975308641973,0,0,0.08641975308641973,74.23456790123456,0)" xlink:href="#ak"/><use transform="matrix(0.08641975308641973,0,0,0.08641975308641973,101.88888888888887,0)" xlink:href="#af"/></g></defs></g></svg>