<svg xmlns="http://www.w3.org/2000/svg" xmlns:xlink="http://www.w3.org/1999/xlink" xmlns:lucid="lucid" width="1025.01" height="636.5"><g transform="translate(0.8803084331024138 -0.6666666667054812)" lucid:page-tab-id="Zg2IS9ZMycfS"><path d="M0 0h1760v1360H0z" fill="#fff"/><path d="M19.12 453.17a6 6 0 0 1 6-6h358.54a6 6 0 0 1 6 6v62a6 6 0 0 1-6 6H25.12a6 6 0 0 1-6-6z" stroke="#000" stroke-opacity="0" fill="#fff" fill-opacity="0"/><use xlink:href="#a" transform="matrix(1,0,0,1,24.119691566897586,452.1666666665891) translate(15.5 37.33333333333333)"/><use xlink:href="#b" transform="matrix(1,0,0,1,24.119691566897586,452.1666666665891) translate(110.24074074074073 37.33333333333333)"/><use xlink:href="#c" transform="matrix(1,0,0,1,24.119691566897586,452.1666666665891) translate(267.1296296296296 37.33333333333333)"/><path d="M586.93 453.17a6 6 0 0 1 6-6h405.2a6 6 0 0 1 6 6v158a6 6 0 0 1-6 6h-405.2a6 6 0 0 1-6-6z" stroke="#000" stroke-opacity="0" fill="#fff" fill-opacity="0"/><use xlink:href="#d" transform="matrix(1,0,0,1,591.9256961723521,452.1666666665891) translate(26.481481481481495 36.33333333333333)"/><use xlink:href="#e" transform="matrix(1,0,0,1,591.9256961723521,452.1666666665891) translate(146.25925925925924 36.33333333333333)"/><use xlink:href="#f" transform="matrix(1,0,0,1,591.9256961723521,452.1666666665891) translate(303.14814814814815 36.33333333333333)"/><use xlink:href="#g" transform="matrix(1,0,0,1,591.9256961723521,452.1666666665891) translate(51 68.33333333333333)"/><use xlink:href="#h" transform="matrix(1,0,0,1,591.9256961723521,452.1666666665891) translate(111.59259259259258 68.33333333333333)"/><use xlink:href="#i" transform="matrix(1,0,0,1,591.9256961723521,452.1666666665891) translate(237.44444444444443 68.33333333333333)"/><use xlink:href="#j" transform="matrix(1,0,0,1,591.9256961723521,452.1666666665891) translate(204 100.33333333333333)"/><use xlink:href="#k" transform="matrix(1,0,0,1,591.9256961723521,452.1666666665891) translate(17 132.33333333333334)"/><use xlink:href="#l" transform="matrix(1,0,0,1,591.9256961723521,452.1666666665891) translate(68.62962962962962 132.33333333333334)"/><use xlink:href="#m" transform="matrix(1,0,0,1,591.9256961723521,452.1666666665891) translate(135.29629629629628 132.33333333333334)"/><use xlink:href="#n" transform="matrix(1,0,0,1,591.9256961723521,452.1666666665891) translate(167.7407407407407 132.33333333333334)"/><use xlink:href="#o" transform="matrix(1,0,0,1,591.9256961723521,452.1666666665891) translate(253.51851851851848 132.33333333333334)"/><use xlink:href="#p" transform="matrix(1,0,0,1,591.9256961723521,452.1666666665891) translate(314.1111111111111 132.33333333333334)"/><g filter="url(#q)"><path d="M144.4 27.67a6 6 0 0 1 6-6h106.1a6 6 0 0 1 6 6v51a6 6 0 0 1-6 6H150.4a6 6 0 0 1-6-6z" stroke="#008573" fill="#fff"/><use xlink:href="#r" transform="matrix(1,0,0,1,152.39414934012825,29.66666666670551) translate(43.50617283950617 27.944444444444443)"/></g><path d="M169.7 115.54v15.04a6 6 0 0 1-6 6h-59.6a6 6 0 0 0-6 6v29.04" stroke="#008573" fill="none"/><path d="M169.7 85.87l14.84 14.85-14.85 15.15-14.86-15.15zM98.1 186.38l-4.63-14.26h9.27z" stroke="#008573" fill="#008573"/><use xlink:href="#s" transform="matrix(1,0,0,1,110.73841118552467,166.20004999999998) translate(0 14.4)"/><g filter="url(#q)"><path d="M251.62 361.33a6 6 0 0 1 6-6h106.1a6 6 0 0 1 6 6v51a6 6 0 0 1-6 6h-106.1a6 6 0 0 1-6-6z" stroke="#008573" fill="#fff"/><use xlink:href="#t" transform="matrix(1,0,0,1,259.6243264174959,363.33333333329455) translate(43.50617283950617 27.944444444444443)"/></g><path d="M310.67 282.38v56.07" stroke="#008573" fill="none"/><path d="M310.67 252.7l14.85 14.86-14.85 15.15-14.85-15.14zM310.67 353.2l-4.63-14.25h9.27z" stroke="#008573" fill="#008573"/><use xlink:href="#u" transform="matrix(1,0,0,1,323.3080802424787,333.0333833332944) translate(0 14.4)"/><path d="M230.72 115.54v15.04a6 6 0 0 0 6 6h67.95a6 6 0 0 1 6 6v29.04" stroke="#008573" fill="none"/><path d="M230.72 85.87l14.85 14.85-14.85 15.15-14.85-15.15zM310.67 186.38l-4.63-14.26h9.27z" stroke="#008573" fill="#008573"/><use xlink:href="#u" transform="matrix(1,0,0,1,323.30808017,166.20004999999998) translate(0 14.4)"/><g filter="url(#q)"><path d="M39.05 194.5a6 6 0 0 1 6-6h106.1a6 6 0 0 1 6 6v51a6 6 0 0 1-6 6H45.05a6 6 0 0 1-6-6z" stroke="#008573" fill="#fff"/><use xlink:href="#r" transform="matrix(1,0,0,1,47.054657420920144,196.5) translate(43.50617283950617 27.944444444444443)"/></g><g filter="url(#q)"><path d="M251.62 194.5a6 6 0 0 1 6-6h106.1a6 6 0 0 1 6 6v51a6 6 0 0 1-6 6h-106.1a6 6 0 0 1-6-6z" stroke="#008573" fill="#fff"/><use xlink:href="#v" transform="matrix(1,0,0,1,259.62432640539544,196.5) translate(43.50617283950617 27.944444444444443)"/></g><g filter="url(#q)"><path d="M702.2 27.67a6 6 0 0 1 6-6h106.1a6 6 0 0 1 6 6v51a6 6 0 0 1-6 6H708.2a6 6 0 0 1-6-6z" stroke="#e81313" fill="#fff"/><use xlink:href="#w" transform="matrix(1,0,0,1,710.2001539525503,29.66666666670548) translate(43.50617283950617 27.944444444444443)"/></g><path d="M727.5 115.54v15.04a6 6 0 0 1-6 6h-59.6a6 6 0 0 0-6 6v29.04" stroke="#e81313" fill="none"/><path d="M727.5 85.87l14.84 14.85-14.85 15.15-14.86-15.15zM655.9 186.38l-4.63-14.26h9.27z" stroke="#e81313" fill="#e81313"/><use xlink:href="#x" transform="matrix(1,0,0,1,668.5444157979466,166.20004999999998) translate(0 14.4)"/><g filter="url(#q)"><path d="M809.43 361.33a6 6 0 0 1 6-6h106.1a6 6 0 0 1 6 6v51a6 6 0 0 1-6 6h-106.1a6 6 0 0 1-6-6z" stroke="#e81313" fill="#fff"/><use xlink:href="#y" transform="matrix(1,0,0,1,817.430331029918,363.3333333332945) translate(43.50617283950617 27.944444444444443)"/></g><path d="M868.48 282.38v56.07" stroke="#e81313" fill="none"/><path d="M868.48 252.7l14.85 14.86-14.85 15.15-14.85-15.14zM868.48 353.2l-4.64-14.25h9.27z" stroke="#e81313" fill="#e81313"/><g><use xlink:href="#z" transform="matrix(1,0,0,1,881.1140848549009,333.03338333329435) translate(0 14.4)"/></g><path d="M788.52 115.54v15.04a6 6 0 0 0 6 6h67.96a6 6 0 0 1 6 6v29.04" stroke="#e81313" fill="none"/><path d="M788.52 85.87l14.85 14.85-14.85 15.15-14.85-15.15zM868.48 186.38l-4.64-14.26h9.27z" stroke="#e81313" fill="#e81313"/><g><use xlink:href="#z" transform="matrix(1,0,0,1,881.1140847824219,166.20004999999992) translate(0 14.4)"/></g><g filter="url(#q)"><path d="M596.86 194.5a6 6 0 0 1 6-6h106.1a6 6 0 0 1 6 6v51a6 6 0 0 1-6 6h-106.1a6 6 0 0 1-6-6z" stroke="#e81313" fill="#fff"/><use xlink:href="#w" transform="matrix(1,0,0,1,604.8606620333421,196.49999999999997) translate(43.50617283950617 27.944444444444443)"/></g><g filter="url(#q)"><path d="M809.43 194.5a6 6 0 0 1 6-6h106.1a6 6 0 0 1 6 6v51a6 6 0 0 1-6 6h-106.1a6 6 0 0 1-6-6z" stroke="#e81313" fill="#fff"/><use xlink:href="#A" transform="matrix(1,0,0,1,817.4303310178174,196.49999999999997) translate(43.50617283950617 27.944444444444443)"/></g><path d="M930.53 386.83h57.66a6 6 0 0 0 6-6V226a6 6 0 0 0-6-6h-35.32" stroke="#e81313" stroke-width="5" fill="none"/><path d="M930.6 389.33h-2.57v-5h2.56z" stroke="#e81313" stroke-width=".05" fill="#e81313"/><path d="M936.12 220l14.26-4.63v9.27z" stroke="#e81313" stroke-width="5" fill="#e81313"/><g><use xlink:href="#x" transform="matrix(1,0,0,1,928.0272790299189,390.8333333332945) translate(0 14.4)"/></g><g><use xlink:href="#z" transform="matrix(1,0,0,1,928.527279029919,228.64142623996773) translate(0 14.4)"/></g><defs><path fill="#008573" d="M169-182c-1-43-94-46-97-3 18 66 151 10 154 114 3 95-165 93-204 36-6-8-10-19-12-30l50-8c3 46 112 56 116 5-17-69-150-10-154-114-4-87 153-88 188-35 5 8 8 18 10 28" id="B"/><path fill="#008573" d="M25-224v-37h50v37H25zM25 0v-190h50V0H25" id="C"/><path fill="#008573" d="M220-157c-53 9-28 100-34 157h-49v-107c1-27-5-49-29-50C55-147 81-57 75 0H25l-1-190h47c2 12-1 28 3 38 10-53 101-56 108 0 13-22 24-43 59-42 82 1 51 116 57 194h-49v-107c-1-25-5-48-29-50" id="D"/><path fill="#008573" d="M135-194c53 0 70 44 70 98 0 56-19 98-73 100-31 1-45-17-59-34 3 33 2 69 2 105H25l-1-265h48c2 10 0 23 3 31 11-24 29-35 60-35zM114-30c33 0 39-31 40-66 0-38-9-64-40-64-56 0-55 130 0 130" id="E"/><path fill="#008573" d="M25 0v-261h50V0H25" id="F"/><path fill="#008573" d="M185-48c-13 30-37 53-82 52C43 2 14-33 14-96s30-98 90-98c62 0 83 45 84 108H66c0 31 8 55 39 56 18 0 30-7 34-22zm-45-69c5-46-57-63-70-21-2 6-4 13-4 21h74" id="G"/><g id="a"><use transform="matrix(0.07407407407407407,0,0,0.07407407407407407,0,0)" xlink:href="#B"/><use transform="matrix(0.07407407407407407,0,0,0.07407407407407407,17.77777777777778,0)" xlink:href="#C"/><use transform="matrix(0.07407407407407407,0,0,0.07407407407407407,25.185185185185183,0)" xlink:href="#D"/><use transform="matrix(0.07407407407407407,0,0,0.07407407407407407,48.888888888888886,0)" xlink:href="#E"/><use transform="matrix(0.07407407407407407,0,0,0.07407407407407407,65.11111111111111,0)" xlink:href="#F"/><use transform="matrix(0.07407407407407407,0,0,0.07407407407407407,72.51851851851852,0)" xlink:href="#G"/></g><path fill="#008573" d="M114-157C55-157 80-60 75 0H25v-261h50l-1 109c12-26 28-41 61-42 86-1 58 113 63 194h-50c-7-57 23-157-34-157" id="H"/><path fill="#008573" d="M135-150c-39-12-60 13-60 57V0H25l-1-190h47c2 13-1 29 3 40 6-28 27-53 61-41v41" id="I"/><path fill="#008573" d="M133-34C117-15 103 5 69 4 32 3 11-16 11-54c-1-60 55-63 116-61 1-26-3-47-28-47-18 1-26 9-28 27l-52-2c7-38 36-58 82-57s74 22 75 68l1 82c-1 14 12 18 25 15v27c-30 8-71 5-69-32zm-48 3c29 0 43-24 42-57-32 0-66-3-65 30 0 17 8 27 23 27" id="J"/><path fill="#008573" d="M190-63c-7 42-38 67-86 67-59 0-84-38-90-98-12-110 154-137 174-36l-49 2c-2-19-15-32-35-32-30 0-35 28-38 64-6 74 65 87 74 30" id="K"/><g id="b"><use transform="matrix(0.07407407407407407,0,0,0.07407407407407407,0,0)" xlink:href="#H"/><use transform="matrix(0.07407407407407407,0,0,0.07407407407407407,16.22222222222222,0)" xlink:href="#C"/><use transform="matrix(0.07407407407407407,0,0,0.07407407407407407,23.629629629629623,0)" xlink:href="#G"/><use transform="matrix(0.07407407407407407,0,0,0.07407407407407407,38.44444444444444,0)" xlink:href="#I"/><use transform="matrix(0.07407407407407407,0,0,0.07407407407407407,48.81481481481481,0)" xlink:href="#J"/><use transform="matrix(0.07407407407407407,0,0,0.07407407407407407,63.62962962962962,0)" xlink:href="#I"/><use transform="matrix(0.07407407407407407,0,0,0.07407407407407407,73.99999999999999,0)" xlink:href="#K"/><use transform="matrix(0.07407407407407407,0,0,0.07407407407407407,88.8148148148148,0)" xlink:href="#H"/><use transform="matrix(0.07407407407407407,0,0,0.07407407407407407,105.03703703703701,0)" xlink:href="#C"/><use transform="matrix(0.07407407407407407,0,0,0.07407407407407407,112.44444444444441,0)" xlink:href="#K"/><use transform="matrix(0.07407407407407407,0,0,0.07407407407407407,127.25925925925922,0)" xlink:href="#J"/><use transform="matrix(0.07407407407407407,0,0,0.07407407407407407,142.07407407407405,0)" xlink:href="#F"/></g><path fill="#008573" d="M110-194c64 0 96 36 96 99 0 64-35 99-97 99-61 0-95-36-95-99 0-62 34-99 96-99zm-1 164c35 0 45-28 45-65 0-40-10-65-43-65-34 0-45 26-45 65 0 36 10 65 43 65" id="L"/><path fill="#008573" d="M88-194c31-1 46 15 58 34l-1-101h50l1 261h-48c-2-10 0-23-3-31C134-8 116 4 84 4 32 4 16-41 15-95c0-56 19-97 73-99zm17 164c33 0 40-30 41-66 1-37-9-64-41-64s-38 30-39 65c0 43 13 65 39 65" id="M"/><g id="c"><use transform="matrix(0.07407407407407407,0,0,0.07407407407407407,0,0)" xlink:href="#D"/><use transform="matrix(0.07407407407407407,0,0,0.07407407407407407,23.703703703703702,0)" xlink:href="#L"/><use transform="matrix(0.07407407407407407,0,0,0.07407407407407407,39.925925925925924,0)" xlink:href="#M"/><use transform="matrix(0.07407407407407407,0,0,0.07407407407407407,56.148148148148145,0)" xlink:href="#G"/><use transform="matrix(0.07407407407407407,0,0,0.07407407407407407,70.96296296296296,0)" xlink:href="#F"/></g><path fill="#e81313" d="M67-125c0 53 21 87 73 88 37 1 54-22 65-47l45 17C233-25 199 4 140 4 58 4 20-42 15-125 8-235 124-281 211-232c18 10 29 29 36 50l-46 12c-8-25-30-41-62-41-52 0-71 34-72 86" id="N"/><path fill="#e81313" d="M110-194c64 0 96 36 96 99 0 64-35 99-97 99-61 0-95-36-95-99 0-62 34-99 96-99zm-1 164c35 0 45-28 45-65 0-40-10-65-43-65-34 0-45 26-45 65 0 36 10 65 43 65" id="O"/><path fill="#e81313" d="M220-157c-53 9-28 100-34 157h-49v-107c1-27-5-49-29-50C55-147 81-57 75 0H25l-1-190h47c2 12-1 28 3 38 10-53 101-56 108 0 13-22 24-43 59-42 82 1 51 116 57 194h-49v-107c-1-25-5-48-29-50" id="P"/><path fill="#e81313" d="M135-194c53 0 70 44 70 98 0 56-19 98-73 100-31 1-45-17-59-34 3 33 2 69 2 105H25l-1-265h48c2 10 0 23 3 31 11-24 29-35 60-35zM114-30c33 0 39-31 40-66 0-38-9-64-40-64-56 0-55 130 0 130" id="Q"/><path fill="#e81313" d="M25 0v-261h50V0H25" id="R"/><path fill="#e81313" d="M185-48c-13 30-37 53-82 52C43 2 14-33 14-96s30-98 90-98c62 0 83 45 84 108H66c0 31 8 55 39 56 18 0 30-7 34-22zm-45-69c5-46-57-63-70-21-2 6-4 13-4 21h74" id="S"/><path fill="#e81313" d="M144 0l-44-69L55 0H2l70-98-66-92h53l41 62 40-62h54l-67 91 71 99h-54" id="T"/><g id="d"><use transform="matrix(0.07407407407407407,0,0,0.07407407407407407,0,0)" xlink:href="#N"/><use transform="matrix(0.07407407407407407,0,0,0.07407407407407407,19.185185185185183,0)" xlink:href="#O"/><use transform="matrix(0.07407407407407407,0,0,0.07407407407407407,35.407407407407405,0)" xlink:href="#P"/><use transform="matrix(0.07407407407407407,0,0,0.07407407407407407,59.11111111111111,0)" xlink:href="#Q"/><use transform="matrix(0.07407407407407407,0,0,0.07407407407407407,75.33333333333333,0)" xlink:href="#R"/><use transform="matrix(0.07407407407407407,0,0,0.07407407407407407,82.74074074074073,0)" xlink:href="#S"/><use transform="matrix(0.07407407407407407,0,0,0.07407407407407407,97.55555555555556,0)" xlink:href="#T"/></g><path fill="#e81313" d="M114-157C55-157 80-60 75 0H25v-261h50l-1 109c12-26 28-41 61-42 86-1 58 113 63 194h-50c-7-57 23-157-34-157" id="U"/><path fill="#e81313" d="M25-224v-37h50v37H25zM25 0v-190h50V0H25" id="V"/><path fill="#e81313" d="M135-150c-39-12-60 13-60 57V0H25l-1-190h47c2 13-1 29 3 40 6-28 27-53 61-41v41" id="W"/><path fill="#e81313" d="M133-34C117-15 103 5 69 4 32 3 11-16 11-54c-1-60 55-63 116-61 1-26-3-47-28-47-18 1-26 9-28 27l-52-2c7-38 36-58 82-57s74 22 75 68l1 82c-1 14 12 18 25 15v27c-30 8-71 5-69-32zm-48 3c29 0 43-24 42-57-32 0-66-3-65 30 0 17 8 27 23 27" id="X"/><path fill="#e81313" d="M190-63c-7 42-38 67-86 67-59 0-84-38-90-98-12-110 154-137 174-36l-49 2c-2-19-15-32-35-32-30 0-35 28-38 64-6 74 65 87 74 30" id="Y"/><g id="e"><use transform="matrix(0.07407407407407407,0,0,0.07407407407407407,0,0)" xlink:href="#U"/><use transform="matrix(0.07407407407407407,0,0,0.07407407407407407,16.22222222222222,0)" xlink:href="#V"/><use transform="matrix(0.07407407407407407,0,0,0.07407407407407407,23.629629629629623,0)" xlink:href="#S"/><use transform="matrix(0.07407407407407407,0,0,0.07407407407407407,38.44444444444444,0)" xlink:href="#W"/><use transform="matrix(0.07407407407407407,0,0,0.07407407407407407,48.81481481481481,0)" xlink:href="#X"/><use transform="matrix(0.07407407407407407,0,0,0.07407407407407407,63.62962962962962,0)" xlink:href="#W"/><use transform="matrix(0.07407407407407407,0,0,0.07407407407407407,73.99999999999999,0)" xlink:href="#Y"/><use transform="matrix(0.07407407407407407,0,0,0.07407407407407407,88.8148148148148,0)" xlink:href="#U"/><use transform="matrix(0.07407407407407407,0,0,0.07407407407407407,105.03703703703701,0)" xlink:href="#V"/><use transform="matrix(0.07407407407407407,0,0,0.07407407407407407,112.44444444444441,0)" xlink:href="#Y"/><use transform="matrix(0.07407407407407407,0,0,0.07407407407407407,127.25925925925922,0)" xlink:href="#X"/><use transform="matrix(0.07407407407407407,0,0,0.07407407407407407,142.07407407407405,0)" xlink:href="#R"/></g><path fill="#e81313" d="M88-194c31-1 46 15 58 34l-1-101h50l1 261h-48c-2-10 0-23-3-31C134-8 116 4 84 4 32 4 16-41 15-95c0-56 19-97 73-99zm17 164c33 0 40-30 41-66 1-37-9-64-41-64s-38 30-39 65c0 43 13 65 39 65" id="Z"/><g id="f"><use transform="matrix(0.07407407407407407,0,0,0.07407407407407407,0,0)" xlink:href="#P"/><use transform="matrix(0.07407407407407407,0,0,0.07407407407407407,23.703703703703702,0)" xlink:href="#O"/><use transform="matrix(0.07407407407407407,0,0,0.07407407407407407,39.925925925925924,0)" xlink:href="#Z"/><use transform="matrix(0.07407407407407407,0,0,0.07407407407407407,56.148148148148145,0)" xlink:href="#S"/><use transform="matrix(0.07407407407407407,0,0,0.07407407407407407,70.96296296296296,0)" xlink:href="#R"/></g><path fill="#e81313" d="M231 0h-52l-39-155L100 0H48L-1-190h46L77-45c9-52 24-97 36-145h53l37 145 32-145h46" id="aa"/><path fill="#e81313" d="M115-3C79 11 28 4 28-45v-112H4v-33h27l15-45h31v45h36v33H77v99c-1 23 16 31 38 25v30" id="ab"/><g id="g"><use transform="matrix(0.07407407407407407,0,0,0.07407407407407407,0,0)" xlink:href="#aa"/><use transform="matrix(0.07407407407407407,0,0,0.07407407407407407,20.74074074074074,0)" xlink:href="#V"/><use transform="matrix(0.07407407407407407,0,0,0.07407407407407407,28.148148148148145,0)" xlink:href="#ab"/><use transform="matrix(0.07407407407407407,0,0,0.07407407407407407,36.96296296296296,0)" xlink:href="#U"/></g><path fill="#e81313" d="M85 4C-2 5 27-109 22-190h50c7 57-23 150 33 157 60-5 35-97 40-157h50l1 190h-47c-2-12 1-28-3-38-12 25-28 42-61 42" id="ac"/><path fill="#e81313" d="M137-138c1-29-70-34-71-4 15 46 118 7 119 86 1 83-164 76-172 9l43-7c4 19 20 25 44 25 33 8 57-30 24-41C81-84 22-81 20-136c-2-80 154-74 161-7" id="ad"/><path fill="#e81313" d="M128 0H69L1-190h53L99-40l48-150h52" id="ae"/><g id="h"><use transform="matrix(0.07407407407407407,0,0,0.07407407407407407,0,0)" xlink:href="#W"/><use transform="matrix(0.07407407407407407,0,0,0.07407407407407407,10.37037037037037,0)" xlink:href="#S"/><use transform="matrix(0.07407407407407407,0,0,0.07407407407407407,25.185185185185183,0)" xlink:href="#Y"/><use transform="matrix(0.07407407407407407,0,0,0.07407407407407407,40,0)" xlink:href="#ac"/><use transform="matrix(0.07407407407407407,0,0,0.07407407407407407,56.22222222222222,0)" xlink:href="#W"/><use transform="matrix(0.07407407407407407,0,0,0.07407407407407407,66.5925925925926,0)" xlink:href="#ad"/><use transform="matrix(0.07407407407407407,0,0,0.07407407407407407,81.4074074074074,0)" xlink:href="#V"/><use transform="matrix(0.07407407407407407,0,0,0.07407407407407407,88.81481481481481,0)" xlink:href="#ae"/><use transform="matrix(0.07407407407407407,0,0,0.07407407407407407,103.62962962962962,0)" xlink:href="#S"/></g><path fill="#e81313" d="M121-226c-27-7-43 5-38 36h38v33H83V0H34v-157H6v-33h28c-9-59 32-81 87-68v32" id="af"/><path fill="#e81313" d="M135-194c87-1 58 113 63 194h-50c-7-57 23-157-34-157-59 0-34 97-39 157H25l-1-190h47c2 12-1 28 3 38 12-26 28-41 61-42" id="ag"/><g id="i"><use transform="matrix(0.07407407407407407,0,0,0.07407407407407407,0,0)" xlink:href="#Z"/><use transform="matrix(0.07407407407407407,0,0,0.07407407407407407,16.22222222222222,0)" xlink:href="#S"/><use transform="matrix(0.07407407407407407,0,0,0.07407407407407407,31.037037037037035,0)" xlink:href="#af"/><use transform="matrix(0.07407407407407407,0,0,0.07407407407407407,39.85185185185185,0)" xlink:href="#V"/><use transform="matrix(0.07407407407407407,0,0,0.07407407407407407,47.259259259259245,0)" xlink:href="#ag"/><use transform="matrix(0.07407407407407407,0,0,0.07407407407407407,63.48148148148148,0)" xlink:href="#V"/><use transform="matrix(0.07407407407407407,0,0,0.07407407407407407,70.88888888888889,0)" xlink:href="#ab"/><use transform="matrix(0.07407407407407407,0,0,0.07407407407407407,79.7037037037037,0)" xlink:href="#V"/><use transform="matrix(0.07407407407407407,0,0,0.07407407407407407,87.1111111111111,0)" xlink:href="#O"/><use transform="matrix(0.07407407407407407,0,0,0.07407407407407407,103.33333333333331,0)" xlink:href="#ag"/></g><path fill="#e81313" d="M175 0L67-191c6 58 2 128 3 191H24v-248h59L193-55c-6-58-2-129-3-193h46V0h-61" id="ah"/><g id="k"><use transform="matrix(0.07407407407407407,0,0,0.07407407407407407,0,0)" xlink:href="#ah"/><use transform="matrix(0.07407407407407407,0,0,0.07407407407407407,19.185185185185183,0)" xlink:href="#O"/><use transform="matrix(0.07407407407407407,0,0,0.07407407407407407,35.407407407407405,0)" xlink:href="#ab"/><path fill="#e81313" d="M-1.33 1.43h54.3v2.8h-54.3z"/></g><path fill="#e81313" d="M123 10C108 53 80 86 19 72V37c35 8 53-11 59-39L3-190h52l48 148c12-52 28-100 44-148h51" id="ai"/><g id="l"><use transform="matrix(0.07407407407407407,0,0,0.07407407407407407,0,0)" xlink:href="#S"/><use transform="matrix(0.07407407407407407,0,0,0.07407407407407407,14.814814814814813,0)" xlink:href="#X"/><use transform="matrix(0.07407407407407407,0,0,0.07407407407407407,29.629629629629626,0)" xlink:href="#ad"/><use transform="matrix(0.07407407407407407,0,0,0.07407407407407407,44.44444444444444,0)" xlink:href="#ai"/><path fill="#e81313" d="M-1.33 1.43H68v2.8H-1.33z"/></g><g id="m"><use transform="matrix(0.07407407407407407,0,0,0.07407407407407407,0,0)" xlink:href="#ab"/><use transform="matrix(0.07407407407407407,0,0,0.07407407407407407,8.814814814814815,0)" xlink:href="#O"/><path fill="#e81313" d="M-1.33 1.43h35.1v2.8h-35.1z"/></g><g id="n"><use transform="matrix(0.07407407407407407,0,0,0.07407407407407407,0,0)" xlink:href="#P"/><use transform="matrix(0.07407407407407407,0,0,0.07407407407407407,23.703703703703702,0)" xlink:href="#O"/><use transform="matrix(0.07407407407407407,0,0,0.07407407407407407,39.925925925925924,0)" xlink:href="#Z"/><use transform="matrix(0.07407407407407407,0,0,0.07407407407407407,56.148148148148145,0)" xlink:href="#S"/><use transform="matrix(0.07407407407407407,0,0,0.07407407407407407,70.96296296296296,0)" xlink:href="#R"/><path fill="#e81313" d="M-1.33 1.43H87.1v2.8H-1.32z"/></g><g id="o"><use transform="matrix(0.07407407407407407,0,0,0.07407407407407407,0,0)" xlink:href="#aa"/><use transform="matrix(0.07407407407407407,0,0,0.07407407407407407,20.74074074074074,0)" xlink:href="#V"/><use transform="matrix(0.07407407407407407,0,0,0.07407407407407407,28.148148148148145,0)" xlink:href="#ab"/><use transform="matrix(0.07407407407407407,0,0,0.07407407407407407,36.96296296296296,0)" xlink:href="#U"/><path fill="#e81313" d="M-1.33 1.43h63.26v2.8H-1.33z"/></g><path fill="#e81313" d="M199 0l-22-63H83L61 0H9l90-248h61L250 0h-51zm-33-102l-36-108c-10 38-24 72-36 108h72" id="aj"/><g id="p"><use transform="matrix(0.07407407407407407,0,0,0.07407407407407407,0,0)" xlink:href="#aj"/><use transform="matrix(0.07407407407407407,0,0,0.07407407407407407,19.185185185185183,0)" xlink:href="#W"/><use transform="matrix(0.07407407407407407,0,0,0.07407407407407407,29.555555555555554,0)" xlink:href="#W"/><use transform="matrix(0.07407407407407407,0,0,0.07407407407407407,39.925925925925924,0)" xlink:href="#O"/><use transform="matrix(0.07407407407407407,0,0,0.07407407407407407,56.148148148148145,0)" xlink:href="#aa"/><path fill="#e81313" d="M-1.33 1.43h79.56v2.8H-1.33z"/></g><path fill="#008573" d="M199 0l-22-63H83L61 0H9l90-248h61L250 0h-51zm-33-102l-36-108c-10 38-24 72-36 108h72" id="ak"/><use transform="matrix(0.06172839506172839,0,0,0.06172839506172839,0,0)" xlink:href="#ak" id="r"/><filter id="q" filterUnits="objectBoundingBox" x="-.08" y="-.06" width="1.17" height="1.32"><feOffset result="offOut" in="SourceAlpha" dy="6"/><feGaussianBlur result="blurOut" in="offOut" stdDeviation="5"/><feColorMatrix result="colorOut" in="blurOut" values="0 0 0 0 0 0 0 0 0 0 0 0 0 0 0 0 0 0 0.5019607843137255 0"/><feBlend in="SourceGraphic" in2="colorOut"/></filter><path fill="#008573" d="M101-251c68 0 85 55 85 127S166 4 100 4C33 4 14-52 14-124c0-73 17-127 87-127zm-1 229c47 0 54-49 54-102s-4-102-53-102c-51 0-55 48-55 102 0 53 5 102 54 102" id="al"/><path fill="#008573" d="M33 0v-38h34V0H33" id="am"/><path fill="#008573" d="M27 0v-27h64v-190l-56 39v-29l58-41h29v221h61V0H27" id="an"/><g id="s"><use transform="matrix(0.05,0,0,0.05,0,0)" xlink:href="#al"/><use transform="matrix(0.05,0,0,0.05,10,0)" xlink:href="#am"/><use transform="matrix(0.05,0,0,0.05,15,0)" xlink:href="#am"/><use transform="matrix(0.05,0,0,0.05,20,0)" xlink:href="#an"/></g><path fill="#008573" d="M24-248c120-7 223 5 221 122C244-46 201 0 124 0H24v-248zM76-40c74 7 117-18 117-86 0-67-45-88-117-82v168" id="ao"/><use transform="matrix(0.06172839506172839,0,0,0.06172839506172839,0,0)" xlink:href="#ao" id="t"/><path fill="#008573" d="M80-196l47-18 7 23-49 13 32 44-20 13-27-46-27 45-21-12 33-44-49-13 8-23 47 19-2-53h23" id="ap"/><g id="u"><use transform="matrix(0.05,0,0,0.05,0,0)" xlink:href="#al"/><use transform="matrix(0.05,0,0,0.05,10,0)" xlink:href="#am"/><use transform="matrix(0.05,0,0,0.05,15,0)" xlink:href="#am"/><use transform="matrix(0.05,0,0,0.05,20,0)" xlink:href="#ap"/></g><path fill="#008573" d="M67-125c0 53 21 87 73 88 37 1 54-22 65-47l45 17C233-25 199 4 140 4 58 4 20-42 15-125 8-235 124-281 211-232c18 10 29 29 36 50l-46 12c-8-25-30-41-62-41-52 0-71 34-72 86" id="aq"/><use transform="matrix(0.06172839506172839,0,0,0.06172839506172839,0,0)" xlink:href="#aq" id="v"/><use transform="matrix(0.06172839506172839,0,0,0.06172839506172839,0,0)" xlink:href="#aj" id="w"/><path fill="#e81313" d="M101-251c68 0 85 55 85 127S166 4 100 4C33 4 14-52 14-124c0-73 17-127 87-127zm-1 229c47 0 54-49 54-102s-4-102-53-102c-51 0-55 48-55 102 0 53 5 102 54 102" id="ar"/><path fill="#e81313" d="M33 0v-38h34V0H33" id="as"/><path fill="#e81313" d="M27 0v-27h64v-190l-56 39v-29l58-41h29v221h61V0H27" id="at"/><g id="x"><use transform="matrix(0.05,0,0,0.05,0,0)" xlink:href="#ar"/><use transform="matrix(0.05,0,0,0.05,10,0)" xlink:href="#as"/><use transform="matrix(0.05,0,0,0.05,15,0)" xlink:href="#as"/><use transform="matrix(0.05,0,0,0.05,20,0)" xlink:href="#at"/></g><path fill="#e81313" d="M24-248c120-7 223 5 221 122C244-46 201 0 124 0H24v-248zM76-40c74 7 117-18 117-86 0-67-45-88-117-82v168" id="au"/><use transform="matrix(0.06172839506172839,0,0,0.06172839506172839,0,0)" xlink:href="#au" id="y"/><path fill="#e81313" d="M80-196l47-18 7 23-49 13 32 44-20 13-27-46-27 45-21-12 33-44-49-13 8-23 47 19-2-53h23" id="av"/><g id="z"><use transform="matrix(0.05,0,0,0.05,0,0)" xlink:href="#ar"/><use transform="matrix(0.05,0,0,0.05,10,0)" xlink:href="#as"/><use transform="matrix(0.05,0,0,0.05,15,0)" xlink:href="#as"/><use transform="matrix(0.05,0,0,0.05,20,0)" xlink:href="#av"/></g><use transform="matrix(0.06172839506172839,0,0,0.06172839506172839,0,0)" xlink:href="#N" id="A"/></defs></g></svg>