<svg xmlns="http://www.w3.org/2000/svg" xmlns:xlink="http://www.w3.org/1999/xlink" xmlns:lucid="lucid" width="800" height="600"><g transform="translate(0 0)" lucid:page-tab-id="fKyXq-xLtJEi"><path d="M0 0h800v600H0z" fill="#fff"/><path d="M262.5 6a6 6 0 0 1 6-6h88a6 6 0 0 1 6 6v588a6 6 0 0 1-6 6h-88a6 6 0 0 1-6-6z" stroke="#3a414a" fill="#fff"/><use xlink:href="#a" transform="matrix(1,0,0,1,267.5,5) translate(1.7633333333333425 288.83166666666665)"/><use xlink:href="#b" transform="matrix(1,0,0,1,267.5,5) translate(19.348888888888894 326.16499999999996)"/><path d="M450 6a6 6 0 0 1 6-6h88a6 6 0 0 1 6 6v288a6 6 0 0 1-6 6h-88a6 6 0 0 1-6-6z" stroke="#3a414a" fill="#fff"/><use xlink:href="#c" transform="matrix(1,0,0,1,455,5) translate(4.921111111111124 103.20666666666666)"/><use xlink:href="#d" transform="matrix(1,0,0,1,455,5) translate(16.17555555555556 140.54)"/><use xlink:href="#e" transform="matrix(1,0,0,1,455,5) translate(1.7633333333333425 177.8733333333333)"/><use xlink:href="#f" transform="matrix(1,0,0,1,455,5) translate(0.09111111111111825 215.20666666666665)"/><path d="M699 6a6 6 0 0 1 6-6h88a6 6 0 0 1 6 6v288a6 6 0 0 1-6 6h-88a6 6 0 0 1-6-6z" stroke="#3a414a" fill="#fff"/><use xlink:href="#g" transform="matrix(1,0,0,1,704,5) translate(23.237777777777783 157.58166666666665)"/><path d="M0 276a6 6 0 0 1 6-6h163a6 6 0 0 1 6 6v48a6 6 0 0 1-6 6H6a6 6 0 0 1-6-6z" stroke="#000" stroke-opacity="0" stroke-width="2" fill="#fff" fill-opacity="0"/><use xlink:href="#h" transform="matrix(1,0,0,1,5,275) translate(-1.9320987654320874 31.22222222222222)"/><path d="M87.5 269.04V158a6 6 0 0 1 6-6h150.02" stroke="#3a414a" stroke-width="2" fill="none"/><path d="M88.5 270.04h-2V269h2z" stroke="#3a414a" stroke-width=".05" fill="#3a414a"/><path d="M258.78 152l-14.26 4.64v-9.28z" stroke="#3a414a" stroke-width="2" fill="#3a414a"/><path d="M261.06 450.23H93.5a6 6 0 0 1-6-6v-95.76" stroke="#3a414a" stroke-width="2" fill="none"/><path d="M262.06 451.23h-1.03v-2h1.03z" stroke="#3a414a" stroke-width=".05" fill="#3a414a"/><path d="M87.5 333.2l4.64 14.27h-9.28z" stroke="#3a414a" stroke-width="2" fill="#3a414a"/><path d="M62.75 118a6 6 0 0 1 6-6h212.5a6 6 0 0 1 6 6v62a6 6 0 0 1-6 6H68.75a6 6 0 0 1-6-6z" stroke="#000" stroke-opacity="0" stroke-width="2" fill="#fff" fill-opacity="0"/><use xlink:href="#i" transform="matrix(1,0,0,1,67.75,117) translate(65.7962962962963 25.33333333333333)"/><use xlink:href="#j" transform="matrix(1,0,0,1,67.75,117) translate(125.57407407407406 25.33333333333333)"/><use xlink:href="#k" transform="matrix(1,0,0,1,67.75,117) translate(54.9814814814815 57.33333333333332)"/><path d="M100 456a6 6 0 0 1 6-6h138a6 6 0 0 1 6 6v13a6 6 0 0 1-6 6H106a6 6 0 0 1-6-6z" stroke="#000" stroke-opacity="0" stroke-width="2" fill="#fff" fill-opacity="0"/><use xlink:href="#l" transform="matrix(1,0,0,1,105,455) translate(5.6666666666667 21.33333333333333)"/><use xlink:href="#m" transform="matrix(1,0,0,1,105,455) translate(82.48148148148148 21.33333333333333)"/><path d="M450 306a6 6 0 0 1 6-6h88a6 6 0 0 1 6 6v288a6 6 0 0 1-6 6h-88a6 6 0 0 1-6-6z" stroke="#3a414a" fill="#fff"/><use xlink:href="#n" transform="matrix(1,0,0,1,455,305) translate(10.038888888888891 121.33166666666666)"/><use xlink:href="#o" transform="matrix(1,0,0,1,455,305) translate(1.7633333333333425 158.665)"/><use xlink:href="#f" transform="matrix(1,0,0,1,455,305) translate(0.09111111111111825 195.9983333333333)"/><path d="M699 306a6 6 0 0 1 6-6h88a6 6 0 0 1 6 6v288a6 6 0 0 1-6 6h-88a6 6 0 0 1-6-6z" stroke="#3a414a" fill="#fff"/><use xlink:href="#p" transform="matrix(6.123233995736766e-17,1,-1,6.123233995736766e-17,794,305) translate(84.33333333333336 56.01916666666666)"/><path d="M568.97 150h111.06" stroke="#3a414a" stroke-width="2" fill="none"/><path d="M553.7 150l14.27-4.64v9.28zM695.3 150l-14.27 4.64v-9.28z" stroke="#3a414a" stroke-width="2" fill="#3a414a"/><path d="M568.97 450h111.06" stroke="#3a414a" stroke-width="2" fill="none"/><path d="M553.7 450l14.27-4.64v9.28zM695.3 450l-14.27 4.64v-9.28z" stroke="#3a414a" stroke-width="2" fill="#3a414a"/><path d="M549 113a6 6 0 0 1 6-6h138a6 6 0 0 1 6 6v31a6 6 0 0 1-6 6H555a6 6 0 0 1-6-6z" stroke="#000" stroke-opacity="0" stroke-width="2" fill="#fff" fill-opacity="0"/><use xlink:href="#q" transform="matrix(1,0,0,1,554,112.00000000000006) translate(7.648148148148174 23.39583333333333)"/><use xlink:href="#r" transform="matrix(1,0,0,1,554,112.00000000000006) translate(80.0185185185185 23.39583333333333)"/><path d="M549 156a6 6 0 0 1 6-6h138a6 6 0 0 1 6 6v31a6 6 0 0 1-6 6H555a6 6 0 0 1-6-6z" stroke="#000" stroke-opacity="0" stroke-width="2" fill="#fff" fill-opacity="0"/><use xlink:href="#l" transform="matrix(1,0,0,1,554,155) translate(6.1666666666667 23.39583333333333)"/><use xlink:href="#m" transform="matrix(1,0,0,1,554,155) translate(82.98148148148148 23.39583333333333)"/><path d="M550 406a6 6 0 0 1 6-6h137a6 6 0 0 1 6 6v86.88a6 6 0 0 1-6 6H556a6 6 0 0 1-6-6z" stroke="#000" stroke-opacity="0" stroke-width="2" fill="#fff" fill-opacity="0"/><g><use xlink:href="#s" transform="matrix(1,0,0,1,555,405) translate(17.444444444444464 32.45833333333333)"/><use xlink:href="#t" transform="matrix(1,0,0,1,555,405) translate(22.666666666666686 64.45833333333331)"/></g><path d="M448.54 150h-84.6" stroke="#3a414a" stroke-width="2" fill="none"/><path d="M449.54 151h-1.03v-2h1.04zM363.97 151h-1.03v-2h1.03z" stroke="#3a414a" stroke-width=".05" fill="#3a414a"/><path d="M448.54 450h-84.56" stroke="#3a414a" stroke-width="2" fill="none"/><path d="M449.54 451h-1.03v-2h1.04zM364 451H363v-2H364z" stroke="#3a414a" stroke-width=".05" fill="#3a414a"/><path d="M362.5 368.78a6 6 0 0 1 6-6H444a6 6 0 0 1 6 6v87.44a6 6 0 0 1-6 6h-75.5a6 6 0 0 1-6-6z" stroke="#000" stroke-opacity="0" stroke-width="2" fill="#fff" fill-opacity="0"/><g><use xlink:href="#u" transform="matrix(1,0,0,1,367.5,367.78125) translate(15.57407407407409 23.402777777777768)"/><use xlink:href="#v" transform="matrix(1,0,0,1,367.5,367.78125) translate(2.024691358024725 50.069444444444414)"/><use xlink:href="#w" transform="matrix(1,0,0,1,367.5,367.78125) translate(18.660493827160508 76.73611111111107)"/></g><defs><path fill="#3a414a" d="M1417 0h-208c-47 1-77-28-90-61l-108-295H412L304-61c-11 30-46 61-89 61H6l568-1446h275zM481-546h461c-77-218-163-424-231-651-66 230-154 432-230 651" id="x"/><path fill="#3a414a" d="M1377-1015c71 172 71 412 0 584C1271-174 1052 0 698 0H146v-1446h552c353 6 574 175 679 431zM698-214c307-9 457-198 457-509s-150-500-457-509H417v1018h281" id="y"/><path fill="#3a414a" d="M1177-1061c0 181-116 262-257 314 199 45 298 152 298 322C1218-130 997 0 692 0H146v-1446h499c307 3 532 89 532 385zM952-431c0-152-108-202-265-203H415v424h273c163-1 264-65 264-221zm-43-598c0-163-94-209-264-209H415v418h215c168-1 279-50 279-209" id="z"/><path fill="#3a414a" d="M1284-209C1170-69 1008 19 759 16c-347-4-553-182-649-442-66-178-66-423 6-596 108-261 330-435 688-440 220-3 375 79 488 188l-90 125c-16 32-68 39-102 12-71-55-162-101-298-96-304 11-465 201-465 510 0 241 101 401 267 477 125 58 330 39 424-24 42-17 97-111 150-54" id="A"/><g id="a"><use transform="matrix(0.015555555555555552,0,0,0.015555555555555552,0,0)" xlink:href="#x"/><use transform="matrix(0.015555555555555552,0,0,0.015555555555555552,22.088888888888885,0)" xlink:href="#y"/><use transform="matrix(0.015555555555555552,0,0,0.015555555555555552,45.344444444444434,0)" xlink:href="#z"/><use transform="matrix(0.015555555555555552,0,0,0.015555555555555552,65.61333333333332,0)" xlink:href="#A"/></g><path fill="#3a414a" d="M1187-985c0 329-222 471-561 476H424V0H155v-1446h471c337 4 561 134 561 461zm-269 0c0-176-112-253-292-253H424v519h202c184-1 292-85 292-266" id="B"/><path fill="#3a414a" d="M449 0H179v-1446h270V0" id="C"/><g id="b"><use transform="matrix(0.015555555555555552,0,0,0.015555555555555552,0,0)" xlink:href="#x"/><use transform="matrix(0.015555555555555552,0,0,0.015555555555555552,22.088888888888885,0)" xlink:href="#B"/><use transform="matrix(0.015555555555555552,0,0,0.015555555555555552,41.533333333333324,0)" xlink:href="#C"/></g><path fill="#3a414a" d="M1058-1446v214H417v428h541v215H417V0H146v-1446h912" id="D"/><path fill="#3a414a" d="M395-1486V0H148v-1486h247" id="E"/><path fill="#3a414a" d="M395-1026V0H148v-1026h247zm-123-457c96 0 160 62 160 158 0 94-65 155-160 155-93 0-156-62-156-155 0-95 61-158 156-158" id="F"/><path fill="#3a414a" d="M247-436C153-487 80-575 80-712c0-228 174-332 407-332 92 0 169 20 230 53h295c-4 63 19 133-53 146l-92 17c30 74 25 184-9 254-72 146-265 223-484 183-51 27-68 81-20 111 145 54 395 5 528 91 60 38 108 95 104 193-8 182-136 275-286 326-172 59-444 28-556-52C83 234 32 179 32 90c0-112 77-164 166-199-49-28-87-70-84-147 4-94 65-143 133-180zm247 621c132 0 252-20 264-139-10-98-129-93-228-102-63-6-132-5-191-13-47 27-93 62-93 127 0 112 123 127 248 127zM305-706c0 111 68 168 182 168s182-56 182-168c0-107-68-165-182-165s-182 58-182 165" id="G"/><path fill="#3a414a" d="M605-850c-102 1-168 52-226 108V0H132v-1486h247v571c76-69 161-129 301-127 234 4 346 154 346 389V0H779v-653c0-121-55-198-174-197" id="H"/><path fill="#3a414a" d="M738-75c-64 55-158 90-269 91-176 2-277-109-277-284v-573c-65-4-153 21-153-52v-98l165-27 52-280c10-66 115-35 183-42v323h270v176H439v556c-1 59 32 101 88 102 48 1 68-25 104-34 19 1 25 9 33 22" id="I"/><g id="c"><use transform="matrix(0.015555555555555552,0,0,0.015555555555555552,0,0)" xlink:href="#D"/><use transform="matrix(0.015555555555555552,0,0,0.015555555555555552,17.468888888888884,0)" xlink:href="#E"/><use transform="matrix(0.015555555555555552,0,0,0.015555555555555552,25.89999999999999,0)" xlink:href="#F"/><use transform="matrix(0.015555555555555552,0,0,0.015555555555555552,34.3311111111111,0)" xlink:href="#G"/><use transform="matrix(0.015555555555555552,0,0,0.015555555555555552,50.43111111111109,0)" xlink:href="#H"/><use transform="matrix(0.015555555555555552,0,0,0.015555555555555552,68.11777777777776,0)" xlink:href="#I"/></g><path fill="#3a414a" d="M519-204c146 0 246-70 241-211-6-175-195-185-333-232-183-63-339-153-333-400 5-199 120-319 272-380 126-51 311-44 437 5 72 27 133 64 184 112l-66 127c-15 40-64 51-105 25-64-41-136-87-246-85-132 3-224 54-224 182 0 167 202 176 334 227 173 67 333 144 333 381 0 227-120 364-289 433-138 56-353 39-478-16-80-35-154-80-210-138l78-129c23-34 74-43 115-13 73 54 157 112 290 112" id="J"/><path fill="#3a414a" d="M1017-12C856 33 646 21 502-40 246-150 67-370 67-723c0-352 179-575 435-683 175-74 424-75 598 0 256 109 433 330 433 683 0 290-121 480-292 606l367 400c-141-8-303 23-379-61zM801-214c307 0 456-198 456-509s-149-510-456-510c-308 0-459 198-459 510s152 509 459 509" id="K"/><path fill="#3a414a" d="M415-222h579V0H146v-1446h269v1224" id="L"/><g id="d"><use transform="matrix(0.015555555555555552,0,0,0.015555555555555552,0,0)" xlink:href="#J"/><use transform="matrix(0.015555555555555552,0,0,0.015555555555555552,16.691111111111105,0)" xlink:href="#K"/><use transform="matrix(0.015555555555555552,0,0,0.015555555555555552,41.56444444444443,0)" xlink:href="#L"/></g><g id="e"><use transform="matrix(0.015555555555555552,0,0,0.015555555555555552,0,0)" xlink:href="#x"/><use transform="matrix(0.015555555555555552,0,0,0.015555555555555552,22.088888888888885,0)" xlink:href="#y"/><use transform="matrix(0.015555555555555552,0,0,0.015555555555555552,45.344444444444434,0)" xlink:href="#z"/><use transform="matrix(0.015555555555555552,0,0,0.015555555555555552,65.61333333333332,0)" xlink:href="#A"/></g><path fill="#3a414a" d="M604-806c-122 5-180 74-225 167V0H132v-1026c83 11 206-35 218 62l15 124c63-106 147-205 295-205 51 0 93 12 126 35l-32 185c-4 23-15 33-40 33-33 0-65-16-110-14" id="M"/><path fill="#3a414a" d="M646 0H422L14-1026h205c36-1 62 20 71 46 75 215 159 421 226 642 9 30 15 61 21 92 13-66 27-126 50-186l203-548c9-25 34-46 68-46h195" id="N"/><path fill="#3a414a" d="M991-153C899-47 760 15 568 15 237 15 63-197 63-535c0-237 116-392 287-467 61-27 129-40 206-40 287 0 444 174 444 465 0 54-3 95-57 95H309c4 226 158 349 385 292 52-13 93-39 132-62 32-19 73-16 93 9zM778-631c-4-143-73-234-217-234-154 0-226 95-247 234h464" id="O"/><g id="f"><use transform="matrix(0.015555555555555552,0,0,0.015555555555555552,0,0)" xlink:href="#y"/><use transform="matrix(0.015555555555555552,0,0,0.015555555555555552,23.25555555555555,0)" xlink:href="#M"/><use transform="matrix(0.015555555555555552,0,0,0.015555555555555552,35.96444444444444,0)" xlink:href="#F"/><use transform="matrix(0.015555555555555552,0,0,0.015555555555555552,44.395555555555546,0)" xlink:href="#N"/><use transform="matrix(0.015555555555555552,0,0,0.015555555555555552,60.47999999999999,0)" xlink:href="#O"/><use transform="matrix(0.015555555555555552,0,0,0.015555555555555552,77.10888888888887,0)" xlink:href="#M"/></g><g id="g"><use transform="matrix(0.015555555555555552,0,0,0.015555555555555552,0,0)" xlink:href="#y"/><use transform="matrix(0.015555555555555552,0,0,0.015555555555555552,23.25555555555555,0)" xlink:href="#z"/></g><path fill="#3a414a" d="M199 0l-22-63H83L61 0H9l90-248h61L250 0h-51zm-33-102l-36-108c-10 38-24 72-36 108h72" id="P"/><path fill="#3a414a" d="M135-194c53 0 70 44 70 98 0 56-19 98-73 100-31 1-45-17-59-34 3 33 2 69 2 105H25l-1-265h48c2 10 0 23 3 31 11-24 29-35 60-35zM114-30c33 0 39-31 40-66 0-38-9-64-40-64-56 0-55 130 0 130" id="Q"/><path fill="#3a414a" d="M25 0v-261h50V0H25" id="R"/><path fill="#3a414a" d="M25-224v-37h50v37H25zM25 0v-190h50V0H25" id="S"/><path fill="#3a414a" d="M190-63c-7 42-38 67-86 67-59 0-84-38-90-98-12-110 154-137 174-36l-49 2c-2-19-15-32-35-32-30 0-35 28-38 64-6 74 65 87 74 30" id="T"/><path fill="#3a414a" d="M133-34C117-15 103 5 69 4 32 3 11-16 11-54c-1-60 55-63 116-61 1-26-3-47-28-47-18 1-26 9-28 27l-52-2c7-38 36-58 82-57s74 22 75 68l1 82c-1 14 12 18 25 15v27c-30 8-71 5-69-32zm-48 3c29 0 43-24 42-57-32 0-66-3-65 30 0 17 8 27 23 27" id="U"/><path fill="#3a414a" d="M115-3C79 11 28 4 28-45v-112H4v-33h27l15-45h31v45h36v33H77v99c-1 23 16 31 38 25v30" id="V"/><path fill="#3a414a" d="M110-194c64 0 96 36 96 99 0 64-35 99-97 99-61 0-95-36-95-99 0-62 34-99 96-99zm-1 164c35 0 45-28 45-65 0-40-10-65-43-65-34 0-45 26-45 65 0 36 10 65 43 65" id="W"/><path fill="#3a414a" d="M135-194c87-1 58 113 63 194h-50c-7-57 23-157-34-157-59 0-34 97-39 157H25l-1-190h47c2 12-1 28 3 38 12-26 28-41 61-42" id="X"/><g id="h"><use transform="matrix(0.08641975308641973,0,0,0.08641975308641973,0,0)" xlink:href="#P"/><use transform="matrix(0.08641975308641973,0,0,0.08641975308641973,22.38271604938271,0)" xlink:href="#Q"/><use transform="matrix(0.08641975308641973,0,0,0.08641975308641973,41.30864197530863,0)" xlink:href="#Q"/><use transform="matrix(0.08641975308641973,0,0,0.08641975308641973,60.234567901234556,0)" xlink:href="#R"/><use transform="matrix(0.08641975308641973,0,0,0.08641975308641973,68.87654320987653,0)" xlink:href="#S"/><use transform="matrix(0.08641975308641973,0,0,0.08641975308641973,77.5185185185185,0)" xlink:href="#T"/><use transform="matrix(0.08641975308641973,0,0,0.08641975308641973,94.80246913580245,0)" xlink:href="#U"/><use transform="matrix(0.08641975308641973,0,0,0.08641975308641973,112.08641975308639,0)" xlink:href="#V"/><use transform="matrix(0.08641975308641973,0,0,0.08641975308641973,122.37037037037034,0)" xlink:href="#S"/><use transform="matrix(0.08641975308641973,0,0,0.08641975308641973,131.01234567901233,0)" xlink:href="#W"/><use transform="matrix(0.08641975308641973,0,0,0.08641975308641973,149.93827160493825,0)" xlink:href="#X"/></g><path fill="#3a414a" d="M185-189c-5-48-123-54-124 2 14 75 158 14 163 119 3 78-121 87-175 55-17-10-28-26-33-46l33-7c5 56 141 63 141-1 0-78-155-14-162-118-5-82 145-84 179-34 5 7 8 16 11 25" id="Y"/><path fill="#3a414a" d="M140-251c81 0 123 46 123 126C263-53 228-8 163 1c7 30 30 48 69 40v23c-55 16-95-15-103-61C56-3 17-48 17-125c0-80 42-126 123-126zm0 227c63 0 89-41 89-101s-29-99-89-99c-61 0-89 39-89 99S79-25 140-24" id="Z"/><path fill="#3a414a" d="M30 0v-248h33v221h125V0H30" id="aa"/><g id="i"><use transform="matrix(0.07407407407407404,0,0,0.07407407407407404,0,0)" xlink:href="#Y"/><use transform="matrix(0.07407407407407404,0,0,0.07407407407407404,17.77777777777777,0)" xlink:href="#Z"/><use transform="matrix(0.07407407407407404,0,0,0.07407407407407404,38.518518518518505,0)" xlink:href="#aa"/></g><path fill="#3a414a" d="M100-194c62-1 85 37 85 99 1 63-27 99-86 99S16-35 15-95c0-66 28-99 85-99zM99-20c44 1 53-31 53-75 0-43-8-75-51-75s-53 32-53 75 10 74 51 75" id="ab"/><path fill="#3a414a" d="M114-163C36-179 61-72 57 0H25l-1-190h30c1 12-1 29 2 39 6-27 23-49 58-41v29" id="ac"/><g id="j"><use transform="matrix(0.07407407407407404,0,0,0.07407407407407404,0,0)" xlink:href="#ab"/><use transform="matrix(0.07407407407407404,0,0,0.07407407407407404,14.814814814814808,0)" xlink:href="#ac"/></g><path fill="#3a414a" d="M84 4C-5 8 30-112 23-190h32v120c0 31 7 50 39 49 72-2 45-101 50-169h31l1 190h-30c-1-10 1-25-2-33-11 22-28 36-60 37" id="ad"/><path fill="#3a414a" d="M115-194c53 0 69 39 70 98 0 66-23 100-70 100C84 3 66-7 56-30L54 0H23l1-261h32v101c10-23 28-34 59-34zm-8 174c40 0 45-34 45-75 0-40-5-75-45-74-42 0-51 32-51 76 0 43 10 73 51 73" id="ae"/><path fill="#3a414a" d="M135-143c-3-34-86-38-87 0 15 53 115 12 119 90S17 21 10-45l28-5c4 36 97 45 98 0-10-56-113-15-118-90-4-57 82-63 122-42 12 7 21 19 24 35" id="af"/><path fill="#3a414a" d="M59-47c-2 24 18 29 38 22v24C64 9 27 4 27-40v-127H5v-23h24l9-43h21v43h35v23H59v120" id="ag"/><path fill="#3a414a" d="M141-36C126-15 110 5 73 4 37 3 15-17 15-53c-1-64 63-63 125-63 3-35-9-54-41-54-24 1-41 7-42 31l-33-3c5-37 33-52 76-52 45 0 72 20 72 64v82c-1 20 7 32 28 27v20c-31 9-61-2-59-35zM48-53c0 20 12 33 32 33 41-3 63-29 60-74-43 2-92-5-92 41" id="ah"/><path fill="#3a414a" d="M24-231v-30h32v30H24zM24 0v-190h32V0H24" id="ai"/><g id="k"><use transform="matrix(0.07407407407407404,0,0,0.07407407407407404,0,0)" xlink:href="#Y"/><use transform="matrix(0.07407407407407404,0,0,0.07407407407407404,17.77777777777777,0)" xlink:href="#ad"/><use transform="matrix(0.07407407407407404,0,0,0.07407407407407404,32.59259259259258,0)" xlink:href="#ae"/><use transform="matrix(0.07407407407407404,0,0,0.07407407407407404,47.40740740740739,0)" xlink:href="#af"/><use transform="matrix(0.07407407407407404,0,0,0.07407407407407404,60.740740740740726,0)" xlink:href="#ag"/><use transform="matrix(0.07407407407407404,0,0,0.07407407407407404,68.14814814814812,0)" xlink:href="#ac"/><use transform="matrix(0.07407407407407404,0,0,0.07407407407407404,76.96296296296293,0)" xlink:href="#ah"/><use transform="matrix(0.07407407407407404,0,0,0.07407407407407404,91.77777777777774,0)" xlink:href="#ai"/><use transform="matrix(0.07407407407407404,0,0,0.07407407407407404,97.62962962962959,0)" xlink:href="#ag"/></g><path fill="#3a414a" d="M205 0l-28-72H64L36 0H1l101-248h38L239 0h-34zm-38-99l-47-123c-12 45-31 82-46 123h93" id="aj"/><path fill="#3a414a" d="M206 0h-36l-40-164L89 0H53L-1-190h32L70-26l43-164h34l41 164 42-164h31" id="ak"/><g id="l"><use transform="matrix(0.07407407407407404,0,0,0.07407407407407404,0,0)" xlink:href="#aj"/><use transform="matrix(0.07407407407407404,0,0,0.07407407407407404,17.77777777777777,0)" xlink:href="#ac"/><use transform="matrix(0.07407407407407404,0,0,0.07407407407407404,26.59259259259258,0)" xlink:href="#ac"/><use transform="matrix(0.07407407407407404,0,0,0.07407407407407404,35.40740740740739,0)" xlink:href="#ab"/><use transform="matrix(0.07407407407407404,0,0,0.07407407407407404,50.2222222222222,0)" xlink:href="#ak"/></g><path fill="#3a414a" d="M85-194c31 0 48 13 60 33l-1-100h32l1 261h-30c-2-10 0-23-3-31C134-8 116 4 85 4 32 4 16-35 15-94c0-66 23-100 70-100zm9 24c-40 0-46 34-46 75 0 40 6 74 45 74 42 0 51-32 51-76 0-42-9-74-50-73" id="al"/><g id="m"><use transform="matrix(0.07407407407407404,0,0,0.07407407407407404,0,0)" xlink:href="#al"/><use transform="matrix(0.07407407407407404,0,0,0.07407407407407404,14.814814814814808,0)" xlink:href="#ah"/><use transform="matrix(0.07407407407407404,0,0,0.07407407407407404,29.629629629629616,0)" xlink:href="#ag"/><use transform="matrix(0.07407407407407404,0,0,0.07407407407407404,37.03703703703702,0)" xlink:href="#ah"/></g><path fill="#3a414a" d="M638 15c-134 0-208-58-269-132-10 52-5 117-71 117H135v-1486h247v586c77-79 169-142 318-142 277 0 379 230 379 521 0 241-97 412-259 495-54 27-115 41-182 41zm186-536c0-181-37-329-209-329-117 0-175 55-233 124v460c48 61 104 93 199 93 187 0 243-152 243-348" id="am"/><path fill="#3a414a" d="M635 15C514 15 442-25 379-85v420H132v-1361c64 5 145-11 192 11 33 24 28 86 42 129 78-86 174-159 331-159 277 0 379 232 379 524 0 241-96 412-258 495-54 27-116 41-183 41zm186-536c0-181-37-329-209-329-117 0-175 55-233 124v460c48 60 104 93 198 93 188 0 244-152 244-348" id="an"/><path fill="#3a414a" d="M502-1045c133 0 212 52 276 121 10-48 14-102 76-102h151V335H758v-464C682-50 591 15 441 15 163 15 61-217 61-510c0-241 98-411 259-494 54-27 115-41 182-41zM316-510c0 181 36 329 209 329 118 0 173-54 233-123v-460c-48-59-104-93-198-93-188 0-244 151-244 347" id="ao"/><g id="n"><use transform="matrix(0.015555555555555552,0,0,0.015555555555555552,0,0)" xlink:href="#E"/><use transform="matrix(0.015555555555555552,0,0,0.015555555555555552,8.43111111111111,0)" xlink:href="#F"/><use transform="matrix(0.015555555555555552,0,0,0.015555555555555552,16.86222222222222,0)" xlink:href="#am"/><use transform="matrix(0.015555555555555552,0,0,0.015555555555555552,34.59555555555555,0)" xlink:href="#an"/><use transform="matrix(0.015555555555555552,0,0,0.015555555555555552,52.18888888888888,0)" xlink:href="#ao"/></g><g id="o"><use transform="matrix(0.015555555555555552,0,0,0.015555555555555552,0,0)" xlink:href="#x"/><use transform="matrix(0.015555555555555552,0,0,0.015555555555555552,22.088888888888885,0)" xlink:href="#y"/><use transform="matrix(0.015555555555555552,0,0,0.015555555555555552,45.344444444444434,0)" xlink:href="#z"/><use transform="matrix(0.015555555555555552,0,0,0.015555555555555552,65.61333333333332,0)" xlink:href="#A"/></g><path fill="#3a414a" d="M361-1005c121-49 297-49 417 0 184 74 298 236 298 490 0 330-178 530-506 530C241 15 61-185 61-515c0-254 115-416 300-490zm-45 492c0 201 65 338 254 338 188 0 251-137 251-338s-63-340-251-340c-189 0-254 139-254 340" id="ap"/><path fill="#3a414a" d="M254-198c95 60 334 64 323-83-9-119-156-122-253-159C192-490 72-550 72-729c0-214 163-309 387-313 145-3 264 55 338 127-26 36-45 82-77 111-69 21-111-33-176-48-103-23-247 0-238 102 11 114 156 118 251 155 126 49 251 100 251 270C808-59 575 48 294 6 192-9 106-54 42-110c28-39 43-95 83-120 49-31 96 11 129 32" id="aq"/><g id="p"><use transform="matrix(0.015555555555555552,0,0,0.015555555555555552,0,0)" xlink:href="#B"/><use transform="matrix(0.015555555555555552,0,0,0.015555555555555552,18.977777777777774,0)" xlink:href="#ap"/><use transform="matrix(0.015555555555555552,0,0,0.015555555555555552,36.66444444444444,0)" xlink:href="#aq"/><use transform="matrix(0.015555555555555552,0,0,0.015555555555555552,50.25999999999999,0)" xlink:href="#I"/><use transform="matrix(0.015555555555555552,0,0,0.015555555555555552,62.29999999999999,0)" xlink:href="#G"/><use transform="matrix(0.015555555555555552,0,0,0.015555555555555552,78.39999999999998,0)" xlink:href="#M"/><use transform="matrix(0.015555555555555552,0,0,0.015555555555555552,91.10888888888886,0)" xlink:href="#O"/><use transform="matrix(0.015555555555555552,0,0,0.015555555555555552,107.73777777777774,0)" xlink:href="#aq"/></g><path fill="#3a414a" d="M63-220v92h138v28H63V0H30v-248h175v28H63" id="ar"/><path fill="#3a414a" d="M24 0v-261h32V0H24" id="as"/><path fill="#3a414a" d="M177-190C167-65 218 103 67 71c-23-6-38-20-44-43l32-5c15 47 100 32 89-28v-30C133-14 115 1 83 1 29 1 15-40 15-95c0-56 16-97 71-98 29-1 48 16 59 35 1-10 0-23 2-32h30zM94-22c36 0 50-32 50-73 0-42-14-75-50-75-39 0-46 34-46 75s6 73 46 73" id="at"/><path fill="#3a414a" d="M106-169C34-169 62-67 57 0H25v-261h32l-1 103c12-21 28-36 61-36 89 0 53 116 60 194h-32v-121c2-32-8-49-39-48" id="au"/><g id="q"><use transform="matrix(0.07407407407407404,0,0,0.07407407407407404,0,0)" xlink:href="#ar"/><use transform="matrix(0.07407407407407404,0,0,0.07407407407407404,16.222222222222214,0)" xlink:href="#as"/><use transform="matrix(0.07407407407407404,0,0,0.07407407407407404,22.074074074074062,0)" xlink:href="#ai"/><use transform="matrix(0.07407407407407404,0,0,0.07407407407407404,27.92592592592591,0)" xlink:href="#at"/><use transform="matrix(0.07407407407407404,0,0,0.07407407407407404,42.74074074074072,0)" xlink:href="#au"/><use transform="matrix(0.07407407407407404,0,0,0.07407407407407404,57.55555555555553,0)" xlink:href="#ag"/></g><g id="r"><use transform="matrix(0.07407407407407404,0,0,0.07407407407407404,0,0)" xlink:href="#Y"/><use transform="matrix(0.07407407407407404,0,0,0.07407407407407404,17.77777777777777,0)" xlink:href="#Z"/><use transform="matrix(0.07407407407407404,0,0,0.07407407407407404,38.518518518518505,0)" xlink:href="#aa"/></g><path fill="#3a414a" d="M30-248c87 1 191-15 191 75 0 78-77 80-158 76V0H30v-248zm33 125c57 0 124 11 124-50 0-59-68-47-124-48v98" id="av"/><path fill="#3a414a" d="M100-194c63 0 86 42 84 106H49c0 40 14 67 53 68 26 1 43-12 49-29l28 8c-11 28-37 45-77 45C44 4 14-33 15-96c1-61 26-98 85-98zm52 81c6-60-76-77-97-28-3 7-6 17-6 28h103" id="aw"/><g id="s"><use transform="matrix(0.07407407407407404,0,0,0.07407407407407404,0,0)" xlink:href="#av"/><use transform="matrix(0.07407407407407404,0,0,0.07407407407407404,17.77777777777777,0)" xlink:href="#ab"/><use transform="matrix(0.07407407407407404,0,0,0.07407407407407404,32.59259259259258,0)" xlink:href="#af"/><use transform="matrix(0.07407407407407404,0,0,0.07407407407407404,45.92592592592591,0)" xlink:href="#ag"/><use transform="matrix(0.07407407407407404,0,0,0.07407407407407404,53.33333333333331,0)" xlink:href="#at"/><use transform="matrix(0.07407407407407404,0,0,0.07407407407407404,68.14814814814812,0)" xlink:href="#ac"/><use transform="matrix(0.07407407407407404,0,0,0.07407407407407404,76.96296296296293,0)" xlink:href="#aw"/><use transform="matrix(0.07407407407407404,0,0,0.07407407407407404,91.77777777777774,0)" xlink:href="#af"/></g><path fill="#3a414a" d="M115-194c55 1 70 41 70 98S169 2 115 4C84 4 66-9 55-30l1 105H24l-1-265h31l2 30c10-21 28-34 59-34zm-8 174c40 0 45-34 45-75s-6-73-45-74c-42 0-51 32-51 76 0 43 10 73 51 73" id="ax"/><path fill="#3a414a" d="M96-169c-40 0-48 33-48 73s9 75 48 75c24 0 41-14 43-38l32 2c-6 37-31 61-74 61-59 0-76-41-82-99-10-93 101-131 147-64 4 7 5 14 7 22l-32 3c-4-21-16-35-41-35" id="ay"/><g id="t"><use transform="matrix(0.07407407407407404,0,0,0.07407407407407404,0,0)" xlink:href="#ax"/><use transform="matrix(0.07407407407407404,0,0,0.07407407407407404,14.814814814814808,0)" xlink:href="#ac"/><use transform="matrix(0.07407407407407404,0,0,0.07407407407407404,23.62962962962962,0)" xlink:href="#ab"/><use transform="matrix(0.07407407407407404,0,0,0.07407407407407404,38.44444444444443,0)" xlink:href="#ag"/><use transform="matrix(0.07407407407407404,0,0,0.07407407407407404,45.85185185185183,0)" xlink:href="#ab"/><use transform="matrix(0.07407407407407404,0,0,0.07407407407407404,60.66666666666664,0)" xlink:href="#ay"/><use transform="matrix(0.07407407407407404,0,0,0.07407407407407404,73.99999999999997,0)" xlink:href="#ab"/><use transform="matrix(0.07407407407407404,0,0,0.07407407407407404,88.81481481481478,0)" xlink:href="#as"/></g><path fill="#3a414a" d="M30-248c118-7 216 8 213 122C240-48 200 0 122 0H30v-248zM63-27c89 8 146-16 146-99s-60-101-146-95v194" id="az"/><g id="u"><use transform="matrix(0.06172839506172835,0,0,0.06172839506172835,0,0)" xlink:href="#az"/><use transform="matrix(0.06172839506172835,0,0,0.06172839506172835,15.987654320987643,0)" xlink:href="#ah"/><use transform="matrix(0.06172839506172835,0,0,0.06172839506172835,28.333333333333314,0)" xlink:href="#ag"/><use transform="matrix(0.06172839506172835,0,0,0.06172839506172835,34.50617283950615,0)" xlink:href="#ah"/></g><path fill="#3a414a" d="M117-194c89-4 53 116 60 194h-32v-121c0-31-8-49-39-48C34-167 62-67 57 0H25l-1-190h30c1 10-1 24 2 32 11-22 29-35 61-36" id="aA"/><path fill="#3a414a" d="M108 0H70L1-190h34L89-25l56-165h34" id="aB"/><path fill="#3a414a" d="M16-82v-28h88v28H16" id="aC"/><g id="v"><use transform="matrix(0.06172839506172835,0,0,0.06172839506172835,0,0)" xlink:href="#ay"/><use transform="matrix(0.06172839506172835,0,0,0.06172839506172835,11.111111111111104,0)" xlink:href="#ab"/><use transform="matrix(0.06172839506172835,0,0,0.06172839506172835,23.456790123456774,0)" xlink:href="#aA"/><use transform="matrix(0.06172839506172835,0,0,0.06172839506172835,35.80246913580244,0)" xlink:href="#aB"/><use transform="matrix(0.06172839506172835,0,0,0.06172839506172835,46.91358024691354,0)" xlink:href="#aw"/><use transform="matrix(0.06172839506172835,0,0,0.06172839506172835,59.25925925925921,0)" xlink:href="#ac"/><use transform="matrix(0.06172839506172835,0,0,0.06172839506172835,66.60493827160488,0)" xlink:href="#aC"/></g><g id="w"><use transform="matrix(0.06172839506172835,0,0,0.06172839506172835,0,0)" xlink:href="#af"/><use transform="matrix(0.06172839506172835,0,0,0.06172839506172835,11.111111111111104,0)" xlink:href="#ai"/><use transform="matrix(0.06172839506172835,0,0,0.06172839506172835,15.987654320987646,0)" xlink:href="#ab"/><use transform="matrix(0.06172839506172835,0,0,0.06172839506172835,28.333333333333314,0)" xlink:href="#aA"/></g></defs></g></svg>