<svg xmlns="http://www.w3.org/2000/svg" xmlns:xlink="http://www.w3.org/1999/xlink" xmlns:lucid="lucid" width="800" height="600"><g transform="translate(0 0)" lucid:page-tab-id="ZiyXn.o.IQd~"><path d="M0 0h800v600H0z" fill="#fff"/><path d="M300 6a6 6 0 0 1 6-6h88a6 6 0 0 1 6 6v588a6 6 0 0 1-6 6h-88a6 6 0 0 1-6-6z" stroke="#3a414a" fill="#fff"/><use xlink:href="#a" transform="matrix(1,0,0,1,305,5) translate(-0.009999999999990905 269.70666666666665)"/><use xlink:href="#b" transform="matrix(1,0,0,1,305,5) translate(0.3711111111111194 307.03999999999996)"/><use xlink:href="#c" transform="matrix(1,0,0,1,305,5) translate(19.348888888888894 344.3733333333333)"/><path d="M400 6a6 6 0 0 1 6-6h88a6 6 0 0 1 6 6v588a6 6 0 0 1-6 6h-88a6 6 0 0 1-6-6z" stroke="#3a414a" fill="#fff"/><use xlink:href="#a" transform="matrix(1,0,0,1,405,5) translate(-0.009999999999990905 269.70666666666665)"/><use xlink:href="#b" transform="matrix(1,0,0,1,405,5) translate(0.3711111111111194 307.03999999999996)"/><use xlink:href="#d" transform="matrix(1,0,0,1,405,5) translate(0.09111111111111825 344.3733333333333)"/><path d="M699 6a6 6 0 0 1 6-6h88a6 6 0 0 1 6 6v588a6 6 0 0 1-6 6h-88a6 6 0 0 1-6-6z" stroke="#3a414a" fill="#fff"/><use xlink:href="#e" transform="matrix(1,0,0,1,704,5) translate(23.237777777777783 307.26916666666665)"/><path d="M0 276a6 6 0 0 1 6-6h163a6 6 0 0 1 6 6v48a6 6 0 0 1-6 6H6a6 6 0 0 1-6-6z" stroke="#000" stroke-opacity="0" stroke-width="2" fill="#fff" fill-opacity="0"/><use xlink:href="#f" transform="matrix(1,0,0,1,5,275) translate(-1.9320987654320874 31.22222222222222)"/><path d="M87.5 269.04V206.8a6 6 0 0 1 6-6h586.52" stroke="#3a414a" stroke-width="2" fill="none"/><path d="M88.5 270.04h-2V269h2z" stroke="#3a414a" stroke-width=".05" fill="#3a414a"/><path d="M695.3 200.8L681 205.44v-9.28z" stroke="#3a414a" stroke-width="2" fill="#3a414a"/><path d="M697.55 397.7H93.5a6 6 0 0 1-6-6v-43.23" stroke="#3a414a" stroke-width="2" fill="none"/><path d="M698.55 398.7h-1.03v-2h1.03z" stroke="#3a414a" stroke-width=".05" fill="#3a414a"/><path d="M87.5 333.2l4.64 14.27h-9.28z" stroke="#3a414a" stroke-width="2" fill="#3a414a"/><path d="M150 162a6 6 0 0 1 6-6h88a6 6 0 0 1 6 6v38a6 6 0 0 1-6 6h-88a6 6 0 0 1-6-6z" stroke="#000" stroke-opacity="0" stroke-width="2" fill="#fff" fill-opacity="0"/><use xlink:href="#g" transform="matrix(1,0,0,1,155,160.99999999999997) translate(18.333333333333343 26.33333333333333)"/><path d="M550 106a6 6 0 0 1 6-6h88a6 6 0 0 1 6 6v94a6 6 0 0 1-6 6h-88a6 6 0 0 1-6-6z" stroke="#000" stroke-opacity="0" stroke-width="2" fill="#fff" fill-opacity="0"/><use xlink:href="#h" transform="matrix(1,0,0,1,555,105) translate(-22.259259259259224 21.333333333333343)"/><use xlink:href="#i" transform="matrix(1,0,0,1,555,105) translate(-1.5925925925925668 53.333333333333336)"/><use xlink:href="#j" transform="matrix(1,0,0,1,555,105) translate(-2.3333333333333144 85.33333333333333)"/><path d="M525.5 406a6 6 0 0 1 6-6h137a6 6 0 0 1 6 6v63a6 6 0 0 1-6 6h-137a6 6 0 0 1-6-6z" stroke="#000" stroke-opacity="0" stroke-width="2" fill="#fff" fill-opacity="0"/><g><use xlink:href="#h" transform="matrix(1,0,0,1,530.5,405) translate(2.240740740740776 23.36458333333333)"/><use xlink:href="#k" transform="matrix(1,0,0,1,530.5,405) translate(2.1666666666667 55.36458333333332)"/><use xlink:href="#l" transform="matrix(1,0,0,1,530.5,405) translate(61.42592592592593 55.36458333333332)"/></g><path d="M125 406a6 6 0 0 1 6-6h138a6 6 0 0 1 6 6v13a6 6 0 0 1-6 6H131a6 6 0 0 1-6-6z" stroke="#000" stroke-opacity="0" stroke-width="2" fill="#fff" fill-opacity="0"/><g><use xlink:href="#m" transform="matrix(1,0,0,1,130,405) translate(0.5185185185185475 21.33333333333333)"/><use xlink:href="#n" transform="matrix(1,0,0,1,130,405) translate(83.33333333333333 21.33333333333333)"/></g><defs><path fill="#3a414a" d="M225-206c179 0 234-119 234-302v-938h269v932C723-187 579 16 253 16 172 16 108 6 38-11l14-160c12-81 103-35 173-35" id="o"/><path fill="#3a414a" d="M1377-1015c71 172 71 412 0 584C1271-174 1052 0 698 0H146v-1446h552c353 6 574 175 679 431zM698-214c307-9 457-198 457-509s-150-500-457-509H417v1018h281" id="p"/><path fill="#3a414a" d="M1177-1061c0 181-116 262-257 314 199 45 298 152 298 322C1218-130 997 0 692 0H146v-1446h499c307 3 532 89 532 385zM952-431c0-152-108-202-265-203H415v424h273c163-1 264-65 264-221zm-43-598c0-163-94-209-264-209H415v418h215c168-1 279-50 279-209" id="q"/><path fill="#3a414a" d="M1284-209C1170-69 1008 19 759 16c-347-4-553-182-649-442-66-178-66-423 6-596 108-261 330-435 688-440 220-3 375 79 488 188l-90 125c-16 32-68 39-102 12-71-55-162-101-298-96-304 11-465 201-465 510 0 241 101 401 267 477 125 58 330 39 424-24 42-17 97-111 150-54" id="r"/><path fill="#3a414a" d="M218 3c-22 53-63 92-132 92H-18l584-1494c20-51 60-86 126-87h105" id="s"/><g id="a"><use transform="matrix(0.015555555555555552,0,0,0.015555555555555552,0,0)" xlink:href="#o"/><use transform="matrix(0.015555555555555552,0,0,0.015555555555555552,13.595555555555553,0)" xlink:href="#p"/><use transform="matrix(0.015555555555555552,0,0,0.015555555555555552,36.8511111111111,0)" xlink:href="#q"/><use transform="matrix(0.015555555555555552,0,0,0.015555555555555552,57.11999999999999,0)" xlink:href="#r"/><use transform="matrix(0.015555555555555552,0,0,0.015555555555555552,77.97999999999999,0)" xlink:href="#s"/></g><path fill="#3a414a" d="M1480-1018c71 176 71 414 0 590-106 261-323 444-679 444S225-168 120-428c-71-176-71-414 0-590 106-261 324-444 681-444 355 0 573 184 679 444zM801-214c307 0 456-198 456-509s-149-510-456-510c-308 0-459 198-459 510s152 509 459 509" id="t"/><g id="b"><use transform="matrix(0.015555555555555552,0,0,0.015555555555555552,0,0)" xlink:href="#t"/><use transform="matrix(0.015555555555555552,0,0,0.015555555555555552,24.873333333333328,0)" xlink:href="#p"/><use transform="matrix(0.015555555555555552,0,0,0.015555555555555552,48.12888888888888,0)" xlink:href="#q"/><use transform="matrix(0.015555555555555552,0,0,0.015555555555555552,68.39777777777776,0)" xlink:href="#r"/></g><path fill="#3a414a" d="M1417 0h-208c-47 1-77-28-90-61l-108-295H412L304-61c-11 30-46 61-89 61H6l568-1446h275zM481-546h461c-77-218-163-424-231-651-66 230-154 432-230 651" id="u"/><path fill="#3a414a" d="M1187-985c0 329-222 471-561 476H424V0H155v-1446h471c337 4 561 134 561 461zm-269 0c0-176-112-253-292-253H424v519h202c184-1 292-85 292-266" id="v"/><path fill="#3a414a" d="M449 0H179v-1446h270V0" id="w"/><g id="c"><use transform="matrix(0.015555555555555552,0,0,0.015555555555555552,0,0)" xlink:href="#u"/><use transform="matrix(0.015555555555555552,0,0,0.015555555555555552,22.088888888888885,0)" xlink:href="#v"/><use transform="matrix(0.015555555555555552,0,0,0.015555555555555552,41.533333333333324,0)" xlink:href="#w"/></g><path fill="#3a414a" d="M604-806c-122 5-180 74-225 167V0H132v-1026c83 11 206-35 218 62l15 124c63-106 147-205 295-205 51 0 93 12 126 35l-32 185c-4 23-15 33-40 33-33 0-65-16-110-14" id="x"/><path fill="#3a414a" d="M395-1026V0H148v-1026h247zm-123-457c96 0 160 62 160 158 0 94-65 155-160 155-93 0-156-62-156-155 0-95 61-158 156-158" id="y"/><path fill="#3a414a" d="M646 0H422L14-1026h205c36-1 62 20 71 46 75 215 159 421 226 642 9 30 15 61 21 92 13-66 27-126 50-186l203-548c9-25 34-46 68-46h195" id="z"/><path fill="#3a414a" d="M991-153C899-47 760 15 568 15 237 15 63-197 63-535c0-237 116-392 287-467 61-27 129-40 206-40 287 0 444 174 444 465 0 54-3 95-57 95H309c4 226 158 349 385 292 52-13 93-39 132-62 32-19 73-16 93 9zM778-631c-4-143-73-234-217-234-154 0-226 95-247 234h464" id="A"/><g id="d"><use transform="matrix(0.015555555555555552,0,0,0.015555555555555552,0,0)" xlink:href="#p"/><use transform="matrix(0.015555555555555552,0,0,0.015555555555555552,23.25555555555555,0)" xlink:href="#x"/><use transform="matrix(0.015555555555555552,0,0,0.015555555555555552,35.96444444444444,0)" xlink:href="#y"/><use transform="matrix(0.015555555555555552,0,0,0.015555555555555552,44.395555555555546,0)" xlink:href="#z"/><use transform="matrix(0.015555555555555552,0,0,0.015555555555555552,60.47999999999999,0)" xlink:href="#A"/><use transform="matrix(0.015555555555555552,0,0,0.015555555555555552,77.10888888888887,0)" xlink:href="#x"/></g><g id="e"><use transform="matrix(0.015555555555555552,0,0,0.015555555555555552,0,0)" xlink:href="#p"/><use transform="matrix(0.015555555555555552,0,0,0.015555555555555552,23.25555555555555,0)" xlink:href="#q"/></g><path fill="#3a414a" d="M199 0l-22-63H83L61 0H9l90-248h61L250 0h-51zm-33-102l-36-108c-10 38-24 72-36 108h72" id="B"/><path fill="#3a414a" d="M135-194c53 0 70 44 70 98 0 56-19 98-73 100-31 1-45-17-59-34 3 33 2 69 2 105H25l-1-265h48c2 10 0 23 3 31 11-24 29-35 60-35zM114-30c33 0 39-31 40-66 0-38-9-64-40-64-56 0-55 130 0 130" id="C"/><path fill="#3a414a" d="M25 0v-261h50V0H25" id="D"/><path fill="#3a414a" d="M25-224v-37h50v37H25zM25 0v-190h50V0H25" id="E"/><path fill="#3a414a" d="M190-63c-7 42-38 67-86 67-59 0-84-38-90-98-12-110 154-137 174-36l-49 2c-2-19-15-32-35-32-30 0-35 28-38 64-6 74 65 87 74 30" id="F"/><path fill="#3a414a" d="M133-34C117-15 103 5 69 4 32 3 11-16 11-54c-1-60 55-63 116-61 1-26-3-47-28-47-18 1-26 9-28 27l-52-2c7-38 36-58 82-57s74 22 75 68l1 82c-1 14 12 18 25 15v27c-30 8-71 5-69-32zm-48 3c29 0 43-24 42-57-32 0-66-3-65 30 0 17 8 27 23 27" id="G"/><path fill="#3a414a" d="M115-3C79 11 28 4 28-45v-112H4v-33h27l15-45h31v45h36v33H77v99c-1 23 16 31 38 25v30" id="H"/><path fill="#3a414a" d="M110-194c64 0 96 36 96 99 0 64-35 99-97 99-61 0-95-36-95-99 0-62 34-99 96-99zm-1 164c35 0 45-28 45-65 0-40-10-65-43-65-34 0-45 26-45 65 0 36 10 65 43 65" id="I"/><path fill="#3a414a" d="M135-194c87-1 58 113 63 194h-50c-7-57 23-157-34-157-59 0-34 97-39 157H25l-1-190h47c2 12-1 28 3 38 12-26 28-41 61-42" id="J"/><g id="f"><use transform="matrix(0.08641975308641973,0,0,0.08641975308641973,0,0)" xlink:href="#B"/><use transform="matrix(0.08641975308641973,0,0,0.08641975308641973,22.38271604938271,0)" xlink:href="#C"/><use transform="matrix(0.08641975308641973,0,0,0.08641975308641973,41.30864197530863,0)" xlink:href="#C"/><use transform="matrix(0.08641975308641973,0,0,0.08641975308641973,60.234567901234556,0)" xlink:href="#D"/><use transform="matrix(0.08641975308641973,0,0,0.08641975308641973,68.87654320987653,0)" xlink:href="#E"/><use transform="matrix(0.08641975308641973,0,0,0.08641975308641973,77.5185185185185,0)" xlink:href="#F"/><use transform="matrix(0.08641975308641973,0,0,0.08641975308641973,94.80246913580245,0)" xlink:href="#G"/><use transform="matrix(0.08641975308641973,0,0,0.08641975308641973,112.08641975308639,0)" xlink:href="#H"/><use transform="matrix(0.08641975308641973,0,0,0.08641975308641973,122.37037037037034,0)" xlink:href="#E"/><use transform="matrix(0.08641975308641973,0,0,0.08641975308641973,131.01234567901233,0)" xlink:href="#I"/><use transform="matrix(0.08641975308641973,0,0,0.08641975308641973,149.93827160493825,0)" xlink:href="#J"/></g><path fill="#3a414a" d="M185-189c-5-48-123-54-124 2 14 75 158 14 163 119 3 78-121 87-175 55-17-10-28-26-33-46l33-7c5 56 141 63 141-1 0-78-155-14-162-118-5-82 145-84 179-34 5 7 8 16 11 25" id="K"/><path fill="#3a414a" d="M140-251c81 0 123 46 123 126C263-53 228-8 163 1c7 30 30 48 69 40v23c-55 16-95-15-103-61C56-3 17-48 17-125c0-80 42-126 123-126zm0 227c63 0 89-41 89-101s-29-99-89-99c-61 0-89 39-89 99S79-25 140-24" id="L"/><path fill="#3a414a" d="M30 0v-248h33v221h125V0H30" id="M"/><g id="g"><use transform="matrix(0.07407407407407404,0,0,0.07407407407407404,0,0)" xlink:href="#K"/><use transform="matrix(0.07407407407407404,0,0,0.07407407407407404,17.77777777777777,0)" xlink:href="#L"/><use transform="matrix(0.07407407407407404,0,0,0.07407407407407404,38.518518518518505,0)" xlink:href="#M"/></g><path fill="#3a414a" d="M30-248c118-7 216 8 213 122C240-48 200 0 122 0H30v-248zM63-27c89 8 146-16 146-99s-60-101-146-95v194" id="N"/><path fill="#3a414a" d="M160-131c35 5 61 23 61 61C221 17 115-2 30 0v-248c76 3 177-17 177 60 0 33-19 50-47 57zm-97-11c50-1 110 9 110-42 0-47-63-36-110-37v79zm0 115c55-2 124 14 124-45 0-56-70-42-124-44v89" id="O"/><path fill="#3a414a" d="M16-82v-28h88v28H16" id="P"/><path fill="#3a414a" d="M135-143c-3-34-86-38-87 0 15 53 115 12 119 90S17 21 10-45l28-5c4 36 97 45 98 0-10-56-113-15-118-90-4-57 82-63 122-42 12 7 21 19 24 35" id="Q"/><path fill="#3a414a" d="M115-194c55 1 70 41 70 98S169 2 115 4C84 4 66-9 55-30l1 105H24l-1-265h31l2 30c10-21 28-34 59-34zm-8 174c40 0 45-34 45-75s-6-73-45-74c-42 0-51 32-51 76 0 43 10 73 51 73" id="R"/><path fill="#3a414a" d="M100-194c63 0 86 42 84 106H49c0 40 14 67 53 68 26 1 43-12 49-29l28 8c-11 28-37 45-77 45C44 4 14-33 15-96c1-61 26-98 85-98zm52 81c6-60-76-77-97-28-3 7-6 17-6 28h103" id="S"/><path fill="#3a414a" d="M96-169c-40 0-48 33-48 73s9 75 48 75c24 0 41-14 43-38l32 2c-6 37-31 61-74 61-59 0-76-41-82-99-10-93 101-131 147-64 4 7 5 14 7 22l-32 3c-4-21-16-35-41-35" id="T"/><path fill="#3a414a" d="M24-231v-30h32v30H24zM24 0v-190h32V0H24" id="U"/><path fill="#3a414a" d="M101-234c-31-9-42 10-38 44h38v23H63V0H32v-167H5v-23h27c-7-52 17-82 69-68v24" id="V"/><g id="h"><use transform="matrix(0.07407407407407404,0,0,0.07407407407407404,0,0)" xlink:href="#N"/><use transform="matrix(0.07407407407407404,0,0,0.07407407407407404,19.185185185185176,0)" xlink:href="#O"/><use transform="matrix(0.07407407407407404,0,0,0.07407407407407404,36.96296296296295,0)" xlink:href="#P"/><use transform="matrix(0.07407407407407404,0,0,0.07407407407407404,45.77777777777776,0)" xlink:href="#Q"/><use transform="matrix(0.07407407407407404,0,0,0.07407407407407404,59.111111111111086,0)" xlink:href="#R"/><use transform="matrix(0.07407407407407404,0,0,0.07407407407407404,73.9259259259259,0)" xlink:href="#S"/><use transform="matrix(0.07407407407407404,0,0,0.07407407407407404,88.7407407407407,0)" xlink:href="#T"/><use transform="matrix(0.07407407407407404,0,0,0.07407407407407404,102.07407407407403,0)" xlink:href="#U"/><use transform="matrix(0.07407407407407404,0,0,0.07407407407407404,107.92592592592588,0)" xlink:href="#V"/><use transform="matrix(0.07407407407407404,0,0,0.07407407407407404,115.33333333333329,0)" xlink:href="#U"/><use transform="matrix(0.07407407407407404,0,0,0.07407407407407404,121.18518518518513,0)" xlink:href="#T"/></g><path fill="#3a414a" d="M117-194c89-4 53 116 60 194h-32v-121c0-31-8-49-39-48C34-167 62-67 57 0H25l-1-190h30c1 10-1 24 2 32 11-22 29-35 61-36" id="W"/><path fill="#3a414a" d="M59-47c-2 24 18 29 38 22v24C64 9 27 4 27-40v-127H5v-23h24l9-43h21v43h35v23H59v120" id="X"/><path fill="#3a414a" d="M206 0h-36l-40-164L89 0H53L-1-190h32L70-26l43-164h34l41 164 42-164h31" id="Y"/><path fill="#3a414a" d="M100-194c62-1 85 37 85 99 1 63-27 99-86 99S16-35 15-95c0-66 28-99 85-99zM99-20c44 1 53-31 53-75 0-43-8-75-51-75s-53 32-53 75 10 74 51 75" id="Z"/><path fill="#3a414a" d="M114-163C36-179 61-72 57 0H25l-1-190h30c1 12-1 29 2 39 6-27 23-49 58-41v29" id="aa"/><path fill="#3a414a" d="M143 0L79-87 56-68V0H24v-261h32v163l83-92h37l-77 82L181 0h-38" id="ab"/><g id="i"><use transform="matrix(0.07407407407407404,0,0,0.07407407407407404,0,0)" xlink:href="#W"/><use transform="matrix(0.07407407407407404,0,0,0.07407407407407404,14.814814814814808,0)" xlink:href="#S"/><use transform="matrix(0.07407407407407404,0,0,0.07407407407407404,29.629629629629616,0)" xlink:href="#X"/><use transform="matrix(0.07407407407407404,0,0,0.07407407407407404,37.03703703703702,0)" xlink:href="#Y"/><use transform="matrix(0.07407407407407404,0,0,0.07407407407407404,56.22222222222219,0)" xlink:href="#Z"/><use transform="matrix(0.07407407407407404,0,0,0.07407407407407404,71.037037037037,0)" xlink:href="#aa"/><use transform="matrix(0.07407407407407404,0,0,0.07407407407407404,79.8518518518518,0)" xlink:href="#ab"/></g><path fill="#3a414a" d="M24 0v-261h32V0H24" id="ac"/><g id="j"><use transform="matrix(0.07407407407407404,0,0,0.07407407407407404,0,0)" xlink:href="#R"/><use transform="matrix(0.07407407407407404,0,0,0.07407407407407404,14.814814814814808,0)" xlink:href="#aa"/><use transform="matrix(0.07407407407407404,0,0,0.07407407407407404,23.62962962962962,0)" xlink:href="#Z"/><use transform="matrix(0.07407407407407404,0,0,0.07407407407407404,38.44444444444443,0)" xlink:href="#X"/><use transform="matrix(0.07407407407407404,0,0,0.07407407407407404,45.85185185185183,0)" xlink:href="#Z"/><use transform="matrix(0.07407407407407404,0,0,0.07407407407407404,60.66666666666664,0)" xlink:href="#T"/><use transform="matrix(0.07407407407407404,0,0,0.07407407407407404,73.99999999999997,0)" xlink:href="#Z"/><use transform="matrix(0.07407407407407404,0,0,0.07407407407407404,88.81481481481478,0)" xlink:href="#ac"/></g><path fill="#3a414a" d="M85-194c31 0 48 13 60 33l-1-100h32l1 261h-30c-2-10 0-23-3-31C134-8 116 4 85 4 32 4 16-35 15-94c0-66 23-100 70-100zm9 24c-40 0-46 34-46 75 0 40 6 74 45 74 42 0 51-32 51-76 0-42-9-74-50-73" id="ad"/><path fill="#3a414a" d="M141-36C126-15 110 5 73 4 37 3 15-17 15-53c-1-64 63-63 125-63 3-35-9-54-41-54-24 1-41 7-42 31l-33-3c5-37 33-52 76-52 45 0 72 20 72 64v82c-1 20 7 32 28 27v20c-31 9-61-2-59-35zM48-53c0 20 12 33 32 33 41-3 63-29 60-74-43 2-92-5-92 41" id="ae"/><g id="k"><use transform="matrix(0.07407407407407404,0,0,0.07407407407407404,0,0)" xlink:href="#ad"/><use transform="matrix(0.07407407407407404,0,0,0.07407407407407404,14.814814814814808,0)" xlink:href="#ae"/><use transform="matrix(0.07407407407407404,0,0,0.07407407407407404,29.629629629629616,0)" xlink:href="#X"/><use transform="matrix(0.07407407407407404,0,0,0.07407407407407404,37.03703703703702,0)" xlink:href="#ae"/></g><path fill="#3a414a" d="M210-169c-67 3-38 105-44 169h-31v-121c0-29-5-50-35-48C34-165 62-65 56 0H25l-1-190h30c1 10-1 24 2 32 10-44 99-50 107 0 11-21 27-35 58-36 85-2 47 119 55 194h-31v-121c0-29-5-49-35-48" id="af"/><g id="l"><use transform="matrix(0.07407407407407404,0,0,0.07407407407407404,0,0)" xlink:href="#V"/><use transform="matrix(0.07407407407407404,0,0,0.07407407407407404,7.407407407407404,0)" xlink:href="#Z"/><use transform="matrix(0.07407407407407404,0,0,0.07407407407407404,22.222222222222214,0)" xlink:href="#aa"/><use transform="matrix(0.07407407407407404,0,0,0.07407407407407404,31.037037037037024,0)" xlink:href="#af"/><use transform="matrix(0.07407407407407404,0,0,0.07407407407407404,53.18518518518516,0)" xlink:href="#ae"/><use transform="matrix(0.07407407407407404,0,0,0.07407407407407404,67.99999999999997,0)" xlink:href="#X"/></g><path fill="#3a414a" d="M233-177c-1 41-23 64-60 70L243 0h-38l-65-103H63V0H30v-248c88 3 205-21 203 71zM63-129c60-2 137 13 137-47 0-61-80-42-137-45v92" id="ag"/><path fill="#3a414a" d="M84 4C-5 8 30-112 23-190h32v120c0 31 7 50 39 49 72-2 45-101 50-169h31l1 190h-30c-1-10 1-25-2-33-11 22-28 36-60 37" id="ah"/><g id="m"><use transform="matrix(0.07407407407407404,0,0,0.07407407407407404,0,0)" xlink:href="#ag"/><use transform="matrix(0.07407407407407404,0,0,0.07407407407407404,19.185185185185176,0)" xlink:href="#S"/><use transform="matrix(0.07407407407407404,0,0,0.07407407407407404,33.999999999999986,0)" xlink:href="#Q"/><use transform="matrix(0.07407407407407404,0,0,0.07407407407407404,47.333333333333314,0)" xlink:href="#ah"/><use transform="matrix(0.07407407407407404,0,0,0.07407407407407404,62.148148148148124,0)" xlink:href="#ac"/><use transform="matrix(0.07407407407407404,0,0,0.07407407407407404,67.99999999999997,0)" xlink:href="#X"/></g><g id="n"><use transform="matrix(0.07407407407407404,0,0,0.07407407407407404,0,0)" xlink:href="#aa"/><use transform="matrix(0.07407407407407404,0,0,0.07407407407407404,8.814814814814811,0)" xlink:href="#Z"/><use transform="matrix(0.07407407407407404,0,0,0.07407407407407404,23.62962962962962,0)" xlink:href="#Y"/><use transform="matrix(0.07407407407407404,0,0,0.07407407407407404,42.814814814814795,0)" xlink:href="#Q"/></g></defs></g></svg>